<svg width="512" height="320" viewBox="0 0 512 320" fill="none" xmlns="http://www.w3.org/2000/svg">
<path d="M263.744 222.869C263.744 183.445 244.992 154.304 206.251 143.381C234.517 129.92 249.259 109.525 249.259 77.8027C249.259 15.2533 202.496 0 148.544 0H0V314.048H152.704C209.963 314.048 263.744 286.677 263.744 222.869ZM69.248 53.6107H134.229C159.211 53.6107 181.696 60.608 181.696 89.4933C181.696 116.16 164.203 126.891 139.456 126.891H69.248V53.6107ZM69.2267 260.715V174.229H144.704C175.189 174.229 194.475 186.901 194.475 219.072C194.475 250.795 171.456 260.715 143.275 260.715H69.2267ZM400.981 320C455.467 320 490.752 295.531 507.733 243.52H452.437C446.485 262.933 421.952 273.195 402.923 273.195C366.208 273.195 346.923 251.755 346.923 215.317H511.467C516.672 142.4 476.053 80.256 400.96 80.256C331.435 80.256 284.245 132.352 284.245 200.597C284.245 271.424 328.96 320 400.981 320ZM399.019 127.445C430.485 127.445 446.315 145.877 448.96 176.021H347.008C349.077 146.133 368.981 127.445 399.019 127.445ZM334.229 16.4907H461.973V47.424H334.229V16.4907Z" fill="#32325F"/>
</svg>
