<svg width="75" height="75" viewBox="0 0 75 75" fill="none" xmlns="http://www.w3.org/2000/svg">
<mask id="path-1-inside-1_120_63" fill="white">
<path fill-rule="evenodd" clip-rule="evenodd" d="M38.8212 0.69429C39.0185 0.301165 39.4113 0.104603 39.8044 0.104603C62.2122 -1.86102 77.7409 24.2818 74.5953 44.3311C71.6471 63.987 51.4016 77.3539 32.1378 74.4051C12.0885 71.4564 -2.26058 52.1936 0.29473 32.1442C2.65412 13.0774 19.5581 -2.0579 38.8212 0.69429ZM38.6333 1.67949C38.6989 1.68142 38.7645 1.68352 38.83 1.6858C38.827 1.6829 38.8242 1.68 38.8212 1.6771C38.7586 1.67775 38.6959 1.67855 38.6333 1.67949Z"/>
</mask>
<path fill-rule="evenodd" clip-rule="evenodd" d="M38.8212 0.69429C39.0185 0.301165 39.4113 0.104603 39.8044 0.104603C62.2122 -1.86102 77.7409 24.2818 74.5953 44.3311C71.6471 63.987 51.4016 77.3539 32.1378 74.4051C12.0885 71.4564 -2.26058 52.1936 0.29473 32.1442C2.65412 13.0774 19.5581 -2.0579 38.8212 0.69429ZM38.6333 1.67949C38.6989 1.68142 38.7645 1.68352 38.83 1.6858C38.827 1.6829 38.8242 1.68 38.8212 1.6771C38.7586 1.67775 38.6959 1.67855 38.6333 1.67949Z" fill="#EFEBFF"/>
<path d="M39.8044 0.104603V1.1046H39.8482L39.8918 1.10078L39.8044 0.104603ZM38.8212 0.69429L38.6798 1.68424L39.3924 1.78604L39.7151 1.14267L38.8212 0.69429ZM74.5953 44.3311L73.6073 44.1761L73.6063 44.1828L74.5953 44.3311ZM32.1378 74.4051L32.2891 73.4166L32.2833 73.4158L32.1378 74.4051ZM0.29473 32.1442L1.28671 32.2707L1.28716 32.267L0.29473 32.1442ZM38.6333 1.67949L38.6183 0.679605L38.604 2.67906L38.6333 1.67949ZM38.83 1.6858L38.7951 2.6852L41.3335 2.77362L39.5368 0.978406L38.83 1.6858ZM38.8212 1.6771L39.5281 0.969776L39.231 0.672786L38.8108 0.677155L38.8212 1.6771ZM39.8044 -0.895397C39.0873 -0.895397 38.3173 -0.531356 37.9274 0.245908L39.7151 1.14267C39.7193 1.13428 39.7227 1.13039 39.7245 1.12851C39.7265 1.12638 39.7298 1.12352 39.7355 1.12027C39.7481 1.11303 39.7721 1.1046 39.8044 1.1046V-0.895397ZM75.5832 44.4861C77.2014 34.172 74.0192 22.3634 67.5958 13.3806C61.1647 4.38705 51.3716 -1.91392 39.717 -0.891572L39.8918 1.10078C50.645 0.157501 59.8201 5.94511 65.9689 14.5439C72.1254 23.1534 75.1347 34.4409 73.6073 44.1761L75.5832 44.4861ZM31.9865 75.3936C51.7422 78.4177 72.5459 64.7363 75.5842 44.4794L73.6063 44.1828C70.7483 63.2377 51.0609 76.2901 32.2891 73.4166L31.9865 75.3936ZM-0.697246 32.0178C-3.32025 52.5983 11.3948 72.3651 31.9923 75.3945L32.2833 73.4158C12.7821 70.5476 -1.20091 51.7889 1.28671 32.2707L-0.697246 32.0178ZM38.9627 -0.295658C19.0608 -3.13911 1.71942 12.4881 -0.697701 32.0214L1.28716 32.267C3.58882 13.6667 20.0555 -0.976694 38.6798 1.68424L38.9627 -0.295658ZM38.604 2.67906C38.6677 2.68093 38.7315 2.68298 38.7951 2.6852L38.8648 0.68641C38.7974 0.684065 38.7301 0.681902 38.6627 0.679922L38.604 2.67906ZM38.1144 2.38443C38.1158 2.38586 38.121 2.39109 38.1231 2.3932L39.5368 0.978406C39.5331 0.974712 39.5325 0.974139 39.5281 0.969776L38.1144 2.38443ZM38.6484 2.67938C38.7094 2.67846 38.7705 2.67768 38.8316 2.67705L38.8108 0.677155C38.7466 0.677822 38.6824 0.678639 38.6183 0.679605L38.6484 2.67938Z" fill="#EFEBFF" mask="url(#path-1-inside-1_120_63)"/>
<path d="M54.9165 40.9832C54.6859 40.522 54.6313 40.6494 47.0943 40.6494C47.0943 25.266 47.161 25.4784 47.0336 25.2296C46.9608 25.0718 47.337 25.4723 42.0635 20.1928C41.7844 19.9197 42.4762 20.0168 24.6411 20.0168C24.4801 20.0168 24.3258 20.0807 24.212 20.1945C24.0982 20.3083 24.0342 20.4627 24.0342 20.6236V28.5126H21.6068C21.4459 28.5126 21.2915 28.5765 21.1777 28.6903C21.0639 28.8041 21 28.9585 21 29.1194V37.6152C21 37.7762 21.0639 37.9305 21.1777 38.0443C21.2915 38.1581 21.4459 38.2221 21.6068 38.2221H24.0342V50.9658C24.0342 51.1267 24.0982 51.2811 24.212 51.3949C24.3258 51.5087 24.4801 51.5726 24.6411 51.5726H34.3506V53.3932C34.3506 53.5541 34.4145 53.7085 34.5283 53.8223C34.6421 53.9361 34.7965 54 34.9574 54H54.3764C54.5373 54 54.6917 53.9361 54.8055 53.8223C54.9193 53.7085 54.9832 53.5541 54.9832 53.3932C54.9832 40.7101 55.0136 41.1713 54.9165 40.9832ZM51.8034 41.8631L44.6669 45.4314L37.5304 41.8631H51.8034ZM45.0249 24.8715H42.2395V22.0861L45.0249 24.8715ZM22.2137 29.7263H33.1369V37.0084H22.2137V29.7263ZM25.2479 50.3589V38.2221H33.7437C33.9047 38.2221 34.059 38.1581 34.1728 38.0443C34.2866 37.9305 34.3506 37.7762 34.3506 37.6152V29.1194C34.3506 28.9585 34.2866 28.8041 34.1728 28.6903C34.059 28.5765 33.9047 28.5126 33.7437 28.5126H25.2479V21.2305H41.0258V25.4784C41.0258 25.6393 41.0898 25.7937 41.2036 25.9075C41.3174 26.0213 41.4717 26.0852 41.6327 26.0852H45.8806V40.6494C34.7571 40.6494 34.654 40.5099 34.4173 40.9832C34.3141 41.1835 34.3506 40.783 34.3506 50.3589H25.2479ZM35.5642 52.7863V42.2394C45.1888 47.0516 44.4545 46.7179 44.6669 46.7179C44.8793 46.7179 44.1996 47.0213 53.7695 42.2394V52.7863H35.5642Z" fill="#32325F"/>
<path d="M51.409 39.7938C51.4655 39.8711 51.5395 39.934 51.6249 39.9772C51.7104 40.0205 51.8048 40.0429 51.9006 40.0426C52.295 40.0426 52.2161 40.0426 54.2491 37.3786C54.4311 37.1419 54.3765 38.1311 54.3765 24.2647C54.3752 24.0529 54.3185 23.8451 54.2121 23.662C54.1056 23.4789 53.9531 23.3268 53.7697 23.2209V21.8373C53.7697 21.3545 53.5779 20.8914 53.2364 20.55C52.895 20.2086 52.432 20.0168 51.9491 20.0168C51.4663 20.0168 51.0032 20.2086 50.6618 20.55C50.3204 20.8914 50.1286 21.3545 50.1286 21.8373V23.2209C49.9452 23.3268 49.7926 23.4789 49.6862 23.662C49.5797 23.8451 49.523 24.0529 49.5218 24.2647C49.5218 38.2221 49.4732 37.1358 49.6371 37.3664L51.409 39.7938ZM53.1628 36.8021L51.9127 38.4223L50.7354 36.8081V24.2647H53.1628V36.8021ZM51.3423 21.8373C51.3423 21.6764 51.4062 21.522 51.52 21.4082C51.6338 21.2944 51.7882 21.2305 51.9491 21.2305C52.1101 21.2305 52.2644 21.2944 52.3782 21.4082C52.492 21.522 52.556 21.6764 52.556 21.8373V23.051H51.3423V21.8373ZM27.0686 32.7605C27.0686 32.4004 26.9618 32.0484 26.7617 31.7491C26.5617 31.4497 26.2774 31.2163 25.9447 31.0785C25.612 30.9408 25.246 30.9047 24.8929 30.9749C24.5397 31.0452 24.2153 31.2186 23.9607 31.4732C23.7061 31.7278 23.5327 32.0522 23.4625 32.4053C23.3922 32.7585 23.4283 33.1245 23.5661 33.4572C23.7039 33.7898 23.9372 34.0742 24.2366 34.2742C24.536 34.4743 24.888 34.581 25.248 34.581C25.7309 34.581 26.1939 34.3892 26.5353 34.0478C26.8767 33.7064 27.0686 33.2433 27.0686 32.7605ZM24.6412 32.7605C24.6412 32.5996 24.7051 32.4452 24.8189 32.3314C24.9327 32.2176 25.0871 32.1537 25.248 32.1537C25.409 32.1537 25.5633 32.2176 25.6771 32.3314C25.7909 32.4452 25.8549 32.5996 25.8549 32.7605C25.8549 32.9214 25.7909 33.0758 25.6771 33.1896C25.5633 33.3034 25.409 33.3673 25.248 33.3673C25.0871 33.3673 24.9327 33.3034 24.8189 33.1896C24.7051 33.0758 24.6412 32.9214 24.6412 32.7605ZM28.8891 33.9742H31.3165C31.4774 33.9742 31.6318 33.9102 31.7456 33.7964C31.8594 33.6826 31.9233 33.5283 31.9233 33.3673C31.9233 33.2064 31.8594 33.052 31.7456 32.9382C31.6318 32.8244 31.4774 32.7605 31.3165 32.7605H28.8891C28.7281 32.7605 28.5738 32.8244 28.46 32.9382C28.3462 33.052 28.2822 33.2064 28.2822 33.3673C28.2822 33.5283 28.3462 33.6826 28.46 33.7964C28.5738 33.9102 28.7281 33.9742 28.8891 33.9742ZM28.8891 35.7947H31.3165C31.4774 35.7947 31.6318 35.7308 31.7456 35.617C31.8594 35.5032 31.9233 35.3488 31.9233 35.1879C31.9233 35.0269 31.8594 34.8726 31.7456 34.7588C31.6318 34.645 31.4774 34.581 31.3165 34.581H28.8891C28.7281 34.581 28.5738 34.645 28.46 34.7588C28.3462 34.8726 28.2822 35.0269 28.2822 35.1879C28.2822 35.3488 28.3462 35.5032 28.46 35.617C28.5738 35.7308 28.7281 35.7947 28.8891 35.7947ZM29.4959 22.4442C29.0158 22.4442 28.5465 22.5865 28.1473 22.8532C27.7482 23.12 27.437 23.4991 27.2533 23.9426C27.0696 24.3862 27.0215 24.8742 27.1152 25.3451C27.2089 25.816 27.44 26.2485 27.7795 26.5879C28.119 26.9274 28.5515 27.1586 29.0224 27.2523C29.4932 27.3459 29.9813 27.2979 30.4248 27.1141C30.8684 26.9304 31.2475 26.6193 31.5142 26.2201C31.7809 25.8209 31.9233 25.3516 31.9233 24.8715C31.9233 24.2278 31.6676 23.6103 31.2123 23.1551C30.7571 22.6999 30.1397 22.4442 29.4959 22.4442ZM29.4959 26.0852C29.2559 26.0852 29.0212 26.014 28.8216 25.8807C28.622 25.7473 28.4665 25.5578 28.3746 25.336C28.2828 25.1142 28.2587 24.8702 28.3056 24.6348C28.3524 24.3993 28.468 24.1831 28.6377 24.0133C28.8075 23.8436 29.0237 23.728 29.2591 23.6812C29.4946 23.6343 29.7386 23.6584 29.9604 23.7502C30.1822 23.8421 30.3717 23.9977 30.5051 24.1972C30.6384 24.3968 30.7096 24.6315 30.7096 24.8715C30.7096 25.1934 30.5817 25.5021 30.3541 25.7297C30.1265 25.9573 29.8178 26.0852 29.4959 26.0852ZM33.7438 24.2647H39.2054C39.3664 24.2647 39.5207 24.2008 39.6345 24.0869C39.7483 23.9731 39.8123 23.8188 39.8123 23.6578C39.8123 23.4969 39.7483 23.3425 39.6345 23.2287C39.5207 23.1149 39.3664 23.051 39.2054 23.051H33.7438C33.5829 23.051 33.4285 23.1149 33.3147 23.2287C33.2009 23.3425 33.137 23.4969 33.137 23.6578C33.137 23.8188 33.2009 23.9731 33.3147 24.0869C33.4285 24.2008 33.5829 24.2647 33.7438 24.2647ZM36.778 25.4784H33.7438C33.5829 25.4784 33.4285 25.5423 33.3147 25.6561C33.2009 25.7699 33.137 25.9243 33.137 26.0852C33.137 26.2462 33.2009 26.4005 33.3147 26.5143C33.4285 26.6281 33.5829 26.6921 33.7438 26.6921H36.778C36.939 26.6921 37.0933 26.6281 37.2072 26.5143C37.321 26.4005 37.3849 26.2462 37.3849 26.0852C37.3849 25.9243 37.321 25.7699 37.2072 25.6561C37.0933 25.5423 36.939 25.4784 36.778 25.4784ZM38.902 47.3247C38.4819 47.3247 38.0713 47.4493 37.722 47.6827C37.3727 47.9161 37.1005 48.2478 36.9397 48.6359C36.779 49.024 36.7369 49.451 36.8189 49.8631C36.9008 50.2751 37.1031 50.6535 37.4001 50.9506C37.6972 51.2476 38.0756 51.4499 38.4876 51.5318C38.8996 51.6138 39.3267 51.5717 39.7148 51.411C40.1029 51.2502 40.4346 50.978 40.668 50.6287C40.9014 50.2794 41.026 49.8688 41.026 49.4487C41.026 48.8854 40.8022 48.3451 40.4039 47.9468C40.0055 47.5485 39.4653 47.3247 38.902 47.3247ZM38.902 50.359C38.6606 50.359 38.4291 50.2631 38.2583 50.0923C38.0876 49.9216 37.9917 49.6901 37.9917 49.4487C37.9917 49.2073 38.0876 48.9757 38.2583 48.805C38.4291 48.6343 38.6606 48.5384 38.902 48.5384C39.1434 48.5384 39.3749 48.6343 39.5457 48.805C39.7164 48.9757 39.8123 49.2073 39.8123 49.4487C39.8123 49.6901 39.7164 49.9216 39.5457 50.0923C39.3749 50.2631 39.1434 50.359 38.902 50.359ZM48.3081 47.9316H42.8465C42.6855 47.9316 42.5312 47.9955 42.4174 48.1093C42.3036 48.2231 42.2396 48.3775 42.2396 48.5384C42.2396 48.6994 42.3036 48.8537 42.4174 48.9675C42.5312 49.0813 42.6855 49.1453 42.8465 49.1453H48.3081C48.469 49.1453 48.6234 49.0813 48.7372 48.9675C48.851 48.8537 48.9149 48.6994 48.9149 48.5384C48.9149 48.3775 48.851 48.2231 48.7372 48.1093C48.6234 47.9955 48.469 47.9316 48.3081 47.9316ZM45.8807 50.359H42.8465C42.6855 50.359 42.5312 50.4229 42.4174 50.5367C42.3036 50.6505 42.2396 50.8049 42.2396 50.9658C42.2396 51.1267 42.3036 51.2811 42.4174 51.3949C42.5312 51.5087 42.6855 51.5726 42.8465 51.5726H45.8807C46.0416 51.5726 46.196 51.5087 46.3098 51.3949C46.4236 51.2811 46.4875 51.1267 46.4875 50.9658C46.4875 50.8049 46.4236 50.6505 46.3098 50.5367C46.196 50.4229 46.0416 50.359 45.8807 50.359Z" fill="#32325F"/>
</svg>
