<svg width="512" height="512" viewBox="0 0 512 512" fill="none" xmlns="http://www.w3.org/2000/svg">
<path d="M256 0C114.84 0 0 114.84 0 255.997C0 397.154 114.84 511.995 256 511.995C397.16 511.995 512 397.154 512 255.997C512 114.84 397.16 0 256 0ZM422.825 120.734C451.564 156.111 469.258 200.763 470.729 249.437C417.492 238.416 369.286 239.709 326.731 248.053C319.305 230.696 311.391 213.552 302.998 196.641C349.343 176.676 389.69 151.175 422.825 120.734ZM393.987 91.4249C361.096 121.447 322.979 143.675 283.95 160.087C255.304 107.702 227.896 68.2535 211.2 45.8357C225.926 42.6922 240.942 41.1061 256 41.1034C308.494 41.1034 356.627 60.0493 393.987 91.4249ZM169.686 59.2601C182.293 75.5973 212.324 116.503 244.581 174.703C163.509 201.116 84.8428 205.566 47.0414 205.98C62.7977 140.16 108.891 86.0376 169.686 59.2601ZM41.3281 247.187L42.5392 247.19C68.6591 247.19 116.514 245.434 172.853 235.161C204.996 229.299 235.476 221.41 264.075 211.633C271.827 227.069 279.171 242.707 286.099 258.529C246.053 271.422 212.282 289.973 185.532 308.393C140.675 339.284 109.25 373.556 92.0907 394.746C60.3206 357.279 41.1034 308.853 41.1034 255.997C41.1034 253.043 41.2075 250.114 41.3281 247.187ZM121.71 423.587C136.482 404.986 166.551 371.131 210.046 341.424C239.605 321.234 270.186 306.234 301.669 296.388C319.935 343.734 335.53 396.047 344.827 451.594C316.946 464.326 286.651 470.908 256 470.891C205.218 470.891 158.527 453.148 121.71 423.587ZM382.642 429.462C373.06 378.447 358.769 330.479 342.249 286.641C382.886 279.785 424.886 281.199 468.022 290.889C458.719 347.584 427.171 396.864 382.642 429.462Z" fill="#32325F"/>
</svg>
