<svg width="36" height="36" viewBox="0 0 36 36" fill="none" xmlns="http://www.w3.org/2000/svg">
<g clip-path="url(#clip0_89_2)">
<path d="M6.26467 13.5957C6.26467 12.284 6.25679 11.059 6.26467 9.85982C6.26523 9.76303 6.27705 9.63023 6.28549 9.53401C6.32263 9.12942 6.83469 8.69163 7.23759 8.45079C10.1401 6.71539 14.1038 6.99674 16.7508 9.22395C23.195 15.501 29.3713 22.0538 35.6511 28.4929C33.5618 28.4929 31.2603 28.5294 28.9622 28.4574C28.5733 28.445 28.1502 28.0129 27.8266 27.691C23.9141 23.8015 20.4945 20.293 16.5977 16.3873C16.3378 16.1267 15.6704 15.4008 15.4132 15.1375C13.5557 13.2344 10.2942 10.9391 6.94442 13.1286C6.82456 13.2074 6.59498 13.3649 6.26467 13.5957Z" fill="#ADADFF"/>
<path d="M26.9938 17.0068C25.5274 15.6282 24.7683 14.8528 23.5191 13.6621C25.0676 11.9238 26.6641 10.1007 28.3083 8.32193C28.5581 8.05183 29.0274 7.86051 29.4011 7.85038C31.186 7.80199 32.9732 7.82843 35.2178 7.82843C32.2692 11.1192 29.7494 13.9316 26.9938 17.0068Z" fill="#32325F"/>
<path d="M20.9328 11.0944C19.3651 9.81143 17.8137 8.56953 16.3029 7.27867C16.0682 7.07834 15.9107 6.66025 15.905 6.3395C15.8701 4.27323 15.887 2.20639 15.887 0C17.5718 0 19.1778 0 20.9323 0C20.9328 3.68069 20.9328 7.39177 20.9328 11.0944Z" fill="#32325F"/>
<path d="M20.979 24.7942C20.979 26.0293 20.979 27.1536 20.979 28.3899C19.9205 28.3899 18.8688 28.3899 17.7406 28.3899C18.8306 27.1795 19.8541 26.0428 20.979 24.7942Z" fill="#32325F"/>
<path d="M20.2824 22.6232C20.2835 22.2389 20.1254 21.8844 19.8609 21.571C19.6769 21.3526 19.4946 21.1337 19.3072 20.9188C18.9206 20.4754 18.5244 20.041 18.1255 19.6094C17.5127 18.9465 16.8926 18.2898 16.2826 17.6241C16.0699 18.7619 15.999 19.3966 15.8291 20.0038C15.2618 22.0318 14.0363 23.4752 11.9683 24.0694C8.72877 25.0001 5.91747 23.0903 5.03345 20.0258V7.93985H4.83931C3.20295 7.93985 1.59416 7.93985 0 7.93985V36C1.6887 36 3.2536 36 5.03345 36C5.03739 36 5.04077 36 5.0447 36C5.0447 32.846 5.0447 29.7719 5.0447 26.5178C5.45379 26.7918 5.6378 26.892 5.7948 27.0236C6.47568 27.5942 7.24097 28.0641 8.0614 28.4051C8.85595 28.736 9.70001 28.9453 10.557 29.0263C11.4107 29.1074 12.2755 29.0612 13.1168 28.8946C13.9761 28.7247 14.8094 28.4287 15.5871 28.0253C16.3996 27.6032 17.1492 27.0636 17.8137 26.4339C18.5576 25.7288 19.131 24.8994 19.6898 24.0458C19.9003 23.7245 20.1158 23.3981 20.2227 23.0295C20.2621 22.8911 20.2818 22.7555 20.2824 22.6232Z" fill="#32325F"/>
</g>
<defs>
<clipPath id="clip0_89_2">
<rect width="36" height="36" fill="white"/>
</clipPath>
</defs>
</svg>
