<svg width="75" height="75" viewBox="0 0 75 75" fill="none" xmlns="http://www.w3.org/2000/svg">
<mask id="path-1-inside-1_116_24" fill="white">
<path fill-rule="evenodd" clip-rule="evenodd" d="M38.8212 0.69429C39.0185 0.301165 39.4113 0.104603 39.8044 0.104603C62.2122 -1.86102 77.7409 24.2818 74.5953 44.3311C71.6471 63.987 51.4016 77.3539 32.1378 74.4051C12.0885 71.4564 -2.26058 52.1936 0.29473 32.1442C2.65412 13.0774 19.5581 -2.0579 38.8212 0.69429ZM38.6333 1.67949C38.6989 1.68142 38.7645 1.68352 38.83 1.6858C38.827 1.6829 38.8242 1.68 38.8212 1.6771C38.7586 1.67775 38.6959 1.67855 38.6333 1.67949Z"/>
</mask>
<path fill-rule="evenodd" clip-rule="evenodd" d="M38.8212 0.69429C39.0185 0.301165 39.4113 0.104603 39.8044 0.104603C62.2122 -1.86102 77.7409 24.2818 74.5953 44.3311C71.6471 63.987 51.4016 77.3539 32.1378 74.4051C12.0885 71.4564 -2.26058 52.1936 0.29473 32.1442C2.65412 13.0774 19.5581 -2.0579 38.8212 0.69429ZM38.6333 1.67949C38.6989 1.68142 38.7645 1.68352 38.83 1.6858C38.827 1.6829 38.8242 1.68 38.8212 1.6771C38.7586 1.67775 38.6959 1.67855 38.6333 1.67949Z" fill="#EFEBFF"/>
<path d="M39.8044 0.104603V1.1046H39.8482L39.8918 1.10078L39.8044 0.104603ZM38.8212 0.69429L38.6798 1.68424L39.3924 1.78604L39.7151 1.14267L38.8212 0.69429ZM74.5953 44.3311L73.6073 44.1761L73.6063 44.1828L74.5953 44.3311ZM32.1378 74.4051L32.2891 73.4166L32.2833 73.4158L32.1378 74.4051ZM0.29473 32.1442L1.28671 32.2707L1.28716 32.267L0.29473 32.1442ZM38.6333 1.67949L38.6183 0.679605L38.604 2.67906L38.6333 1.67949ZM38.83 1.6858L38.7951 2.6852L41.3335 2.77362L39.5368 0.978406L38.83 1.6858ZM38.8212 1.6771L39.5281 0.969776L39.231 0.672786L38.8108 0.677155L38.8212 1.6771ZM39.8044 -0.895397C39.0873 -0.895397 38.3173 -0.531356 37.9274 0.245908L39.7151 1.14267C39.7193 1.13428 39.7227 1.13039 39.7245 1.12851C39.7265 1.12638 39.7298 1.12352 39.7355 1.12027C39.7481 1.11303 39.7721 1.1046 39.8044 1.1046V-0.895397ZM75.5832 44.4861C77.2014 34.172 74.0192 22.3634 67.5958 13.3806C61.1647 4.38705 51.3716 -1.91392 39.717 -0.891572L39.8918 1.10078C50.645 0.157501 59.8201 5.94511 65.9689 14.5439C72.1254 23.1534 75.1347 34.4409 73.6073 44.1761L75.5832 44.4861ZM31.9865 75.3936C51.7422 78.4177 72.5459 64.7363 75.5842 44.4794L73.6063 44.1828C70.7483 63.2377 51.0609 76.2901 32.2891 73.4166L31.9865 75.3936ZM-0.697246 32.0178C-3.32025 52.5983 11.3948 72.3651 31.9923 75.3945L32.2833 73.4158C12.7821 70.5476 -1.20091 51.7889 1.28671 32.2707L-0.697246 32.0178ZM38.9627 -0.295658C19.0608 -3.13911 1.71942 12.4881 -0.697701 32.0214L1.28716 32.267C3.58882 13.6667 20.0555 -0.976694 38.6798 1.68424L38.9627 -0.295658ZM38.604 2.67906C38.6677 2.68093 38.7315 2.68298 38.7951 2.6852L38.8648 0.68641C38.7974 0.684065 38.7301 0.681902 38.6627 0.679922L38.604 2.67906ZM38.1144 2.38443C38.1158 2.38586 38.121 2.39109 38.1231 2.3932L39.5368 0.978406C39.5331 0.974712 39.5325 0.974139 39.5281 0.969776L38.1144 2.38443ZM38.6484 2.67938C38.7094 2.67846 38.7705 2.67768 38.8316 2.67705L38.8108 0.677155C38.7466 0.677822 38.6824 0.678639 38.6183 0.679605L38.6484 2.67938Z" fill="#EFEBFF" mask="url(#path-1-inside-1_116_24)"/>
<path d="M52.8359 24H23.1641C21.4216 24 20 25.4225 20 27.1695V48.2997C20 50.0408 21.4153 51.4692 23.1641 51.4692H52.8359C54.5741 51.4692 56 50.0515 56 48.2997V27.1695C56 25.4284 54.5847 24 52.8359 24ZM52.399 26.113L38.0671 40.4698L23.6112 26.113H52.399ZM22.1094 47.8621V27.597L32.2681 37.6859L22.1094 47.8621ZM23.6009 49.3562L33.766 39.1736L37.3278 42.7109C37.7401 43.1204 38.4055 43.1191 38.8161 42.7076L42.2891 39.2287L52.3991 49.3562H23.6009ZM53.8906 47.8621L43.7806 37.7346L53.8906 27.6071V47.8621Z" fill="#32325F"/>
</svg>
