<svg width="439" height="291" viewBox="0 0 439 291" fill="none" xmlns="http://www.w3.org/2000/svg">
<mask id="mask0_112_2" style="mask-type:alpha" maskUnits="userSpaceOnUse" x="0" y="0" width="439" height="291">
<rect width="439" height="291" rx="13.9809" fill="#DCD4FF"/>
</mask>
<g mask="url(#mask0_112_2)">
<g opacity="0.7">
<g opacity="0.8">
<path d="M430.366 100.763C430.293 101.409 429.585 101.875 428.986 102.353C428.146 103.021 427.581 104.158 427.567 105.248C427.553 106.337 427.85 107.571 427.214 108.372C426.962 108.671 426.614 108.85 426.362 109.149C426.23 109.352 426.086 109.663 425.954 109.867C425.821 110.07 425.582 110.261 425.342 110.452C424.854 108.978 423.239 107.814 421.635 107.523C419.493 107.172 417.228 107.898 415.167 108.756C406.036 112.307 397.25 116.661 388.835 121.602C387.192 122.616 385.442 123.619 383.466 123.723C381.49 123.827 379.313 122.817 378.873 120.912C378.731 120.241 378.804 119.595 378.554 118.912C378.412 118.241 377.706 117.725 377.131 117.987C376.448 118.237 376.338 119.207 376.468 119.985C376.93 122.657 377.847 125.161 379.112 127.486C379.482 128.074 379.84 128.769 379.659 129.403C379.442 130.361 378.088 130.753 377.143 130.428C376.21 129.995 375.541 129.156 374.979 128.329C374.609 127.741 374.239 127.154 373.593 127.081C373.066 126.912 372.383 127.162 371.904 127.544C370.849 128.189 369.781 128.941 368.643 129.358C367.493 129.883 366.163 130.06 365.039 129.387C362.06 127.741 363.855 122.488 361.14 120.435C360.337 120.781 360.024 121.618 359.496 122.431C359.088 123.149 358.236 123.926 357.398 123.613C356.656 123.42 356.323 122.509 356.3 121.743C356.278 120.976 356.375 120.114 356.125 119.431C355.529 117.945 353.519 117.391 353.15 115.821C352.984 115.366 353.045 114.827 352.65 114.455C352.256 114.083 351.573 114.334 351.046 114.165C349.778 113.803 350.2 111.996 350.562 110.727C351.309 107.975 350.465 104.824 348.29 102.832C348.686 102.222 349.573 102.104 350.05 102.704C350.853 102.358 350.113 101.183 350.115 100.201C350.2 99.4469 351.015 98.9934 351.674 98.9587C352.44 98.9363 353.063 99.2249 353.805 99.4179C356.45 100.153 359.324 99.8236 361.983 99.4695C364.426 99.091 367.085 98.7369 369.016 97.1002C369.376 96.8135 369.748 96.4191 369.701 95.8681C369.774 95.2217 369.177 94.7176 368.927 94.0346C368.689 93.2438 369.217 92.4306 369.53 91.593C369.843 90.7554 369.641 89.6414 368.792 89.4362C367.511 89.1823 366.976 87.1576 366.331 86.1026C365.961 85.5152 365.603 84.82 365.113 84.3281C364.217 83.572 362.816 83.4136 362.039 82.5619C361.562 81.9623 361.348 80.956 360.618 80.6553C360.415 80.5232 360.199 80.4988 359.996 80.3667C359.386 79.9704 359.376 79.0962 359.557 78.4619C359.75 77.7199 360.146 77.11 360.016 76.3314C359.898 75.4451 359.109 74.7012 358.655 73.886C358.035 72.6156 358.446 70.916 357.573 69.9444C356.414 68.613 353.827 69.3026 352.908 67.7801C352.537 67.1926 352.611 66.5461 352.576 65.8875C352.555 64.1392 352.427 62.3787 352.071 60.7016C351.786 59.36 351.406 57.8984 350.174 57.2135C349.456 56.805 348.474 56.8031 347.612 56.7056C346.762 56.5004 345.829 56.0676 345.591 55.2768C345.449 54.606 345.762 53.7684 345.5 53.1931C345.333 52.7377 344.818 52.4613 344.424 52.0894C341.901 50.2764 340.386 47.2679 340.404 44.2145C340.44 43.8913 340.489 43.4603 340.298 43.2205C340.574 42.7061 341.066 42.2161 341.593 42.3848C342.227 42.5656 342.225 43.5475 342.595 44.1349C343.24 45.1899 345.096 45.1815 345.297 46.2955C345.368 46.6309 345.344 46.8464 345.308 47.1697C345.426 48.056 346.239 48.5844 347.089 48.7896C347.938 48.9948 348.8 49.0923 349.626 49.5129C350.451 49.9336 351 50.8687 350.58 51.6941C350.567 51.8018 350.435 52.0052 350.315 52.1007C350.147 52.6273 350.757 53.0236 351.295 53.0845C351.846 53.0376 352.314 52.7631 352.769 52.5964C353.788 52.275 354.948 52.6245 355.63 53.3563C356.311 54.088 356.5 55.3097 356.163 56.3628C355.886 56.8772 355.585 57.607 355.98 57.979C356.673 58.603 357.622 56.9644 358.472 57.1696C359.106 57.3504 359.237 58.129 358.948 58.7511C358.659 59.3732 358.287 59.7676 358.107 60.4019C357.926 61.0362 358.379 61.8513 358.942 61.6967C359.17 61.6134 359.29 61.5178 359.41 61.4222C360.477 60.6699 361.939 60.2895 363.087 60.7468C363.53 60.6878 363.986 60.521 364.405 60.6775C364.823 60.8339 365.218 61.2059 365.169 61.6369C365.108 62.1756 364.533 62.4379 364.065 62.7124C363.094 63.5847 363.521 65.5972 364.802 65.8511C365.759 66.0685 366.802 65.5317 367.723 66.0723C368.034 66.2166 368.225 66.4564 368.536 66.6007C369.266 66.9015 369.986 66.3281 370.716 66.6289C371.338 66.9174 371.443 67.9115 371.155 68.5336C370.866 69.1557 370.267 69.6335 369.966 70.3634C369.677 70.9855 369.676 71.9674 370.298 72.256C371.015 72.6645 372.166 72.1398 372.644 72.7394C372.835 72.9793 372.798 73.3025 372.762 73.6258C372.701 74.1645 372.52 74.7988 372.675 75.3619C372.721 75.9128 373.091 76.5003 373.606 76.7767C374.647 77.2217 375.858 76.1583 376.791 76.5912C377.413 76.8798 377.664 77.5628 378.046 78.0425C378.881 79.3373 380.341 79.9388 381.669 80.7437C382.996 81.5485 384.287 82.6766 384.332 84.2094C384.355 84.9758 384.245 85.9455 384.975 86.2462C385.597 86.5348 386.233 85.7338 386.414 85.0995C386.595 84.4652 386.908 83.6276 387.567 83.5929C387.794 83.5096 387.998 83.6417 388.118 83.5461C388.801 83.2959 388.599 82.182 388.995 81.572C389.392 80.9621 390.254 81.0595 390.984 81.3603C391.606 81.6489 392.323 82.0574 393.006 81.8072C393.57 81.6527 394.074 81.0549 394.624 81.0081C395.942 80.9388 396.345 83.1668 397.613 83.5284C398.571 83.7458 399.339 82.7415 399.867 81.9282C400.288 81.1028 400.949 80.0862 401.931 80.0881C402.469 80.149 402.984 80.4255 403.522 80.4864C404.708 80.6204 405.632 79.1972 406.818 79.3312C407.033 79.3555 407.249 79.3799 407.332 79.6076C407.523 79.8474 407.474 80.2784 407.318 80.6972C406.584 82.3602 405.42 83.9745 403.885 85.0014C403.895 85.8755 403.475 86.7009 402.767 87.1666C402.048 87.7399 401.029 88.0613 400.501 88.8745C400.381 88.9701 400.356 89.1856 400.452 89.3055C400.548 89.4254 400.655 89.4376 400.655 89.4376C401.086 89.4863 401.505 89.6428 401.936 89.6915C401.156 90.8036 399.885 91.4239 398.914 92.2961C397.834 93.1562 397.054 94.2683 396.369 95.5003C396.068 96.2302 395.767 96.96 395.371 97.57C394.975 98.1799 394.363 98.7655 393.596 98.7879C392.938 98.8226 392.316 98.534 391.669 98.4609C391.023 98.3878 390.136 98.5059 389.956 99.1402C391.739 99.7782 393.558 100.093 395.414 100.085C395.63 100.109 395.965 100.038 396.085 99.9423C396.313 99.8589 396.445 99.6556 396.577 99.4523C399.65 95.4348 402.316 91.1531 405.676 87.4955C406.66 86.5155 407.871 85.4521 409.248 85.8259C410.301 86.1632 410.921 87.4337 410.584 88.4868C410.427 88.9056 410.175 89.2045 410.019 89.6233C409.814 90.473 410.363 91.4081 410.936 92.1277C411.223 92.4874 411.725 92.8716 412.085 92.5849C412.325 92.3938 412.349 92.1783 412.266 91.9506C412.28 90.861 412.509 89.7957 412.834 88.8504C413.015 88.2161 413.316 87.4862 413.916 87.0084C414.407 86.5184 415.198 86.2804 415.832 86.4613C416.359 86.6299 416.753 87.0019 417.268 87.2783C418.189 87.8189 419.386 87.8451 420.451 88.0747C421.529 88.1965 422.785 88.6659 423.214 89.6965C423.548 90.6072 423.198 91.7681 423.532 92.6788C423.782 93.3618 424.38 93.8658 424.75 94.4533C425.12 95.0407 425.346 95.9393 424.746 96.4171C425.104 97.1123 426.086 97.1142 426.852 97.0917C427.619 97.0692 428.672 97.4065 428.694 98.1729C428.658 98.4962 428.513 98.8072 428.477 99.1304C429.447 99.2401 430.451 100.008 430.366 100.763Z" stroke="#ADADFF" stroke-width="0.349522" stroke-miterlimit="10"/>
<path d="M97.7582 62.1762L66.3247 180.949C56.044 178.259 46.4219 175.534 37.6861 172.691C37.7105 172.476 37.7349 172.26 37.6515 172.033C37.4379 171.026 36.8767 170.199 36.9863 169.229C37.035 168.798 37.1915 168.38 37.348 167.961C37.7462 166.369 36.7194 164.834 36.6866 163.194C36.6173 161.876 37.3022 160.644 37.5561 159.364C38.2448 156.168 36.9697 152.968 35.3226 150.163C33.6756 147.358 31.8008 144.636 31.1844 141.402C31.042 140.731 31.0074 140.072 30.6251 139.593C29.9562 138.753 28.3887 138.139 28.726 137.086C28.7504 136.871 29.0024 136.572 29.1345 136.369C29.2788 136.058 29.112 135.602 29.0408 135.267C27.9691 132.199 26.2021 129.49 23.8355 127.258C23.6443 127.018 23.3454 126.766 23.2621 126.538C23.1909 126.203 23.1197 125.868 23.1562 125.544C23.2921 123.377 23.2125 121.186 22.8097 118.958C22.6673 118.287 22.4293 117.496 21.9271 117.112C21.6282 116.86 21.1017 116.691 20.9227 116.344C20.4571 115.636 21.0221 114.5 20.5564 113.793C20.1864 113.205 19.3122 113.215 18.8222 112.724C18.3322 112.232 18.3098 111.465 18.2751 110.807C18.2423 109.166 18.7726 107.371 18.7399 105.73L45.3212 44.3534C61.1503 51.0535 78.7764 57.3021 97.7582 62.1762Z" stroke="#ADADFF" stroke-width="0.699045" stroke-miterlimit="10"/>
<path d="M127.946 192.826C105.464 189.957 84.7802 185.654 66.3249 180.949L97.7584 62.1762C111.331 65.6749 125.527 68.4802 140.383 70.269L140.286 71.1309L127.946 192.826Z" stroke="#ADADFF" stroke-width="0.349522" stroke-miterlimit="10"/>
<path d="M173.835 153.71L171.887 195.066C171.515 195.46 171.143 195.855 170.974 196.381C156.092 195.79 141.713 194.601 127.946 192.826L140.286 71.131L140.383 70.269C152.977 71.802 166.075 72.7373 179.499 72.7272C179.425 73.3737 179.137 73.9957 179.076 74.5345C178.93 75.8274 179.322 77.1813 179.176 78.4742C179.067 79.4439 178.634 80.3771 178.632 81.359C178.618 82.4486 179.274 83.3958 179.596 84.4143C180.096 85.7803 180.141 87.3131 180.989 88.5002C181.371 88.9799 181.766 89.3519 182.304 89.4128C182.735 89.4615 183.191 89.2947 183.634 89.2357C184.748 89.0343 186.053 89.0727 187.094 89.5178C188.044 93.6627 189.557 97.6531 191.753 101.393C192.302 102.328 192.839 103.371 192.621 104.329C192.453 104.855 192.069 105.357 191.697 105.752C191.325 106.146 190.941 106.648 190.88 107.187C190.819 107.726 191.069 108.409 191.715 108.482C192.254 108.543 192.734 108.161 192.998 107.754C193.262 107.347 193.539 106.833 194.006 106.559C194.474 106.284 195.012 106.345 195.456 106.286C196.45 106.18 197.48 105.751 198.487 105.537C201.05 105.063 203.502 106.541 205.931 107.252C207.092 107.602 208.385 107.748 209.414 108.3C210.658 108.878 211.746 109.874 213.051 109.912C213.266 109.936 213.374 109.949 213.602 109.865C206.653 118.246 182.169 147.56 173.835 153.71Z" stroke="#ADADFF" stroke-width="0.349522" stroke-miterlimit="10"/>
<path d="M328.804 223.064L328.684 223.16C327.977 223.625 327.377 224.103 326.67 224.569C323.96 226.336 321.106 228.414 320.43 231.502C320.381 231.933 320.345 232.256 320.08 232.663C319.924 233.082 319.564 233.368 319.204 233.655C317.501 235.208 315.81 236.654 314.106 238.207C313.747 238.494 313.387 238.781 312.932 238.948C312.596 239.019 312.273 238.982 311.95 238.946C311.614 239.017 311.267 239.196 311.23 239.519C311.169 240.058 311.911 240.251 312.186 240.718C312.472 241.078 312.304 241.605 312.16 241.916C311.895 242.322 311.548 242.501 311.08 242.776C310.505 243.038 309.93 243.3 309.271 243.335C308.612 243.37 307.99 243.081 307.728 242.506C307.549 242.158 307.586 241.835 307.287 241.583C306.976 241.439 306.64 241.51 306.305 241.581C302.77 242.927 299.342 244.286 295.999 245.872C295.076 246.313 294.153 246.755 293.301 247.531C292.197 248.607 291.692 250.187 291.952 251.744C292.969 252.404 294.261 252.55 295.508 252.146C295.843 252.074 296.191 251.896 296.514 251.932C296.837 251.969 297.268 252.017 297.447 252.365C297.614 252.82 297.337 253.335 297.516 253.682C297.6 253.91 297.695 254.03 297.899 254.162C298.281 254.642 298.315 255.3 298.039 255.815C297.763 256.329 297.08 256.579 296.433 256.506C296.218 256.482 295.907 256.337 295.691 256.313C294.841 256.108 294.134 256.574 293.427 257.039C292.372 257.684 291.233 258.101 289.987 258.505C288.969 258.827 287.95 259.148 287.314 259.949C286.906 260.667 286.796 261.637 286.005 261.874C285.778 261.958 285.454 261.921 285.251 261.789C284.293 261.572 283.36 261.139 282.403 260.922C281.445 260.704 280.356 260.69 279.528 261.251C277.994 262.278 277.917 264.888 276.203 265.568C275.628 265.83 274.874 265.745 274.298 266.007C272.932 266.507 272.319 268.075 271.31 269.27C270.554 270.167 269.392 270.799 268.278 271.001C267.499 271.131 266.637 271.033 266.159 270.434C265.478 269.702 265.84 268.434 266.572 267.752C267.303 267.071 268.322 266.75 269.34 266.429C269.688 266.25 270.023 266.178 270.275 265.88C270.647 265.485 270.6 264.934 270.554 264.383C270.507 263.832 270.232 263.365 270.065 262.91C269.602 261.22 270.036 259.305 270.961 257.882C271.898 256.351 273.624 255.564 274.764 254.165C275.4 253.364 275.522 252.287 275.296 251.388C275.083 250.382 274.749 249.471 274.536 248.465C274.43 247.471 274.444 246.381 274.661 245.424C274.747 244.67 274.94 243.928 275.324 243.425C275.576 243.127 275.816 242.935 276.068 242.637C276.824 241.74 276.958 240.555 277.08 239.477C277.14 238.939 277.106 238.28 276.951 237.717C276.689 237.142 276.187 236.757 275.924 236.182C275.566 235.487 275.544 234.721 275.953 234.003C275.965 233.895 276.085 233.8 276.085 233.8C276.205 233.704 276.3 233.824 276.516 233.848C277.544 234.401 278.201 235.348 278.966 236.308C279.73 237.267 280.615 238.131 281.692 238.253C282.123 238.302 282.566 238.243 283.105 238.303C284.506 238.462 285.64 240.009 287.09 239.736C287.197 239.748 287.425 239.665 287.437 239.557C287.677 239.366 287.726 238.935 287.667 238.492C287.5 238.037 287.465 237.378 287.179 237.018C287.252 236.372 287.636 235.869 288.211 235.607C288.439 235.524 288.666 235.44 288.906 235.249C289.146 235.058 289.183 234.735 289.087 234.615C288.992 234.495 288.884 234.483 288.668 234.458C287.926 234.265 287.209 233.857 286.706 233.473C286.611 233.353 286.408 233.221 286.312 233.101C286.229 232.873 286.253 232.658 286.29 232.334C286.399 231.365 285.85 230.43 285.049 229.794C284.356 229.17 283.423 228.737 282.609 228.208C281.796 227.68 280.995 227.044 280.662 226.133C280.399 225.558 280.257 224.887 279.73 224.718C279.312 224.562 278.964 224.741 278.521 224.8C276.964 225.06 275.325 224.111 273.768 224.371C273.325 224.43 272.977 224.609 272.725 224.908C272.473 225.207 272.316 225.626 272.495 225.973C272.65 226.537 273.284 226.717 273.919 226.898C274.337 227.055 274.744 227.319 275.043 227.571C275.33 227.931 275.496 228.386 275.34 228.805C275.183 229.224 274.704 229.606 274.356 229.785C272.51 230.667 270.355 230.424 268.416 230.205C267.135 229.951 265.842 229.804 264.574 229.443C263.508 229.213 262.36 228.756 262.026 227.845C261.943 227.618 261.967 227.402 262.099 227.199C262.231 226.996 262.364 226.792 262.699 226.721C263.262 226.566 263.884 226.855 264.518 227.036C265.153 227.217 265.895 227.41 266.387 226.92C266.627 226.729 266.651 226.513 266.891 226.322C267.623 225.641 268.747 226.314 269.765 225.992C270.328 225.838 270.712 225.335 271.084 224.941C271.336 224.642 271.613 224.128 271.314 223.876C271.135 223.528 270.572 223.683 270.237 223.754C269.003 224.051 267.805 224.025 266.596 224.106C265.063 224.151 263.53 224.196 261.973 224.456C261.052 223.916 259.747 223.877 258.716 224.306C258.153 224.461 257.673 224.843 257.23 224.902C256.332 225.128 255.399 224.695 254.933 223.988C254.742 223.748 254.658 223.52 254.467 223.281C253.989 222.681 253.235 222.596 252.493 222.403C251.751 222.21 251.021 221.909 250.663 221.214C250.497 220.758 250.57 220.112 250.954 219.61C251.23 219.095 251.698 218.821 252.178 218.439C252.417 218.247 252.669 217.948 252.694 217.733C252.718 217.518 252.527 217.278 252.204 217.241C252 217.109 251.785 217.085 251.462 217.048C249.966 216.77 248.926 215.343 248.989 213.822C249.038 213.391 249.194 212.972 249.016 212.625C248.944 212.289 248.753 212.05 248.562 211.81C248.096 211.102 247.631 210.395 246.913 209.986C247.214 209.257 247.407 208.515 247.708 207.785C247.732 207.569 247.852 207.474 247.769 207.246C247.685 207.018 247.59 206.898 247.386 206.766C246.478 206.118 245.219 206.63 244.201 206.952C243.638 207.106 242.955 207.357 242.296 207.391C241.745 207.438 241.194 207.485 240.788 207.221C240.477 207.076 240.298 206.729 240.106 206.489C238.793 204.594 237.707 202.617 236.957 200.568C236.79 200.112 236.623 199.657 236.336 199.297C235.464 198.325 234.039 198.383 232.697 198.667C231.464 198.964 230.098 199.465 228.937 199.115C227.884 198.778 227.095 198.034 226.162 197.601C225.324 197.288 224.462 197.191 223.563 197.416C223.444 197.512 223.228 197.488 223.108 197.583C222.976 197.787 222.952 198.002 222.927 198.218C222.854 198.864 223.212 199.559 223.367 200.122C223.509 200.793 223.652 201.464 223.363 202.086C223.074 202.708 222.068 202.922 221.686 202.442C221.399 202.082 221.46 201.544 221.617 201.125C221.773 200.706 221.929 200.287 221.978 199.856C221.919 199.413 221.537 198.933 221.082 199.1C220.746 199.171 220.59 199.59 220.553 199.913C220.36 200.655 220.478 201.542 220.285 202.284C220.092 203.026 219.564 203.839 218.785 203.969C218.966 203.335 218.608 202.64 217.974 202.459C217.339 202.278 216.656 202.528 216.165 203.018C215.673 203.508 215.492 204.142 215.419 204.789C215.321 205.651 215.452 206.429 215.139 207.267C214.826 208.105 213.974 208.881 213.075 209.107C212.177 209.333 211.112 209.103 210.394 208.695C209.88 208.418 209.39 207.927 208.755 207.746C207.595 207.396 206.444 207.921 205.234 208.002C204.684 208.049 204.553 207.271 204.159 206.899C203.956 206.767 203.752 206.634 203.537 206.61C202.687 206.405 201.681 206.619 200.973 207.084C200.626 207.263 200.374 207.562 200.038 207.633C198.804 207.93 197.885 206.408 196.605 206.154C196.389 206.129 196.281 206.117 196.078 205.985C195.875 205.853 195.803 205.518 195.72 205.29C195.446 204.822 194.679 204.845 194.128 204.892C193.565 205.046 192.894 205.189 192.38 204.912C191.758 204.624 191.64 203.737 191.605 203.079C191.571 202.42 191.668 201.558 191.178 201.066C190.688 200.574 189.934 200.489 189.275 200.524C188.616 200.558 187.838 200.689 187.204 200.508C186.988 200.483 186.785 200.351 186.701 200.124C186.714 200.016 186.738 199.8 186.75 199.693C186.715 199.034 186.13 198.422 185.471 198.457C184.813 198.491 184.296 199.197 184.439 199.868C184.498 200.311 184.784 200.671 184.963 201.018C185.142 201.366 185.189 201.917 184.829 202.203C184.47 202.49 183.955 202.214 183.656 201.962C183.37 201.602 183.203 201.147 182.904 200.895C182.318 200.283 181.349 200.173 180.475 200.183C179.385 200.169 178.415 200.06 177.326 200.046C178.381 199.401 178.252 197.641 179.307 196.996C179.655 196.817 180.098 196.758 180.458 196.471C180.805 196.292 181.094 195.67 180.795 195.418C180.496 195.166 179.921 195.429 179.586 195.5C178.783 195.846 177.837 195.52 177.372 194.813C176.906 194.106 177.243 193.053 178.046 192.707C178.849 192.361 179.758 193.009 180.596 193.322C180.703 193.335 180.811 193.347 180.919 193.359C181.147 193.276 181.075 192.94 180.98 192.82C180.597 192.341 179.711 192.459 179.329 191.979C179.042 191.619 179.199 191.2 179.247 190.769C179.453 189.92 179.359 188.818 178.641 188.409C178.031 188.013 177.241 188.251 176.856 188.753C176.365 189.243 176.172 189.985 176.206 190.644C176.157 191.075 176.229 191.41 176.288 191.853C176.142 193.146 175.062 194.006 174.007 194.651C173.42 195.021 172.832 195.391 172.46 195.785L174.408 154.43C182.742 148.279 207.214 119.073 214.151 110.8C215.372 110.611 216.523 110.086 217.432 110.735C217.934 111.119 218.184 111.802 218.459 112.269C219.103 113.324 220.095 114.2 220.98 115.064C221.852 116.036 223.035 117.152 222.781 118.432C223.475 119.056 224.349 119.046 225.199 119.251C225.833 119.432 226.575 119.625 227.197 119.914C230.344 121.033 233.479 122.261 236.626 123.381C237.045 123.537 237.464 123.694 237.75 124.053C238.312 124.881 237.818 126.352 238.631 126.881C239.133 127.265 239.924 127.027 240.524 126.549C241.003 126.167 241.507 125.569 242.178 125.427C243.065 125.309 243.77 125.825 244.644 125.815C246.069 125.758 247.031 124.011 248.443 124.062C249.533 124.076 250.381 125.263 251.41 125.816C252.845 126.633 254.642 126.181 256.09 126.891C256.401 127.035 256.604 127.167 256.783 127.515C256.962 127.862 257.033 128.198 257.104 128.533C257.139 129.192 257.269 129.97 257.304 130.629C257.338 131.288 257.493 131.851 257.312 132.485C257.058 133.766 256.038 135.069 256.67 136.232C257.494 137.634 258.317 139.037 258.698 140.498C259.459 143.422 258.542 146.701 259.518 149.648C260.102 151.242 261.357 152.693 262.648 153.821C263.15 154.206 263.843 154.83 263.77 155.476C263.685 156.23 262.762 156.671 262.557 157.521C264.903 158.005 267.129 158.584 269.451 159.283C270.193 159.476 270.935 159.669 271.544 160.065C272.561 160.726 273.086 161.876 273.179 162.978C273.153 164.175 272.564 165.527 273.208 166.582C273.77 167.41 274.835 167.639 275.817 167.641C276.799 167.643 277.78 167.645 278.582 168.281C279.49 168.929 279.991 170.295 281.092 170.202C282.928 180.994 284.655 191.774 286.155 202.638C286.652 205.968 287.04 209.285 288.567 212.186C290.082 215.195 292.748 217.678 296.088 218.056C298.997 218.385 302.412 217.134 304.612 218.911C305.305 219.535 305.867 220.362 306.56 220.986C307.253 221.61 308.294 222.055 309.109 221.601C309.697 221.231 309.997 220.502 310.668 220.359C311.807 219.942 312.606 221.56 313.515 222.209C314.017 222.593 314.651 222.774 315.19 222.835C317.967 223.367 321.093 222.738 323.455 221.15C324.283 220.589 325.014 219.908 325.925 219.574C326.836 219.241 328.021 219.375 328.582 220.202C328.857 220.67 329.011 221.233 329.07 221.676C328.759 221.532 328.889 222.31 328.804 223.064Z" stroke="#ADADFF" stroke-width="0.349522" stroke-miterlimit="10"/>
<path d="M424.335 185.96C424.166 186.487 423.794 186.881 423.518 187.395C421.849 189.607 421.089 192.468 419.217 194.548C417.705 196.341 415.595 197.63 413.509 198.704C412.932 199.948 412.475 201.097 411.898 202.341C411.741 202.76 411.585 203.179 411.225 203.465C410.865 203.752 410.302 203.907 410.016 203.547C409.609 203.283 409.574 202.624 409.168 202.36C408.749 202.203 408.281 202.478 407.922 202.764C407.202 203.338 406.47 204.019 406.253 204.976C406.107 206.269 407.158 207.589 406.701 208.737C406.412 209.359 405.597 209.813 405.308 210.435C404.636 211.559 405.447 213.069 404.882 214.206C404.738 214.517 404.486 214.816 404.234 215.115C403.345 216.215 402.565 217.327 401.988 218.571C401.711 219.085 401.435 219.6 401.063 219.994C400.583 220.376 399.912 220.519 399.518 220.147C398.92 219.643 398.947 218.445 398.192 218.36C397.426 218.383 397.268 219.783 396.501 219.806C396.058 219.865 395.688 219.277 395.629 218.834C395.129 217.468 394.868 215.911 394.823 214.378C394.778 212.845 394.949 211.337 394.569 209.875C394.485 209.648 394.497 209.54 394.294 209.408C394.091 209.276 393.887 209.144 393.684 209.012C393.373 208.867 393.086 208.507 393.135 208.076C393.184 207.645 393.436 207.347 393.771 207.275C393.879 207.288 394.094 207.312 394.214 207.216C394.981 207.194 395.21 206.129 395.308 205.267C395.803 202.813 398.153 201.333 399.678 199.432C400.566 198.332 401.491 196.909 402.891 197.067C402.735 197.486 403.345 197.882 403.776 197.931C404.542 197.908 405.25 197.443 405.849 196.965C406.796 196.308 407.648 195.531 408.595 194.875C409.075 194.492 409.555 194.11 409.616 193.571C407.449 193.435 405.34 193.743 403.291 194.493C402.141 195.018 400.978 195.65 399.769 195.732C399.553 195.707 399.325 195.791 399.242 195.563C399.146 195.443 399.171 195.228 399.195 195.012C399.364 194.486 399.652 193.864 399.917 193.457C400.313 192.847 400.854 191.926 400.364 191.434C400.172 191.194 399.742 191.146 399.406 191.217C398.508 191.443 397.979 192.256 397.546 193.189C397.233 194.027 397.016 194.984 396.595 195.809C395.803 197.029 394.412 197.745 393.632 198.857C393.235 199.467 392.947 200.089 392.563 200.591C392.179 201.094 391.591 201.464 391.302 202.086C391.158 202.397 391.134 202.612 390.882 202.911C390.63 203.21 390.402 203.293 390.054 203.472C389.024 203.902 388.101 204.343 387.07 204.772C386.603 205.046 386.04 205.201 385.513 205.032C385.31 204.9 385.107 204.768 384.975 204.971C384.855 205.067 384.842 205.175 384.842 205.175C384.542 205.905 383.44 205.998 382.95 205.506C382.759 205.266 382.675 205.039 382.484 204.799C382.102 204.319 381.492 203.923 380.99 203.539C380.488 203.155 379.926 202.327 380.215 201.705C380.036 201.358 379.713 201.321 379.39 201.285C379.066 201.248 378.731 201.319 378.408 201.283C377.869 201.222 377.367 200.838 377.092 200.37C376.818 199.903 376.663 199.339 376.389 198.872C375.437 195.709 374.7 192.57 374.192 189.348C374.049 188.677 373.919 187.899 373.441 187.299C373.155 186.939 372.736 186.783 372.317 186.626C370.953 186.145 369.241 185.842 367.959 186.57C366.784 187.31 366.074 188.758 364.708 189.258C364.588 189.354 364.481 189.341 364.373 189.329C364.157 189.305 364.062 189.185 363.978 188.957C363.513 188.25 362.616 187.494 361.718 187.72C360.819 187.945 360.386 188.879 360.301 189.633C360.204 190.495 360.322 191.381 360.116 192.231C359.923 192.973 359.635 193.595 359.346 194.217C358.18 196.813 357.42 199.674 357.642 202.536C357.677 203.195 357.711 203.853 357.841 204.632C357.913 204.967 357.864 205.398 358.055 205.638C358.126 205.973 358.413 206.333 358.376 206.656C358.423 207.207 357.943 207.59 357.572 207.984C356.96 208.57 356.324 209.371 355.604 209.944C355.543 210.483 355.818 210.95 356.08 211.526C356.318 212.316 356.233 213.071 356.135 213.933C356.123 214.04 356.099 214.256 355.979 214.351C355.847 214.555 355.631 214.53 355.403 214.614C354.625 214.744 353.858 214.766 353.08 214.897C352.744 214.968 352.529 214.943 352.289 215.135C352.049 215.326 351.905 215.637 351.773 215.84C351.257 216.546 350.454 216.891 349.651 217.237C344.174 219.346 338.507 221.215 332.947 223.096C332.037 223.43 331.018 223.751 330.097 223.21C329.786 223.066 329.595 222.826 329.26 222.897C329.152 222.885 329.14 222.993 329.032 222.981C329.009 222.214 328.987 221.448 328.952 220.789C328.905 220.239 328.859 219.688 328.464 219.316C327.903 218.488 326.718 218.354 325.807 218.688C324.896 219.021 324.057 219.69 323.337 220.264C320.975 221.852 317.849 222.48 315.072 221.948C314.425 221.875 313.791 221.694 313.397 221.322C312.392 220.554 311.689 219.056 310.55 219.473C309.88 219.615 309.567 220.453 308.991 220.715C308.176 221.169 307.135 220.724 306.442 220.1C305.749 219.476 305.307 218.553 304.494 218.024C302.199 216.128 298.879 217.499 295.97 217.17C292.738 216.804 289.977 214.2 288.45 211.3C286.935 208.291 286.546 204.974 286.037 201.752C284.537 190.888 282.702 180.096 280.975 169.315C281.633 169.281 282.149 168.575 282.007 167.904C281.71 166.671 279.651 166.547 279.569 165.337C279.594 165.122 279.63 164.799 279.654 164.583C279.728 163.937 279.681 163.386 279.646 162.727C279.611 162.068 279.792 161.434 280.164 161.04C280.536 160.645 281.29 160.73 281.805 161.007C282.833 161.56 283.862 162.112 284.783 162.653C284.986 162.785 285.19 162.917 285.31 162.822C285.43 162.726 285.55 162.631 285.67 162.535C286.57 161.327 286.238 159.435 285.151 158.439C284.457 157.815 283.512 157.49 283.286 156.591C283.132 156.028 283.528 155.418 283.804 154.904C284.333 154.091 284.753 153.265 284.971 152.308C285.188 151.35 285.082 150.356 284.509 149.636C284.031 149.037 283.206 148.616 282.74 147.909C282.179 147.081 282.217 145.776 281.416 145.14C281.01 144.876 280.471 144.815 280.184 144.455C279.682 144.071 279.54 143.4 279.613 142.754C279.686 142.107 279.962 141.593 280.143 140.959C280.48 139.906 280.507 138.708 280.521 137.619C280.522 136.637 280.524 135.655 280.191 134.744C279.857 133.833 279.296 133.006 278.363 132.573C277.525 132.26 276.531 132.366 275.694 132.053C275.49 131.921 275.383 131.909 275.299 131.681C275.204 131.561 275.336 131.358 275.348 131.25C275.553 130.401 274.98 129.681 274.526 128.866C274.061 128.158 273.727 127.248 274.136 126.53C274.532 125.92 275.215 125.67 275.898 125.42C278.199 124.371 279.62 120.494 282.122 120.558C282.781 120.524 283.273 120.034 283.645 119.639C284.905 118.145 286.069 116.531 286.72 114.64C287.947 111.505 287.69 107.984 287.529 104.583C287.425 102.607 287.309 100.739 287.193 98.8706C287.124 97.5533 287.067 96.1283 286.554 94.87C285.673 92.0424 283.295 89.9183 280.747 88.3209C278.2 86.7234 275.496 85.5447 273.08 83.7439C272.578 83.3598 272.088 82.8679 271.826 82.2926C271.659 81.8373 271.6 81.3941 271.553 80.8432C271.508 79.3104 271.463 77.7776 272.459 76.6898C273.693 76.3929 274.079 74.9088 274.226 73.6158C274.252 72.4185 274.087 70.9812 274.747 69.9647C275.012 69.5581 275.384 69.1636 275.66 68.6493C275.936 68.1349 276.009 67.4884 275.723 67.1287C275.054 66.2892 273.46 66.8728 273.007 66.0577C272.923 65.83 272.84 65.6024 272.864 65.3869C272.866 64.405 272.976 63.4353 272.762 62.429C272.549 61.4228 272.012 60.38 271.066 60.0549C270.432 59.874 269.666 59.8965 269.068 59.3924C268.674 59.0205 268.615 58.5773 268.675 58.0386C268.63 56.5058 269.34 55.0583 269.618 53.562C270.004 52.0779 269.876 50.3175 268.8 49.2138C268.406 48.8418 267.891 48.5654 267.485 48.3012C265.285 46.5248 265.207 43.3514 265.632 40.5622C265.68 40.1313 265.729 39.7003 265.969 39.5091C266.221 39.2103 266.676 39.0435 267.12 38.9845C270.126 38.4514 273.143 38.7925 275.967 39.8756C276.804 40.1886 277.845 40.6336 278.66 40.1802C279.236 39.9178 279.512 39.4035 280.075 39.2489C281.094 38.9276 282.157 40.139 283.259 40.0453C284.361 39.9516 285.033 38.8274 285.682 37.9186C286.33 37.0098 287.422 36.0419 288.45 36.5947C288.654 36.7269 288.845 36.9667 289.156 37.111C289.861 37.6272 290.88 37.3059 291.766 37.1879C292.652 37.0698 293.73 37.1916 293.956 38.0901C294.098 38.761 293.773 39.7063 294.395 39.9949C295.017 40.2835 295.773 39.3869 296.395 39.6754C296.599 39.8076 296.682 40.0352 296.885 40.1673C297.77 41.0312 299.304 40.0043 300.429 40.6771C301.35 41.2177 301.204 42.5106 301.417 43.5169C301.81 44.8707 303.328 45.9154 304.778 45.6428C305.556 45.5126 306.264 45.0469 307.042 44.9167C307.821 44.7865 309.222 44.9449 309.352 45.7234C309.387 46.3821 310.104 46.7906 310.871 46.7681C311.529 46.7335 312.129 46.2556 312.513 45.7535C312.885 45.359 313.377 44.869 313.903 45.0377C314.214 45.182 314.393 45.5296 314.465 45.865C314.833 47.4343 313.871 49.1807 314.467 50.6667C314.896 51.6973 316.116 52.49 315.671 53.5309C315.371 54.2607 314.364 54.4743 313.657 54.94C312.949 55.4056 312.433 56.1111 312.336 56.973C313.281 57.2982 314.407 56.989 315.401 56.8832C316.395 56.7773 317.581 56.9113 318.262 57.643C318.823 58.4703 318.701 59.5478 318.591 60.5175C318.482 61.4872 318.563 62.6968 319.484 63.2374C319.999 63.5138 320.753 63.5991 321.135 64.0788C321.314 64.4264 321.265 64.8573 321.217 65.2883C320.951 66.6768 320.254 68.0166 319.377 69.0088C319.138 69.1999 318.886 69.4988 318.957 69.8342C319.016 70.2774 319.435 70.4338 319.878 70.3748C320.213 70.3036 320.573 70.0169 320.825 69.7181C322.54 68.0569 324.4 66.0847 326.687 66.1251C326.903 66.1494 327.226 66.186 327.429 66.3181C328.051 66.6067 328.182 67.3852 328.324 68.0561C328.466 68.7269 328.932 69.4343 329.603 69.2919C329.544 68.8487 329.928 68.3465 330.371 68.2875C330.814 68.2285 331.341 68.3972 331.748 68.6614C332.776 69.2142 333.553 70.0658 333.97 71.2042C335.145 70.4641 334.335 67.9718 335.606 67.3516C336.061 67.1849 336.492 67.2336 336.947 67.0668C338.11 66.4344 337.396 64.0621 338.75 63.6696C339.421 63.5272 340.366 63.8523 340.547 63.218C340.596 62.787 340.297 62.535 340.118 62.1874C339.307 60.6771 342.016 58.9101 341.433 57.3164C341.266 56.8611 340.764 56.4769 340.597 56.0216C340.442 55.4585 340.743 54.7286 340.589 54.1655C340.434 53.6024 339.932 53.2183 339.537 52.8463C338.271 51.5028 338.407 49.3357 339.045 47.5528C339.514 46.2964 340.199 45.0643 340.884 43.8323L340.896 43.7245C341.075 44.0721 341.038 44.3954 341.002 44.7186C340.984 47.772 342.499 50.7805 345.022 52.5935C345.429 52.8577 345.823 53.2296 346.098 53.6972C346.348 54.3802 346.047 55.11 346.189 55.7809C346.415 56.6794 347.348 57.1122 348.21 57.2097C349.072 57.3071 349.934 57.4046 350.772 57.7175C352.004 58.4024 352.384 59.864 352.669 61.2057C353.025 62.8828 353.153 64.6433 353.174 66.3915C353.209 67.0502 353.135 67.6967 353.506 68.2841C354.425 69.8066 357.012 69.1171 358.171 70.4485C359.151 71.4323 358.741 73.1318 359.253 74.3901C359.707 75.2052 360.496 75.9491 360.614 76.8355C360.636 77.6019 360.348 78.224 360.155 78.966C359.962 79.708 359.972 80.5822 360.594 80.8708C360.797 81.0029 361.013 81.0273 361.216 81.1594C361.946 81.4601 362.052 82.4542 362.637 83.066C363.402 84.0254 364.815 84.076 365.711 84.8321C366.201 85.324 366.572 85.9115 366.929 86.6067C367.574 87.6617 368.109 89.6863 369.39 89.9403C370.252 90.0377 370.441 91.2595 370.128 92.0971C369.815 92.9347 369.287 93.7479 369.525 94.5387C369.667 95.2095 370.265 95.7136 370.299 96.3722C370.251 96.8032 369.986 97.2098 369.615 97.6042C367.684 99.241 365.025 99.5951 362.581 99.9736C359.814 100.316 357.048 100.657 354.403 99.9219C353.661 99.7289 352.931 99.4282 352.272 99.4628C351.506 99.4853 350.798 99.9509 350.713 100.705C350.616 101.567 351.451 102.862 350.648 103.208C350.158 102.716 349.272 102.834 348.888 103.336C350.956 105.316 351.908 108.479 351.16 111.231C350.798 112.5 350.496 114.212 351.644 114.669C352.171 114.838 352.854 114.587 353.248 114.959C353.655 115.224 353.582 115.87 353.748 116.325C354.237 117.799 356.235 118.462 356.723 119.935C356.973 120.618 356.876 121.48 356.898 122.247C356.921 123.013 357.254 123.924 357.996 124.117C358.846 124.322 359.578 123.641 360.094 122.936C360.503 122.218 360.935 121.285 361.738 120.939C364.453 122.992 362.766 128.257 365.637 129.891C366.653 130.552 368.091 130.387 369.241 129.862C370.392 129.338 371.351 128.573 372.502 128.048C373.077 127.786 373.652 127.524 374.191 127.585C374.825 127.766 375.195 128.353 375.577 128.833C376.139 129.66 376.795 130.607 377.741 130.932C378.674 131.365 380.028 130.973 380.257 129.907C380.438 129.273 380.08 128.578 379.71 127.99C378.445 125.665 377.54 123.053 377.066 120.489C376.936 119.711 376.938 118.729 377.729 118.491C378.304 118.229 378.997 118.853 379.152 119.416C379.414 119.991 379.329 120.745 379.471 121.416C379.911 123.321 382.088 124.331 384.064 124.227C386.04 124.123 387.79 123.121 389.433 122.106C397.848 117.165 406.634 112.811 415.765 109.26C417.814 108.51 419.983 107.664 422.233 108.027C423.837 108.318 425.452 109.482 425.94 110.956C425.7 111.147 425.58 111.243 425.352 111.326C423.818 112.353 422.295 113.272 420.868 114.311C419.693 115.051 418.531 115.684 418.384 116.977C418.009 119.335 417.621 121.801 417.245 124.159C417.16 124.913 416.967 125.655 416.774 126.397C416.473 127.127 416.317 127.546 415.621 127.904C415.188 128.837 414.851 129.89 414.418 130.823C414.25 131.35 413.973 131.864 413.709 132.271C413.325 132.773 412.75 133.035 412.282 133.31C410.784 134.013 409.286 134.717 407.692 135.301C406.901 135.539 405.991 135.872 405.462 136.685C405.186 137.2 405.113 137.846 404.849 138.253C404.296 139.282 402.751 139.434 401.974 138.583C401.771 138.451 401.687 138.223 401.472 138.199C401.161 138.054 400.718 138.113 400.37 138.292C399.687 138.542 398.884 138.888 398.189 139.246C395.9 140.188 393.611 141.129 391.298 142.286C389.104 143.348 386.767 144.72 384.277 144.548C383.51 144.57 382.756 144.485 382.061 144.843C381.593 145.117 381.209 145.62 380.837 146.014C379.109 147.783 376.343 148.125 374.723 149.906C374.219 150.504 373.93 151.126 373.426 151.723C372.406 153.027 370.991 153.958 370.066 155.381C369.021 156.9 368.682 158.935 369.134 160.732C369.288 161.295 369.539 161.978 369.154 162.48C369.022 162.683 368.675 162.862 368.447 162.946C367.069 163.554 365.558 164.365 364.754 165.693C364.093 166.709 363.707 168.193 362.461 168.598C362.233 168.681 362.018 168.657 361.778 168.848C361.55 168.932 361.406 169.243 361.489 169.47C361.199 171.074 360.884 172.894 359.756 174.185C359.384 174.579 358.904 174.962 358.736 175.488C358.051 176.72 358.754 178.218 358.812 179.643C358.775 179.967 358.738 180.29 358.606 180.493C358.09 181.199 356.917 180.957 356.079 180.644C354.5 180.138 352.453 179.906 351.217 181.185C352.113 181.941 353.382 182.303 354.496 182.102C355.155 182.067 355.838 181.817 356.328 182.309C356.913 182.921 356.373 183.842 355.856 184.547C353.779 187.477 353.15 191.116 351.479 194.31C350.241 196.57 348.609 198.459 346.869 200.336C344.745 202.715 342.501 205.189 340.078 207.316C339.239 207.985 338.507 208.666 337.871 209.467C336.851 210.77 336.44 212.47 336.701 214.027C340.971 210.036 343.76 204.677 347.839 200.446C350.311 197.888 353.177 195.702 355.146 192.76C358.148 188.407 360.121 183.502 361.999 178.476C363.551 174.396 366.647 171.145 369.623 167.989C370.739 166.806 371.735 165.718 372.851 164.535C373.222 164.14 373.594 163.746 374.17 163.484C374.517 163.305 375.056 163.366 375.404 163.187C376.087 162.936 376.495 162.219 377.083 161.849C377.67 161.479 378.556 161.361 379.239 161.11C380.593 160.718 381.793 159.762 382.98 158.914C383.699 158.341 384.514 157.888 385.401 157.77C386.167 157.747 386.801 157.928 387.555 158.013C388.525 158.123 389.544 157.801 390.489 158.127C391.542 158.464 392.091 159.399 392.4 160.525C392.793 161.879 392.826 163.52 392.033 164.739C391.901 164.943 391.757 165.254 391.529 165.337C391.289 165.528 390.941 165.707 390.606 165.778C390.138 166.053 389.671 166.327 389.395 166.842C388.974 167.667 388.984 168.541 388.875 169.511C388.801 170.158 388.525 170.672 388.141 171.174C387.757 171.676 387.181 171.939 386.523 171.973C385.984 171.912 385.458 171.744 385.027 171.695C384.476 171.742 384.128 171.921 383.661 172.195C383.085 172.458 382.498 172.828 382.03 173.102C381.683 173.281 381.323 173.568 381.071 173.867C381.059 173.974 380.951 173.962 380.939 174.07C380.927 174.178 381.01 174.405 381.118 174.418C381.608 174.909 382.494 174.791 383.165 174.649C383.836 174.507 384.626 174.269 385.368 174.462C385.787 174.618 386.086 174.87 386.397 175.014C387.127 175.315 388.026 175.089 388.637 174.504C388.77 174.301 388.889 174.205 389.022 174.002C389.261 173.811 389.501 173.619 389.729 173.536C390.532 173.19 391.347 172.737 392.209 172.834C392.424 172.859 392.532 172.871 392.628 172.991C392.723 173.111 392.819 173.231 392.807 173.338C393.7 176.058 390.319 177.968 390.996 180.663C391.055 181.106 391.33 181.574 391.761 181.623C392.503 181.816 392.924 180.99 393.523 180.512C393.643 180.417 393.763 180.321 393.979 180.346C394.194 180.37 394.278 180.598 394.253 180.813C394.396 181.484 393.975 182.309 394.333 183.005C394.786 183.82 395.9 183.618 396.606 184.135C397.108 184.519 397.238 185.297 397.5 185.873C397.942 186.795 398.983 187.24 399.977 187.135C400.863 187.017 401.69 186.455 402.552 186.553C403.414 186.65 403.988 187.37 404.718 187.671C405.986 188.032 407.376 187.316 408.633 187.786C409.147 188.062 409.637 188.554 410.284 188.627C411.253 188.737 412.022 187.733 412.932 187.399C413.496 187.244 414.034 187.305 414.597 187.151C415.699 187.057 416.634 186.508 417.569 185.959C418.504 185.41 419.344 184.741 420.362 184.42C421.393 183.991 422.495 183.897 423.536 184.342C423.932 183.732 424.672 184.907 424.335 185.96Z" stroke="#ADADFF" stroke-opacity="0.7" stroke-width="0.699045" stroke-miterlimit="10"/>
<path d="M401.212 180.072C401.379 180.527 401.533 181.091 401.964 181.139C402.287 181.176 402.527 180.985 402.767 180.794C403.007 180.602 403.151 180.291 403.391 180.1C403.991 179.622 404.828 179.935 405.57 180.128C406.42 180.334 407.174 180.419 407.965 180.181C408.528 180.026 408.996 179.752 409.475 179.37C410.53 178.725 411.598 177.973 412.76 177.34C413.24 176.958 413.815 176.696 414.378 176.541C414.714 176.47 415.037 176.506 415.216 176.854C415.312 176.974 415.287 177.189 415.263 177.405C415.045 178.362 413.978 179.115 413.761 180.072C413.688 180.719 413.842 181.282 413.877 181.941C413.912 182.599 413.839 183.246 413.359 183.628C412.891 183.902 412.245 183.829 411.718 183.661C410.989 183.36 410.151 183.047 409.913 182.256C409.925 182.148 409.83 182.029 409.83 182.029C409.722 182.016 409.614 182.004 409.506 181.992C408.057 182.265 406.833 183.436 405.433 183.277C404.678 183.192 403.973 182.676 403.231 182.483C402.273 182.265 401.147 182.575 400.334 182.046C399.724 181.65 399.486 180.859 399.236 180.176C399.165 179.841 398.986 179.493 399.13 179.182C399.299 178.655 399.862 178.501 400.268 178.765C400.807 178.826 401.057 179.509 401.212 180.072Z" stroke="#ADADFF" stroke-width="0.349522" stroke-miterlimit="10"/>
<path d="M425.447 174.192C425.616 173.665 426 173.163 426.168 172.636C426.337 172.11 426.182 171.547 426.136 170.996C425.839 169.762 425.422 168.623 425.005 167.485C424.346 167.52 423.962 168.022 423.686 168.536C422.736 170.175 422.733 172.139 421.879 173.897C421.603 174.412 421.219 174.914 421.158 175.453C421.109 175.884 421.06 176.315 421.107 176.865C421.13 177.632 421.272 178.303 421.294 179.069C421.353 179.512 421.412 179.955 421.484 180.291C421.734 180.974 422.319 181.586 423.049 181.886C423.779 182.187 424.521 182.38 425.18 182.346C426.365 182.479 427.695 182.302 428.355 181.286C429.136 180.174 428.684 178.377 429.656 177.504C429.895 177.313 430.243 177.134 430.578 177.063C431.034 176.896 431.501 176.622 431.873 176.228C432.245 175.833 432.629 175.331 432.69 174.792C432.751 174.253 432.369 173.774 431.974 173.402C431.389 172.79 430.456 172.357 429.761 172.715C429.185 172.977 428.909 173.492 428.632 174.006C428.356 174.52 428.295 175.059 427.911 175.561C427.515 176.171 426.807 176.637 426.21 176.133C425.384 175.712 425.158 174.814 425.447 174.192Z" stroke="#ADADFF" stroke-width="0.349522" stroke-miterlimit="10"/>
<path d="M399.792 146.302C400.869 146.424 401.803 146.857 402.748 147.182C403.274 147.35 403.813 147.411 404.328 147.688C404.842 147.964 405.212 148.552 404.936 149.066C404.791 149.377 404.431 149.664 403.988 149.723C403.653 149.794 403.222 149.745 402.887 149.816C401.222 150.065 399.961 151.559 398.284 151.915C397.17 152.116 395.902 151.755 394.741 151.405C393.149 151.007 391.557 150.609 389.953 150.318C389.307 150.245 388.553 150.16 388.063 149.668C387.56 149.284 387.215 148.481 387.611 147.871C387.743 147.668 387.983 147.477 388.211 147.393C389.601 146.677 391.254 146.537 392.787 146.492C394.212 146.435 395.625 146.485 396.966 146.201C397.936 146.31 398.93 146.204 399.792 146.302Z" stroke="#ADADFF" stroke-width="0.349522" stroke-miterlimit="10"/>
<path d="M261.425 148.227C262.598 148.469 263.867 148.83 265.028 149.18L269.768 149.716C269.974 148.866 269.772 147.752 269.319 146.937C268.853 146.23 268.148 145.713 267.298 145.508C266.771 145.34 266.113 145.374 265.611 144.99C265.407 144.858 265.312 144.738 265.108 144.606C264.893 144.582 264.773 144.677 264.557 144.653C263.754 144.998 263.059 145.356 262.34 145.93C261.931 146.647 261.63 147.377 261.425 148.227Z" stroke="#ADADFF" stroke-width="0.349522" stroke-miterlimit="10"/>
<path d="M273.737 109.789C273.881 109.478 274.025 109.167 274.062 108.844C274.135 108.197 273.873 107.622 273.502 107.035C273.311 106.795 273.216 106.675 273.012 106.543C272.498 106.266 271.707 106.504 271.228 106.887C270.736 107.377 270.663 108.023 270.482 108.657C270.409 109.304 270.228 109.938 269.939 110.56C269.519 111.386 268.799 111.959 268.594 112.809C268.279 114.628 270.696 115.447 271.729 114.036C272.113 113.534 272.066 112.983 272.235 112.457C272.655 111.631 273.196 110.71 273.737 109.789Z" stroke="#ADADFF" stroke-width="0.349522" stroke-miterlimit="10"/>
<path d="M240.633 38.718C240.752 38.6224 240.86 38.6346 240.968 38.6468C242.07 38.5531 243.182 39.3336 244.021 38.6646C244.141 38.5691 244.393 38.2702 244.609 38.2946C244.824 38.3189 244.908 38.5466 244.991 38.7743C245.121 39.5529 244.821 40.2827 244.412 41.0004C244.004 41.718 243.404 42.1959 242.9 42.7936C241.772 44.0847 240.943 45.6278 240.329 47.1952C240.305 47.4107 240.185 47.5063 240.065 47.6018C239.945 47.6974 239.837 47.6852 239.729 47.673C238.329 47.5147 236.844 47.1286 236.224 45.8582C235.879 45.0552 235.976 44.1932 236.289 43.3557C236.734 42.3147 237.779 40.796 238.821 40.2592C239.169 40.0802 239.6 40.129 239.948 39.95C240.415 39.6755 240.273 39.0047 240.633 38.718Z" stroke="#ADADFF" stroke-width="0.349522" stroke-miterlimit="10"/>
<path d="M257.829 50.7014C257.936 50.7136 257.924 50.8214 258.032 50.8335C258.14 50.8457 258.26 50.7501 258.26 50.7501C258.979 50.1768 259.101 49.0993 259.199 48.2374C259.357 46.8367 259.962 43.4132 258.862 42.525C257.762 41.6368 255.427 42.0274 254.646 43.1395C252.713 45.7582 255.808 49.2726 257.829 50.7014Z" stroke="#ADADFF" stroke-width="0.349522" stroke-miterlimit="10"/>
<path d="M264.09 32.9676C263.48 32.5712 262.845 32.3904 262.211 32.2096C261.888 32.173 261.672 32.1486 261.361 32.0044C260.859 31.6202 260.969 30.6505 261.556 30.2804C262.036 29.8982 262.814 29.768 263.473 29.7333C264.252 29.6031 265.138 29.4851 265.616 30.0847C265.711 30.2046 265.795 30.4323 265.878 30.66C266.021 31.3308 265.708 32.1684 265.12 32.5385C264.533 32.9085 263.754 33.0388 263.132 32.7502C263.144 32.6424 263.156 32.5347 263.169 32.4269L264.09 32.9676Z" stroke="#ADADFF" stroke-width="0.349522" stroke-miterlimit="10"/>
<path d="M269.856 29.2547C270.025 28.7281 269.978 28.1772 269.584 27.8052C268.915 26.9658 265.338 24.8155 265.609 27.2468C265.654 28.7796 268.846 31.432 269.856 29.2547Z" stroke="#ADADFF" stroke-width="0.349522" stroke-miterlimit="10"/>
</g>
<g opacity="0.2">
<path d="M146.77 24.3958L140.491 70.2812C125.647 68.3847 111.331 65.6749 97.8663 62.1884C78.7767 57.3021 61.1384 51.1613 45.3093 44.4611C38.0229 41.3458 31.0598 38.267 24.552 35.0214C24.745 34.2793 24.627 33.393 24.2569 32.8056C23.7444 31.5473 22.8965 30.3602 23.2582 29.0916C23.6199 27.823 25.0225 26.9995 25.1687 25.7066C25.327 24.3059 23.9282 23.1656 22.5397 22.8995C21.1512 22.6334 19.714 22.7983 18.3255 22.5322C16.9369 22.2661 15.5382 21.1258 15.6965 19.7252C15.8061 18.7554 16.6578 17.9788 16.8752 17.0212C16.9239 16.5902 16.9726 16.1593 16.9136 15.7161C16.5146 11.5243 15.3491 7.35503 13.5962 3.55581C13.2505 2.75286 12.797 1.93774 12.7867 1.0636C12.7764 0.189457 13.2093 -0.743711 14.0123 -1.08942C13.63 -1.56913 13.3555 -2.03665 12.9732 -2.51636C15.502 -3.64905 12.4702 -8.68409 14.9034 -9.93671C15.251 -10.1157 15.8141 -10.2702 16.0783 -10.6769C16.3547 -11.1912 15.8647 -11.6831 15.7101 -12.2462C14.2195 -15.4701 20.2243 -18.3923 18.9614 -21.6996C18.3065 -23.6288 15.6372 -24.1488 14.7425 -25.8868C14.1101 -27.0495 14.4961 -28.5336 14.9655 -29.79C16.1096 -33.1525 17.9834 -36.2144 20.2518 -38.9042C20.6237 -39.2987 20.8879 -39.7053 21.0566 -40.2318C21.3471 -41.8358 18.9298 -42.6547 18.7893 -44.3074C18.72 -45.6247 20.1226 -46.4483 21.1064 -47.4283C22.4743 -48.9105 22.8378 -51.1609 22.183 -53.0901C21.5281 -55.0192 20.0581 -56.4948 18.3239 -57.5639C17.7139 -57.9602 16.9841 -58.261 16.7339 -58.944C16.1971 -59.9868 16.9898 -61.2066 17.937 -61.8634C18.8842 -62.5202 20.0104 -62.8293 20.9576 -63.4861C22.1447 -64.334 22.854 -65.7815 23.5511 -67.1213C25.2216 -70.3152 27.5143 -73.2206 30.0937 -75.7661C30.1527 -75.323 30.3195 -74.8676 30.4862 -74.4123C30.5696 -74.1846 30.7608 -73.9447 30.9762 -73.9204C31.5984 -73.6318 32.3423 -74.4207 32.5353 -75.1627C32.7283 -75.9048 32.718 -76.7789 33.2099 -77.2689C33.4498 -77.46 33.7974 -77.639 34.145 -77.8179C35.511 -78.3182 36.9848 -78.8063 38.363 -79.4144C38.9382 -79.6767 39.6091 -79.8191 40.2677 -79.8537C40.9142 -79.7806 41.6441 -79.4799 41.7865 -78.809C42.1078 -77.7906 40.8008 -76.8472 40.7745 -75.6498C40.797 -74.8834 41.3704 -74.1638 42.1003 -73.8631C42.8301 -73.5623 43.7042 -73.5726 44.4706 -73.5951C44.7939 -73.5585 45.1293 -73.6297 45.357 -73.7131C45.7168 -73.9998 45.8854 -74.5263 46.3529 -74.8008C47.1802 -75.362 48.1602 -74.3783 49.2377 -74.2565C49.8842 -74.1834 50.4716 -74.5534 51.0469 -74.8158C51.9819 -75.3648 53.0126 -75.7939 54.0188 -76.0075C55.1328 -76.2089 56.3058 -75.9672 56.9748 -75.1277C57.1659 -74.8878 57.357 -74.648 57.6681 -74.5037C58.1946 -74.335 58.6865 -74.825 59.1297 -74.884C59.7883 -74.9187 60.2662 -74.3191 60.3008 -73.6604C60.3355 -73.0018 59.8436 -72.5118 59.2561 -72.1417C58.6808 -71.8794 58.01 -71.737 57.4469 -71.5824C55.2311 -71.2873 52.9197 -71.1121 50.8014 -71.679C49.8439 -71.8964 49.0184 -72.317 48.0487 -72.4267C47.1868 -72.5241 46.1927 -72.4183 45.2942 -72.1925C43.737 -71.932 42.0599 -71.576 40.5618 -70.8724C40.2142 -70.6935 39.8666 -70.5146 39.7223 -70.2035C39.578 -69.8925 39.5293 -69.4615 39.8282 -69.2094C40.0315 -69.0773 40.247 -69.053 40.4746 -69.1363C41.5764 -69.23 42.6192 -69.7669 43.6499 -70.1959C44.6805 -70.625 45.7233 -71.1619 46.8251 -71.2555C47.9269 -71.3492 49.1833 -70.8798 49.7323 -69.9448C49.9113 -69.5972 50.078 -69.1418 50.509 -69.0931C50.7245 -69.0687 50.9522 -69.1521 51.192 -69.3432C52.3669 -70.0834 53.6496 -70.8113 54.9913 -71.0961C56.3329 -71.3809 58.0934 -71.5093 59.2055 -70.7288C60.6043 -69.5886 62.6514 -69.3571 64.3529 -69.9286C64.6883 -69.9998 65.0359 -70.1788 65.288 -70.4776C65.792 -71.0754 65.6618 -71.854 65.7349 -72.5004C65.7124 -73.2668 65.9176 -74.1166 66.6006 -74.3667C67.1759 -74.6291 67.8936 -74.2206 68.1559 -73.6453C68.4182 -73.07 68.4529 -72.4114 68.3798 -71.7649C68.1221 -68.5204 67.3135 -65.229 66.948 -61.9966C66.875 -61.3502 66.7897 -60.5959 67.0398 -59.9129C67.29 -59.2299 67.8877 -58.7258 68.6541 -58.7483C69.205 -58.7952 69.6847 -59.1774 70.0689 -59.6796C72.1442 -61.6274 74.315 -63.4553 76.5815 -65.1633C77.2382 -64.216 75.7991 -63.0693 75.7729 -61.8719C75.7363 -61.5486 75.8197 -61.321 75.8909 -60.9856C75.7447 -59.6926 73.5167 -59.2898 73.8137 -58.0559C73.9683 -57.4928 74.5904 -57.2042 75.2247 -57.0233C75.9667 -56.8303 76.8409 -56.8406 77.4405 -57.3184C78.1601 -57.8918 78.2697 -58.8615 79.0726 -59.2073C79.6601 -59.5773 80.4021 -59.3843 81.0242 -59.0957C82.2928 -58.734 83.657 -58.2525 84.6492 -57.3764C85.5458 -56.6203 86.0704 -55.4698 86.6194 -54.5347C87.8964 -52.317 89.5088 -50.1705 91.3854 -48.4306C91.5887 -48.2985 91.792 -48.1664 91.8754 -47.9388C87.411 -48.9891 83.6887 -49.8464 83.6887 -49.8464L79.092 -38.1444L103.063 -0.187679L110.89 2.00669L111.387 5.33651L114.412 7.53362L114.61 10.6114C115.817 11.5118 141.578 22.0628 141.578 22.0628L146.77 24.3958Z" stroke="#ADADFF" stroke-width="0.349522" stroke-miterlimit="10"/>
<path d="M238.299 -5.304C237.616 -5.05385 236.837 -4.92364 236.333 -4.3259C235.817 -3.62041 236.03 -2.61414 235.933 -1.75218C235.87 -0.231568 234.825 1.28716 233.327 1.99076C232.752 2.25308 232.093 2.28773 231.699 1.91577C231.496 1.78366 231.52 1.56817 231.437 1.3405C230.578 -0.720734 228.389 -1.62301 226.295 -2.40537C226.616 -1.38693 227.525 -0.738576 228.314 0.00534811C229.115 0.641527 229.879 1.60094 229.878 2.58283C229.841 2.90606 229.804 3.2293 229.565 3.42043C229.445 3.51599 229.217 3.59938 228.989 3.68276C227.611 4.2908 226.03 4.76673 224.798 4.08183C223.972 3.66114 223.519 2.84601 222.693 2.42532C221.963 2.12456 221.209 2.03928 220.443 2.06176C219.461 2.05987 218.227 2.35686 218.117 3.32657C218.032 4.08079 218.845 4.60921 219.563 5.01772C220.293 5.31848 221.106 5.84692 221.129 6.61332C221.151 7.37972 220.444 7.84535 220.035 8.56302C219.627 9.28069 219.745 10.167 219.432 11.0046C218.938 12.4765 217.32 13.2757 215.834 13.8715C214.696 14.2884 213.557 14.7054 212.396 14.3559C210.709 13.8377 209.959 11.7887 208.415 10.9595C207.793 10.6709 207.159 10.4901 206.405 10.4048C204.585 10.09 202.754 9.88287 200.922 9.67579C202.177 11.1271 203.527 12.6983 205.417 13.3486C206.458 13.7936 207.656 13.8199 208.804 14.2771C209.642 14.5901 210.335 15.214 211.053 15.6226C212.177 16.2953 213.446 16.6569 214.739 16.8031C215.816 16.9249 217.013 16.9512 217.562 17.8862C217.92 18.5814 217.607 19.419 217.103 20.0168C216.707 20.6267 216.095 21.2123 215.807 21.8344C215.518 22.4565 215.553 23.1151 215.372 23.7494C215.118 25.0302 214.47 25.939 213.594 26.9312C213.555 28.2363 212.966 29.5883 211.815 30.1129C210.772 30.6498 209.492 30.3958 208.307 30.2618C207.121 30.1278 205.696 30.185 204.94 31.0816C204.184 31.9782 204.253 33.2955 203.605 34.2043C203.089 34.9098 202.07 35.2312 201.196 35.2414C197.352 35.4616 194.125 32.1504 190.295 31.2809C188.272 30.834 185.853 30.997 184.263 29.6169C183.367 28.8608 182.759 27.4825 181.681 27.3607C181.143 27.2998 180.579 27.4544 180.136 27.5134C178.459 27.8694 176.699 27.9978 174.975 27.8029C175.764 28.5468 176.805 28.9918 177.87 29.2214C178.84 29.331 179.941 29.2373 180.899 29.4547C182.491 29.8529 183.637 31.2921 185.217 31.798C186.378 32.1475 187.492 31.9461 188.689 31.9723C190.102 32.023 191.346 32.6001 192.591 33.1773C195.187 34.3438 197.866 35.738 199.826 37.7055C200.603 38.5572 201.463 39.6365 201.126 40.6896C200.933 41.4317 200.333 41.9095 199.734 42.3873C199.134 42.8651 198.534 43.3429 197.935 43.8207C197.575 44.1074 197.215 44.3941 196.772 44.4531C196.006 44.4756 195.312 43.8516 194.725 44.2217C194.365 44.5084 194.412 45.0593 194.579 45.5146C194.745 45.97 195.032 46.3297 195.079 46.8807C195.232 48.4256 191.375 48.7535 190.487 49.8534C190.235 50.1523 190.078 50.5711 189.934 50.8822C189.261 52.0065 187.668 52.5901 187.414 53.8709C187.329 54.6251 187.782 55.4402 187.912 56.2188C187.9 56.3265 187.983 56.5542 187.864 56.6498C187.839 56.8653 187.611 56.9487 187.372 57.1398C186.437 57.6888 185.68 58.5854 185.248 59.5186C184.683 60.6551 184.417 62.0436 183.756 63.0601C183.228 63.8733 182.376 64.65 182.158 65.6076C182.002 66.0264 182.049 66.5773 181.988 67.116C181.903 67.8702 181.506 68.4801 180.907 68.958C180.427 69.3402 179.852 69.6026 179.372 69.9848C178.88 70.4748 179.035 71.0379 179.297 71.6132C179.464 72.0685 179.511 72.6194 179.342 73.146C165.919 73.1561 152.821 72.2208 140.227 70.6878L146.506 24.8024L141.086 22.5528C141.086 22.5528 115.218 11.9896 114.118 11.1014L113.92 8.0236L110.895 5.82649L110.398 2.49669L102.571 0.302311L78.5998 -37.6544L83.1965 -49.3565C83.1965 -49.3565 86.9189 -48.4991 91.3833 -47.4488C92.0766 -46.8248 92.6622 -46.213 93.1278 -45.5056C93.4979 -44.9181 93.6525 -44.355 94.0347 -43.8753C94.4048 -43.2879 95.0025 -42.7838 95.6002 -42.2797C96.7957 -41.2716 98.3145 -40.2269 99.51 -39.2188C99.6543 -39.5298 99.7985 -39.8409 99.9428 -40.1519C103.271 -39.6666 106.14 -37.0506 106.876 -33.912C107.161 -32.5703 107.086 -30.9419 105.911 -30.2018C105.203 -29.7361 104.222 -29.738 103.36 -29.8355C102.498 -29.9329 101.54 -30.1503 100.737 -29.8046C99.8387 -29.5788 99.1903 -28.67 99.4161 -27.7715C99.5707 -27.2084 99.9773 -26.9442 100.372 -26.5723C102.082 -25.2877 104.043 -24.3021 106.054 -23.7474C106.999 -23.4222 108.065 -23.1927 109.022 -22.9753C112.11 -22.2988 115.306 -21.6101 118.313 -22.1432C119.319 -22.3568 120.541 -22.546 121.102 -21.7187C121.472 -21.1313 121.362 -20.1615 122.104 -19.9685C122.415 -19.8242 122.871 -19.991 123.182 -19.8467C124.019 -19.5338 123.55 -18.2774 123.884 -17.3667C124.134 -16.6837 125.067 -16.2508 125.762 -16.6087C125.341 -15.7833 125.783 -14.8604 126.128 -14.0575C126.474 -13.2545 126.556 -12.045 125.753 -11.6992C125.165 -11.3292 124.22 -11.6543 123.836 -11.1521C123.451 -10.6499 123.917 -9.94255 124.312 -9.57059C125.172 -8.49125 126.02 -7.30416 126.412 -5.95031C126.638 -5.0518 126.756 -4.16549 127.102 -3.36254C127.447 -2.5596 128.009 -1.73229 128.858 -1.5271C129.543 -2.75913 129.175 -4.32846 128.782 -5.68231C128.282 -7.04834 127.554 -8.331 127.389 -9.76823C127.904 -9.49184 128.01 -8.49776 128.548 -8.43685C128.979 -8.38812 129.351 -8.78256 129.4 -9.21354C129.449 -9.64452 129.282 -10.0999 129.211 -10.4353C128.902 -11.5615 129.036 -12.7467 129.385 -13.9075C129.554 -14.434 129.818 -14.8407 129.771 -15.3916C129.797 -16.5889 128.71 -17.5849 128.748 -18.89C128.762 -19.9797 129.722 -20.7442 130.74 -21.0655C131.758 -21.3869 132.74 -21.385 133.854 -21.5864C135.411 -21.8468 137.017 -22.5383 138.324 -23.4817C138.792 -23.7562 139.2 -24.4739 138.686 -24.7503C138.59 -24.8702 138.375 -24.8946 138.267 -24.9068C136.962 -24.9452 135.834 -23.6542 134.505 -23.4771C133.295 -23.3956 131.98 -24.3082 130.829 -23.7835C130.254 -23.5212 129.857 -22.9113 129.378 -22.529C128.323 -21.8844 126.78 -22.7136 126.483 -23.9475C126.186 -25.1815 126.763 -26.4257 127.83 -27.178C128.43 -27.6558 129.113 -27.906 129.891 -28.0362C130.778 -28.1542 131.627 -27.949 132.394 -27.9715C134.25 -27.9799 136.071 -28.647 137.868 -29.0985C138.204 -29.1697 138.647 -29.2288 138.97 -29.1922C139.7 -28.8915 139.926 -27.9929 140.044 -27.1066C140.422 -24.6631 141.459 -22.2543 142.988 -20.3355C143.753 -19.3761 144.853 -18.4878 145.979 -18.797C146.434 -18.9638 146.794 -19.2505 147.237 -19.3095C147.68 -19.3685 148.315 -19.1877 148.481 -18.7323C148.778 -17.4984 149.734 -16.2991 150.751 -15.6386C151.875 -14.9659 153.131 -14.4965 154.412 -14.2425C156.435 -13.7956 158.59 -13.552 160.71 -13.967C161.381 -14.1094 162.159 -14.2396 162.542 -13.7599C162.733 -13.52 162.804 -13.1846 162.875 -12.8492C163.316 -11.9263 164.489 -11.6846 165.4 -12.0181C165.628 -12.1015 165.855 -12.1849 166.095 -12.376C166.227 -12.5793 166.36 -12.7826 166.492 -12.9859C166.768 -13.5003 166.949 -14.1346 167.225 -14.649C168.098 -13.6774 168.622 -12.5268 169.375 -11.4597C170.127 -10.3925 171.119 -9.51647 172.412 -9.3703C172.843 -9.32157 173.286 -9.38058 173.646 -9.66727C174.006 -9.95396 174.162 -10.3728 173.888 -10.8403C173.804 -11.068 173.601 -11.2001 173.398 -11.3322C173.015 -11.8119 172.993 -12.5783 172.611 -13.058C171.942 -13.8975 170.612 -13.7204 169.535 -13.8422C169.319 -13.8666 169.008 -14.0109 168.913 -14.1308C168.709 -14.2629 168.626 -14.4906 168.543 -14.7183C168.03 -15.9766 167.518 -17.2348 167.556 -18.54C167.58 -18.7555 167.617 -19.0787 167.749 -19.282C167.881 -19.4853 168.229 -19.6643 168.432 -19.5322C168.851 -19.3757 168.981 -18.5971 169.329 -18.7761C169.556 -18.8594 169.701 -19.1705 169.928 -19.2539C170.396 -19.5284 170.886 -19.0365 171.292 -18.7723C172.106 -18.2438 173.352 -18.6486 174.165 -18.1201C174.966 -17.484 175.131 -16.0467 176.196 -15.8172C177.262 -15.5876 178.211 -17.2263 179.144 -16.7934C178.4 -16.0045 177.524 -15.0123 177.51 -13.9227C177.461 -13.4917 177.52 -13.0485 177.484 -12.7253C177.482 -11.7434 176.713 -10.7391 176.927 -9.73282C176.986 -9.28965 177.26 -8.82212 177.535 -8.35459C178.371 -7.05976 179.219 -5.87267 180.054 -4.57784C180.15 -4.45792 180.245 -4.33799 180.353 -4.32581C180.461 -4.31363 180.581 -4.40919 180.593 -4.51694C181.109 -5.22243 181.327 -6.17996 181.101 -7.07847C180.934 -7.53381 180.767 -7.98915 180.493 -8.45668C180.243 -9.1397 180.125 -10.026 179.994 -10.8046C179.889 -11.7987 180.035 -13.0916 180.779 -13.8805C181.915 -13.3155 183.389 -13.8036 183.954 -14.9401C184.375 -15.7655 184.389 -16.8551 185.12 -17.5363C185.36 -17.7274 185.708 -17.9063 186.055 -18.0853C186.751 -18.4432 187.159 -19.1608 187.555 -19.7708C188.072 -20.4763 188.6 -21.2895 188.71 -22.2592C188.807 -23.1212 188.594 -24.1274 187.78 -24.6559C187.455 -23.7105 186.819 -22.9095 185.992 -22.3483C185.872 -22.2527 185.632 -22.0616 185.417 -22.0859C184.878 -22.1468 184.855 -22.9132 184.904 -23.3442C185.002 -24.2062 185.195 -24.9482 185.292 -25.8102C185.353 -26.3489 185.534 -26.9832 185.906 -27.3776C186.637 -28.0588 187.786 -27.6015 188.731 -27.2764C188.839 -27.2642 188.839 -27.2642 188.947 -27.252C189.055 -27.2398 189.067 -27.3476 189.079 -27.4554C189.26 -28.0896 189.441 -28.7239 189.418 -29.4903C189.443 -29.7058 189.359 -29.9335 189.156 -30.0656C188.857 -30.3176 188.39 -30.0431 188.125 -29.6365C187.873 -29.3376 187.705 -28.8111 187.261 -28.7521C187.046 -28.7764 186.83 -28.8008 186.627 -28.9329C185.312 -29.8455 184.633 -31.5591 183.161 -32.0529C182.634 -32.2215 181.975 -32.1869 181.329 -32.26C179.078 -32.6235 177.478 -34.8778 177.411 -37.177C177.343 -39.4762 178.353 -41.6535 179.746 -43.3512C178.408 -45.0302 178.473 -47.5327 178.716 -49.6876C178.814 -50.5496 179.031 -51.5071 179.822 -51.7451C180.493 -51.8875 181.294 -51.2513 181.881 -51.6214C181.499 -52.1011 181.021 -52.7007 180.639 -53.1804C180.543 -53.3003 180.352 -53.5402 180.376 -53.7557C180.425 -54.1867 180.868 -54.2457 181.216 -54.4246C181.803 -54.7947 181.793 -55.6688 182.297 -56.2666C182.801 -56.8643 183.592 -57.1023 184.371 -57.2325C184.586 -57.2081 184.706 -57.3037 184.802 -57.1838C185.005 -57.0517 184.861 -56.7406 184.944 -56.513C184.93 -55.4233 185.934 -54.655 186.975 -54.21C188.219 -53.6328 189.571 -53.0435 190.311 -51.8686C191.052 -50.6937 191.097 -49.1609 190.938 -47.7602C190.853 -47.006 190.66 -46.2639 190.91 -45.5809C191.172 -45.0056 191.675 -44.6215 192.057 -44.1418C192.63 -43.4222 192.844 -42.416 193.177 -41.5053C193.619 -40.5824 194.168 -39.6474 195.149 -39.6455C195.664 -39.3691 195.566 -38.5071 195.075 -38.0171C194.595 -37.6349 193.936 -37.6002 193.385 -37.5534C192.942 -37.4944 192.379 -37.3398 192.33 -36.9088C192.306 -36.6933 192.497 -36.4534 192.688 -36.2136C192.95 -35.6383 192.446 -35.0406 192.386 -34.5018C192.18 -33.6521 192.729 -32.717 193.303 -31.9975C193.876 -31.2779 194.569 -30.6539 195.419 -30.4487C196.58 -30.0992 197.983 -30.9227 198.999 -30.2622C199.333 -29.3515 198.026 -28.4081 198.347 -27.3896C198.597 -26.7066 199.555 -26.4892 199.805 -25.8062C199.972 -25.3509 199.911 -24.8121 199.862 -24.3811C199.787 -22.7528 200.814 -21.2181 200.727 -19.482C200.761 -18.8234 200.58 -18.1891 200.627 -17.6382C200.662 -16.9795 201.02 -16.2843 201.666 -16.2112C202.784 -18.3764 203.495 -20.8058 203.44 -23.2128C203.478 -24.5179 203.289 -25.7396 203.543 -27.0204C203.592 -27.4514 203.748 -27.8702 204.192 -27.9292C204.755 -28.0838 205.137 -27.6041 205.519 -27.1244C206.367 -25.9373 207.455 -24.9413 208.687 -24.2564C209.608 -23.7158 210.636 -23.163 210.73 -22.0612C210.789 -21.618 210.645 -21.307 210.596 -20.876C210.643 -20.3251 210.918 -19.8576 211.192 -19.39C211.467 -18.9225 211.501 -18.2639 211.129 -17.8694C210.637 -17.3794 209.788 -17.5846 209.296 -17.0946C209.044 -16.7957 209.09 -16.2448 209.257 -15.7895C209.436 -15.4419 209.831 -15.0699 209.997 -14.6146C210.248 -13.9316 210.055 -13.1895 209.969 -12.4353C209.533 -9.53837 210.7 -6.35096 212.995 -4.45461C213.485 -3.96272 214.311 -3.54203 214.91 -4.01985C215.63 -4.59323 215.37 -6.15039 216.364 -6.25625C216.807 -6.31527 217.417 -5.91895 217.776 -6.20564C217.896 -6.3012 217.921 -6.51669 217.933 -6.62443C217.935 -7.60632 217.182 -8.67348 217.4 -9.63101C217.556 -10.0498 217.701 -10.3609 217.953 -10.6597C218.782 -12.2028 218.786 -14.1666 218.885 -16.0104C218.901 -18.082 219.145 -20.2369 219.376 -22.284C219.473 -23.146 219.811 -24.1991 220.685 -24.2094C221.116 -24.1607 221.642 -23.992 221.894 -24.2909C222.027 -24.4942 221.931 -24.6141 221.955 -24.8296C221.874 -26.0392 221.697 -27.3687 220.692 -28.1369C220.095 -28.641 219.042 -28.9783 218.684 -29.6735C218.505 -30.0211 218.541 -30.3444 218.578 -30.6676C218.555 -31.434 218.653 -32.2959 218.846 -33.038C218.882 -33.3612 219.039 -33.78 219.279 -33.9711C219.519 -34.1623 219.746 -34.2456 220.07 -34.2091C221.842 -34.4452 223.83 -34.6569 225.229 -33.5166C225.827 -33.0126 226.412 -32.4008 227.071 -32.4354C227.837 -32.4579 228.366 -33.2711 229.12 -33.1859C229.874 -33.1006 230.088 -32.0943 230.35 -31.5191C230.708 -30.8239 231.414 -30.3076 232.156 -30.1146C232.898 -29.9216 233.581 -30.1717 234.323 -29.9787C235.077 -29.8934 235.77 -29.2694 235.685 -28.5152C235.6 -27.761 234.581 -27.4397 234.173 -26.722C233.764 -26.0043 234.086 -24.9859 234.816 -24.6851C235.438 -24.3965 236.324 -24.5146 236.598 -24.047C236.682 -23.8194 236.765 -23.5917 236.741 -23.3762C236.751 -22.5021 236.761 -21.6279 236.245 -20.9224C235.237 -19.727 232.999 -20.1983 232.29 -18.7507C231.857 -17.8176 232.717 -16.7382 233.386 -15.8987C234.76 -14.543 236.122 -13.0795 237.497 -11.7238C237.891 -11.3518 238.286 -10.9798 238.452 -10.5245C239.276 -9.12192 238.853 -7.31461 239.222 -5.74527C239.701 -6.12753 238.982 -5.55415 238.299 -5.304Z" stroke="#ADADFF" stroke-width="0.699045" stroke-miterlimit="10"/>
<path d="M326.401 28.1181C325.72 27.3864 326.19 26.13 326.312 25.0525C326.324 24.9448 326.336 24.837 326.24 24.7171C326.145 24.5972 326.037 24.585 325.929 24.5728C325.498 24.5241 325.175 24.4875 324.744 24.4388C320.674 23.7604 317.183 20.8559 313.294 19.5433C312.241 19.206 311.068 18.9642 310.159 18.3158C309.657 17.9317 309.167 17.4398 308.677 16.9479C308.187 16.456 307.577 16.0597 306.955 15.7711C306.847 15.7589 306.644 15.6268 306.656 15.5191C306.573 15.2914 306.717 14.9804 306.945 14.897C307.172 14.8136 307.496 14.8501 307.711 14.8745C308.872 15.224 310.128 15.6934 311.159 15.2643C311.507 15.0854 311.746 14.8942 312.19 14.8352C312.968 14.705 313.529 15.5323 314.235 16.0486C314.953 16.4571 315.814 16.5545 316.544 16.8553C317.262 17.2638 317.955 17.8878 318.685 18.1886C320.265 18.6945 322.052 17.3688 323.499 18.0781C324.013 18.3545 324.396 18.8342 324.802 19.0984C325.723 19.639 326.945 19.4498 328.059 19.2484C328.215 18.8296 328.049 18.3742 327.762 18.0144C327.571 17.7746 327.26 17.6303 327.056 17.4982C326.865 17.2583 326.794 16.9229 326.926 16.7196C327.058 16.5163 327.394 16.4451 327.622 16.3617C327.861 16.1706 327.79 15.8352 327.611 15.4876C327.42 15.2477 327.217 15.1156 326.918 14.8636C325.208 13.579 324.002 11.6967 323.575 9.68423C323.587 9.57648 323.492 9.45655 323.612 9.36099C323.624 9.25324 323.732 9.26543 323.851 9.16987C324.415 9.01528 325.024 9.41161 325.299 9.87914C325.681 10.3588 325.944 10.9341 326.458 11.2105C326.673 11.2349 326.889 11.2592 327.009 11.1637C327.129 11.0681 327.129 11.0681 327.141 10.9604C327.478 9.90728 326.834 8.85229 326.033 8.21612C325.232 7.57994 324.191 7.13489 323.39 6.49872C322.887 6.11457 322.625 5.53931 322.003 5.25073C320.771 4.56582 318.962 5.12513 318.114 3.93804C318.689 3.67571 319.289 3.19789 319.242 2.64698C319.195 2.09608 318.477 1.68756 317.939 1.62666C317.4 1.56575 316.741 1.60041 316.227 1.32401C315.617 0.927689 315.379 0.136921 314.745 -0.0439133C313.907 -0.356856 312.828 0.50322 312.015 -0.0252133C311.801 -1.03147 310.305 -1.30976 309.347 -1.52714C308.39 -1.74452 307.205 -1.87851 306.523 -2.61025C305.938 -3.22207 305.712 -4.12057 305.246 -4.82795C304.1 -6.26707 301.68 -6.10409 300.294 -7.35208C299.804 -7.84397 299.446 -8.53917 298.968 -9.1388C298.49 -9.73843 297.893 -10.2425 297.246 -10.3156C296.923 -10.3522 296.587 -10.2809 296.516 -10.6164C296.528 -10.7241 296.541 -10.8319 296.553 -10.9396C296.746 -11.6816 297.644 -11.9074 298.399 -11.8222C299.141 -11.6291 299.738 -11.1251 300.348 -10.7287C300.958 -10.3324 301.676 -9.9239 302.442 -9.94638C303.209 -9.96885 303.94 -10.65 303.81 -11.4286C303.584 -12.3271 302.399 -12.4611 301.562 -12.774C300.712 -12.9792 299.911 -13.6154 299.888 -14.3818C300.319 -14.3331 300.738 -14.1766 301.086 -14.3555C301.433 -14.5345 301.805 -14.9289 301.734 -15.2643C301.567 -15.7197 301.041 -15.8883 301.089 -16.3193C301.018 -16.6547 301.39 -17.0492 301.726 -17.1204C302.96 -17.4173 304.155 -16.4092 304.572 -15.2708C304.739 -14.8155 304.918 -14.4679 305.204 -14.1081C305.491 -13.7483 305.898 -13.4841 306.353 -13.6509C306.916 -13.8055 307.121 -14.6552 307.684 -14.8098C308.128 -14.8689 308.426 -14.6168 308.605 -14.2692C308.784 -13.9216 308.736 -13.4906 308.795 -13.0475C310.653 -14.0378 311.148 -16.4915 312.516 -17.9737C313.008 -18.4637 313.811 -18.8094 314.313 -18.4253C314.504 -18.1854 314.575 -17.85 314.647 -17.5146C314.716 -16.1973 314.139 -14.9531 313.167 -14.0808C312.807 -13.7941 312.46 -13.6152 312.196 -13.2086C311.931 -12.802 311.775 -12.3831 311.954 -12.0355C312.228 -11.568 312.875 -11.4949 313.414 -11.434C313.952 -11.3731 314.587 -11.1923 314.633 -10.6414C314.692 -10.1982 314.32 -9.80378 314.487 -9.34844C314.654 -8.89309 315.42 -8.91556 315.876 -9.08232C316.331 -9.24909 316.919 -9.61917 317.433 -9.34277C317.947 -9.06638 317.958 -8.19223 318.484 -8.02357C319.011 -7.85492 319.61 -8.33274 320.017 -8.06852C320.424 -7.8043 320.542 -6.91798 321.092 -6.96482C321.308 -6.94046 321.44 -7.14376 321.548 -7.13158C322.003 -7.29835 322.349 -6.49541 322.792 -6.55443C323.343 -6.60126 323.416 -7.24773 323.357 -7.69089C323.17 -9.89452 322.431 -12.0513 321.106 -13.838C320.819 -14.1978 320.545 -14.6653 320.809 -15.072C321.073 -15.4786 321.719 -15.4055 322.018 -15.1535C322.425 -14.8892 322.712 -14.5295 323.13 -14.373C323.765 -14.1922 324.472 -14.6578 324.665 -15.3998C324.846 -16.0341 324.596 -16.7171 324.118 -17.3168C323.819 -17.5688 323.532 -17.9286 323.341 -18.1684C323.162 -18.516 323.103 -18.9592 323.355 -19.2581C323.607 -19.5569 324.038 -19.5082 324.482 -19.5672C324.817 -19.6384 325.272 -19.8052 325.213 -20.2484C325.225 -20.3561 325.13 -20.476 325.034 -20.596C324.544 -21.0878 323.682 -21.1853 323.048 -21.3661C322.414 -21.547 321.625 -22.2909 321.913 -22.913C322.119 -23.7628 323.316 -23.7365 323.916 -24.2144C324.755 -24.8833 324.483 -26.3327 323.549 -26.7656C324.041 -27.2556 324.545 -27.8533 324.175 -28.4408C323.984 -28.6806 323.781 -28.8127 323.565 -28.8371C322.728 -29.15 321.89 -29.463 321.124 -29.4405C320.25 -29.4302 319.315 -28.8812 319.109 -28.0314C319.073 -27.7082 319.036 -27.3849 319 -27.0617C318.963 -26.7385 318.699 -26.3319 318.376 -26.3684C317.933 -26.3094 317.646 -26.6692 317.335 -26.8135C316.82 -27.0899 316.162 -27.0552 315.694 -26.7807C315.227 -26.5062 314.843 -26.004 314.471 -25.6096C314.326 -25.2985 314.074 -24.9996 313.643 -25.0484C313.105 -25.1093 313.082 -25.8757 313.251 -26.4022C313.757 -27.9818 314.072 -29.8013 313.02 -31.1205C311.75 -30.5003 310.671 -29.6402 309.687 -28.6602C308.31 -29.0341 306.922 -29.3002 305.497 -29.2431C306.013 -29.9486 306.828 -30.402 307.715 -30.52C307.942 -30.6034 308.266 -30.5669 308.29 -30.7824C308.302 -30.8901 308.314 -30.9979 308.326 -31.1056C308.005 -32.124 306.844 -32.4735 305.85 -32.3677C305.192 -32.333 304.413 -32.2028 303.803 -32.5991C302.894 -33.2475 303.185 -34.8515 302.168 -35.512C301.76 -34.7944 301.459 -34.0645 301.038 -33.2391C301.026 -33.1313 300.906 -33.0358 300.894 -32.928C300.774 -32.8325 300.666 -32.8447 300.451 -32.869C300.02 -32.9177 299.493 -33.0864 299.062 -33.1351C298.631 -33.1838 298.08 -33.137 297.708 -32.7426C297.336 -32.3481 297.131 -31.4984 296.592 -31.5593C296.162 -31.608 295.995 -32.0633 295.924 -32.3987C295.578 -33.2017 294.897 -33.9334 294.059 -34.2464C293.856 -34.3785 293.533 -34.415 293.557 -34.6305C293.581 -34.846 293.593 -34.9538 293.618 -35.1692C293.534 -35.3969 293.331 -35.529 293.116 -35.5534C291.632 -35.9394 290.099 -35.8945 288.745 -35.5019C288.29 -35.3352 287.846 -35.2761 287.44 -35.5404C286.938 -35.9245 287.143 -36.7743 286.881 -37.3496C286.714 -37.8049 286.307 -38.0691 286.248 -38.5123C286.201 -39.0632 286.777 -39.3255 287.136 -39.6122C287.604 -39.8867 287.988 -40.3889 287.821 -40.8442C287.667 -41.4073 286.793 -41.397 286.313 -41.0148C285.833 -40.6325 285.652 -39.9982 285.173 -39.616C284.693 -39.2337 283.819 -39.2234 283.664 -39.7865C283.581 -40.0142 283.617 -40.3374 283.534 -40.5651C283.259 -41.0326 282.265 -40.9268 282.099 -41.3821C281.92 -41.7297 282.399 -42.112 282.747 -42.2909C283.79 -42.8277 285.036 -43.2325 286.258 -43.4217C287.922 -43.67 289.766 -43.5706 290.978 -44.634C291.098 -44.7296 291.23 -44.9329 291.242 -45.0406C291.278 -45.3639 290.98 -45.6159 290.656 -45.6525C289.927 -45.9532 289.04 -45.8352 288.262 -45.705C286.704 -45.4445 285.255 -45.1719 283.698 -44.9115C282.812 -44.7934 281.805 -44.5798 280.98 -45.0005C282.421 -47.1292 284.376 -48.9814 286.594 -50.2584C285.423 -51.482 284.036 -52.73 282.613 -53.6548C282.41 -53.7869 282.111 -54.0389 281.763 -53.86C281.536 -53.7766 281.404 -53.5733 281.391 -53.4655C280.178 -51.4203 280.951 -48.6048 279.546 -46.7994C279.044 -47.1835 278.89 -47.7466 278.963 -48.3931C279.036 -49.0396 279.205 -49.5661 279.265 -50.1049C279.314 -50.5358 279.172 -51.2067 278.741 -51.2554C278.418 -51.2919 278.153 -50.8853 277.997 -50.4665C277.84 -50.0477 277.912 -49.7123 277.66 -49.4134C277.155 -48.8157 276.031 -49.4884 275.901 -50.267C275.879 -51.0334 276.407 -51.8466 277.019 -52.4322C277.523 -53.0299 278.147 -53.7232 278.137 -54.5974C278.077 -55.0405 277.911 -55.4959 277.72 -55.7357C276.86 -56.8151 275.148 -57.1177 273.89 -56.6053C272.523 -56.105 271.528 -55.0172 270.843 -53.7852C270.989 -55.0781 271.015 -56.2755 271.053 -57.5806C270.226 -57.0194 269.997 -55.9542 270.007 -55.08C269.897 -54.1103 270.003 -53.1162 269.69 -52.2786C269.678 -52.1709 269.546 -51.9676 269.426 -51.872C269.306 -51.7765 269.091 -51.8008 268.995 -51.9208C268.253 -52.1138 267.631 -52.4024 267.033 -52.9064C268.653 -54.6875 269.389 -57.3324 268.77 -59.5847C267.884 -59.4667 267.451 -58.5335 267.246 -57.6837C267.041 -56.834 267.051 -55.9598 266.642 -55.2422C266.234 -54.5245 265.287 -53.8677 264.569 -54.2762C264.258 -54.4205 264.067 -54.6604 263.983 -54.888C263.339 -55.943 263.402 -57.4636 264.266 -58.3481C265.117 -59.1248 266.794 -59.4808 266.808 -60.5704C266.798 -61.4445 265.769 -61.9973 264.907 -62.0948C264.045 -62.1922 263.039 -61.9786 262.321 -62.3871C261.807 -62.6635 261.317 -63.1554 260.646 -63.013C259.868 -62.8828 259.734 -61.6976 260.079 -60.8947C260.425 -60.0917 260.986 -59.2644 260.566 -58.439C260.289 -57.9246 259.498 -57.6867 258.889 -58.083C258.183 -58.5993 258.102 -59.8088 257.276 -60.2295C256.654 -60.5181 255.707 -59.8613 255.849 -59.1905C255.119 -59.4913 255.241 -60.5687 255.65 -61.2864C256.058 -62.004 256.479 -62.8295 256.121 -63.5247C254.515 -62.8332 253.554 -61.0869 253.587 -59.4463C253.55 -59.1231 253.621 -58.7876 253.286 -58.7164C253.178 -58.7286 253.07 -58.7408 252.963 -58.753C252.125 -59.0659 251.804 -60.0844 251.889 -60.8386C251.986 -61.7005 252.395 -62.4182 252.708 -63.2558C252.913 -64.1056 252.915 -65.0875 252.329 -65.6993C251.935 -66.0713 251.252 -65.8211 250.784 -65.5466C250.209 -65.2843 249.55 -65.2496 249.276 -65.7172C249.109 -66.1725 249.481 -66.5669 249.745 -66.9736C250.43 -68.2056 249.416 -69.848 248.003 -69.8986C246.913 -69.9127 245.834 -69.0526 244.913 -69.5932C244.494 -69.7497 244.327 -70.2051 243.908 -70.3615C243.394 -70.6379 242.855 -70.6988 242.317 -70.7598C240.448 -70.6436 238.59 -69.6533 237.438 -68.1468C237.318 -68.0512 237.186 -67.8479 237.162 -67.6324C237.101 -67.0937 237.711 -66.6973 238.249 -66.6364C238.788 -66.5755 239.422 -66.3947 239.589 -65.9394C240.03 -65.0165 238.425 -64.3251 238.315 -63.3554C237.583 -62.6742 236.123 -63.2758 235.898 -64.1743C235.43 -63.8998 234.975 -63.733 234.507 -63.4585C234.174 -64.3692 233.852 -65.3876 233.519 -66.2983C232.641 -64.3242 231.966 -62.218 231.723 -60.0631C229.966 -61.8986 229.409 -64.6897 230.431 -66.9748C230.719 -67.5969 231.128 -68.3146 230.998 -69.0931C230.951 -69.644 230.569 -70.1238 230.282 -70.4835C228.92 -71.947 227.185 -73.0161 226.531 -74.9452C226.126 -76.1913 226.093 -77.8318 225.076 -78.4924C224.06 -79.1529 222.694 -78.6526 221.747 -77.9959C220.799 -77.3391 219.828 -76.4669 218.702 -76.1577C218.761 -75.7145 218.808 -75.1636 218.867 -74.7205C217.598 -75.0821 216.136 -74.7018 215.153 -73.7218C214.913 -73.5306 214.768 -73.2196 214.744 -73.0041C214.85 -72.01 216.671 -72.6771 217.125 -71.8619C216.119 -71.6483 215.303 -71.1949 214.464 -70.5259C215.182 -70.1174 215.911 -69.8167 216.521 -69.4204C215.767 -69.5056 214.665 -69.4119 214.472 -68.6699C214.159 -67.8323 215.271 -67.0518 215.497 -66.1533C215.652 -65.5902 215.471 -64.956 215.518 -64.405C215.565 -63.8541 215.923 -63.1589 216.581 -63.1936C217.132 -63.2404 217.648 -63.9459 218.163 -63.6695C218.366 -63.5374 218.449 -63.3098 218.533 -63.0821C218.734 -61.9681 218.948 -60.9618 219.149 -59.8478C218.275 -59.8375 217.822 -60.6527 217.356 -61.36C216.89 -62.0674 215.982 -62.7158 215.382 -62.238C214.423 -61.4735 215.988 -59.8779 215.423 -58.7414C215.279 -58.4303 215.039 -58.2392 214.895 -57.9282C214.57 -56.9828 215.706 -56.4178 216.639 -55.985C217.979 -55.2879 219.162 -54.172 219.315 -52.627C219.48 -51.1898 218.423 -49.5633 216.89 -49.5184C217.754 -50.4028 218.654 -51.6105 218.118 -52.6533C217.855 -53.2285 217.221 -53.4094 216.611 -53.8057C214.972 -54.7548 213.73 -56.3139 213.291 -58.2186C212.935 -59.8957 213.142 -61.7274 212.558 -63.3211C211.962 -64.807 210.732 -66.4738 211.441 -67.9214C211.73 -68.5435 212.425 -68.9014 212.498 -69.5478C212.716 -70.5054 211.927 -71.2493 211.713 -72.2555C211.406 -74.3636 214.618 -75.7464 214.526 -77.8301C214.562 -78.1534 214.383 -78.501 214.085 -78.753C213.774 -78.8973 213.438 -78.8261 213.103 -78.7549C211.413 -78.2912 209.724 -77.8274 208.13 -77.2437C207.22 -76.9102 206.309 -76.5767 205.59 -76.0033C204.51 -75.1432 203.933 -73.899 203.356 -72.6548C202.009 -69.4243 201.068 -65.9296 200.678 -62.4818C200.629 -62.0508 200.568 -61.5121 200.855 -61.1523C201.142 -60.7925 201.764 -60.5039 201.607 -60.0851C201.559 -59.6542 201.008 -59.6073 200.648 -59.3206C199.941 -58.855 200.142 -57.741 200.62 -57.1414C201.085 -56.434 201.791 -55.9177 201.909 -55.0314C202.098 -53.8097 200.958 -52.4109 201.722 -51.4514C202.105 -50.9717 202.751 -50.8986 203.278 -50.73C205.516 -50.2587 207.838 -49.5597 209.907 -48.5619C210.326 -48.4054 210.828 -48.0213 210.887 -47.5781C210.839 -47.1471 210.479 -46.8604 210.131 -46.6815C209.208 -46.2402 208.011 -46.2665 207.078 -46.6993C206.36 -47.1078 205.87 -47.5997 205.14 -47.9005C204.41 -48.2012 203.392 -47.8799 203.307 -47.1257C203.234 -46.4792 203.831 -45.9751 204.429 -45.4711C205.732 -44.4507 206.676 -43.1437 207.392 -41.7533C207.749 -41.0581 208 -40.3751 208.477 -39.7755C208.955 -39.1758 209.793 -38.8629 210.488 -39.2208C210.836 -39.3998 210.98 -39.7108 211.22 -39.9019C212.191 -40.7742 213.533 -41.059 214.85 -41.1283C215.186 -41.1995 215.617 -41.1508 215.928 -41.0065C217.268 -40.3094 215.861 -37.5221 217.213 -36.9327C218.051 -36.6198 218.927 -37.612 219.813 -37.73C220.7 -37.8481 221.488 -37.1041 222.338 -36.8989C223.93 -36.5007 225.393 -37.863 226.997 -37.5725C228.614 -37.3898 230.263 -35.5665 231.665 -36.3901C232.194 -37.2033 231.441 -38.2705 230.628 -38.7989C229.827 -39.4351 228.918 -40.0834 229.028 -41.0531C230.548 -40.9903 231.693 -38.5693 233.179 -39.1652C233.527 -39.3441 233.779 -39.643 234.139 -39.9297C234.726 -40.2998 235.373 -40.2267 236.007 -40.0458C237.503 -39.7675 239.012 -39.597 240.508 -39.3187C240.939 -39.27 241.262 -39.2334 241.705 -39.2925C242.604 -39.5182 243.061 -40.6669 243.278 -41.6244C243.496 -42.582 243.546 -43.9948 242.481 -44.2244C241.942 -44.2853 241.463 -43.903 240.936 -44.0717C240.182 -44.157 239.873 -45.2831 240.269 -45.8931C240.665 -46.503 241.373 -46.9686 242.068 -47.3265C242.005 -45.8059 243.475 -44.3302 244.996 -44.2675C245.534 -44.2065 245.99 -44.3733 246.409 -44.2168C247.366 -43.9994 248.023 -43.0522 247.806 -42.0947C247.757 -41.6637 247.493 -41.2571 247.456 -40.9339C247.407 -40.5029 247.574 -40.0475 248.005 -39.9988C248.544 -39.9379 248.845 -40.6678 249.324 -41.05C250.032 -41.5157 250.94 -40.8673 251.191 -40.1843C251.429 -39.3935 251.116 -38.5559 250.815 -37.8261C251.618 -38.1718 252.528 -38.5053 253.331 -38.851C254.468 -38.286 253.051 -36.3729 253.684 -35.2101C254.054 -34.6227 254.916 -34.5252 255.55 -34.3444C256.304 -34.2591 257.13 -33.8384 257.044 -33.0842C256.947 -32.2223 255.725 -32.033 255.006 -31.4596C254.046 -30.6951 254.307 -29.138 254.831 -27.9874C254.915 -27.7598 255.106 -27.5199 255.309 -27.3878C255.62 -27.2435 255.956 -27.3147 256.303 -27.4937C257.561 -28.0061 258.391 -29.5492 258.106 -30.8909C258.764 -30.9255 259.315 -30.9724 259.974 -31.007C260.131 -31.4258 260.287 -31.8446 260.443 -32.2634C260.742 -32.0114 261.149 -31.7472 261.448 -31.4952C262.153 -30.9789 263.16 -31.1925 263.625 -30.4851C263.995 -29.8977 264.233 -29.1069 264.723 -28.615C264.819 -28.4951 264.927 -28.4829 265.034 -28.4707C265.358 -28.4342 265.622 -28.8408 265.551 -29.1762C265.587 -29.4995 265.408 -29.8471 265.66 -30.1459C265.912 -30.4448 266.248 -30.516 266.546 -30.264C266.858 -30.1197 267.036 -29.7721 267.228 -29.5322C267.49 -28.957 267.752 -28.3817 267.895 -27.7108C267.966 -27.3754 268.037 -27.04 268.228 -26.8002C268.885 -25.8529 270.814 -26.5078 271.459 -25.4528C271.542 -25.2251 271.625 -24.9975 271.829 -24.8654C271.936 -24.8532 272.152 -24.8288 272.367 -24.8045C272.691 -24.7679 272.977 -24.4081 272.941 -24.0849C273.012 -23.7495 272.975 -23.4262 272.939 -23.103C272.949 -22.2289 273.295 -21.4259 274 -20.9097C274.503 -20.5255 275.232 -20.2248 275.615 -19.7451C275.889 -19.2775 276.056 -18.8222 276.331 -18.3547C276.605 -17.8871 277.227 -17.5986 277.382 -17.0355C277.644 -16.4602 277.355 -15.8381 277.067 -15.216C276.79 -14.7016 276.299 -14.2116 276.226 -13.5651C275.839 -12.0811 277.07 -10.4143 276.061 -9.21879C275.557 -8.62104 274.671 -8.50302 274.071 -8.0252C273.22 -7.24851 273.397 -5.91902 272.952 -4.87811C272.808 -4.56706 272.663 -4.25599 272.328 -4.18479C272.208 -4.08922 271.992 -4.11359 271.765 -4.03021C271.189 -3.76788 270.996 -3.02584 271.259 -2.45057C271.521 -1.8753 272.131 -1.47898 272.753 -1.1904C273.375 -0.901817 274.022 -0.828726 274.524 -0.444582C275.349 -0.0238941 275.91 0.803402 276.484 1.52296C276.962 2.1226 277.511 3.05766 277.007 3.6554C275.809 3.62915 274.742 4.38147 274.189 5.4102C274.045 5.72125 274.008 6.04449 273.661 6.22344C273.193 6.49795 272.679 6.22156 272.14 6.16065C271.374 6.18312 270.953 7.00853 270.258 7.36642C269.551 7.83205 268.569 7.83016 267.827 7.63715C266.977 7.43195 266.259 7.02345 265.397 6.926C263.805 6.52778 262.021 6.8716 260.463 7.13204C261.049 7.74386 260.844 8.59364 260.543 9.32349C260.23 10.1611 259.618 10.7467 259.102 11.4522C258.718 11.9543 258.417 12.6842 258.692 13.1517C258.871 13.4993 259.385 13.7757 259.564 14.1233C260.125 14.9506 259.129 16.0383 259.235 17.0324C259.341 18.0265 260.357 18.687 261.303 19.0122C263.517 19.699 265.816 19.6315 268.115 19.5641C269.097 19.566 270.331 19.269 270.656 18.3237C270.812 17.9049 270.753 17.4617 270.682 17.1263C270.731 16.6953 270.995 16.2887 271.331 16.2175C271.546 16.2418 271.762 16.2662 271.965 16.3983C272.479 16.6747 272.994 16.9511 273.412 17.1076C273.723 17.2519 274.13 17.5161 274.466 17.4449C275.124 17.4102 275.653 16.597 275.51 15.9262C275.476 15.2675 274.998 14.6679 274.615 14.1882C274.125 13.6963 273.635 13.2044 273.373 12.6291C273.194 12.2815 273.16 11.6229 273.507 11.4439C273.867 11.1572 274.381 11.4336 274.788 11.6979C275.996 12.5982 276.988 13.4743 278.063 14.578C278.159 14.6979 278.254 14.8178 278.47 14.8422C278.578 14.8544 278.793 14.8788 278.913 14.7832C279.476 14.6286 280.051 14.3663 280.59 14.4272C281.56 14.5368 281.977 15.6752 282.802 16.0959C283.52 16.5044 284.61 16.5184 284.967 17.2136C285.146 17.5612 285.098 17.9922 285.409 18.1365C285.612 18.2686 285.84 18.1852 286.055 18.2096C286.941 18.0916 287.862 18.6322 288.316 19.4473C288.59 19.9148 288.637 20.4657 289.164 20.6344C289.989 21.0551 290.877 19.9551 291.752 19.9449C292.853 19.8512 293.701 21.0383 294.695 20.9324C293.844 21.7091 294.092 23.374 295.121 23.9268C295.743 24.2154 296.82 24.3372 296.735 25.0914C296.711 25.3069 296.698 25.4147 296.686 25.5224C296.745 25.9656 297.392 26.0387 297.835 25.9796C301.033 25.6864 304.157 26.0397 307.221 26.9317C306.885 27.0029 307.052 27.4582 307.243 27.6981C307.435 27.9379 307.746 28.0822 308.069 28.1188C309.325 28.5882 310.594 28.9499 311.85 29.4193C312.592 29.6123 313.214 29.9009 313.969 29.9861C315.597 30.0611 317.095 29.3575 318.736 29.3247C320.592 29.3163 322.434 30.3976 324.29 30.3892C324.948 30.3545 325.499 30.3077 325.979 29.9254C326.566 29.5554 326.891 28.61 326.401 28.1181Z" stroke="#ADADFF" stroke-width="0.349522" stroke-miterlimit="10"/>
<path d="M221.17 22.659C221.156 23.7486 221.034 24.826 221.355 25.8445C221.51 26.4076 221.772 26.9828 221.711 27.5216C221.709 28.5034 220.845 29.3879 220.221 30.0812C219.478 30.8701 218.937 31.7911 218.492 32.832C218.36 33.0353 218.323 33.3585 218.407 33.5862C218.49 33.8139 218.801 33.9581 219.124 33.9947C220.094 34.1043 221.017 33.663 221.832 33.2096C222.743 32.8761 223.761 32.5547 224.574 33.0831C225.388 33.6116 225.589 34.7256 225.935 35.5285C226.472 36.5713 227.476 37.3396 228.649 37.5813C229.834 37.7153 231.08 37.3106 231.633 36.2819C232.017 35.7797 232.09 35.1332 232.271 34.4989C232.608 33.4459 232.946 32.3928 233.391 31.3519C234.112 29.7966 235.061 28.1579 236.751 27.6942C237.985 27.3972 239.253 27.7589 240.377 28.4316C241.191 28.96 241.979 29.704 242.925 30.0291C243.655 30.3298 244.421 30.3074 245.068 30.3805C246.037 30.4901 247.019 30.492 247.989 30.6016C248.743 30.6869 249.617 30.6766 250.217 30.1988C250.816 29.7209 251.034 28.7634 250.904 27.9848C250.773 27.2063 250.308 26.4989 249.842 25.7915C249.651 25.5516 249.46 25.3118 249.257 25.1797C248.946 25.0354 248.61 25.1066 248.382 25.19C247.58 25.5357 246.86 26.1091 245.949 26.4426C245.146 26.7883 243.961 26.6543 243.495 25.9469C243.304 25.7071 243.353 25.2761 243.282 24.9407C243.129 23.3957 243.001 21.6352 241.793 20.7348C241.1 20.1109 240.13 20.0012 239.173 19.7838C235.546 19.0464 232.305 16.8249 230.131 13.8511C229.845 13.4914 229.57 13.0238 229.044 12.8552C228.098 12.5301 227.222 13.5222 226.24 13.5204C225.043 13.4941 224.447 12.0081 224.461 10.9185C224.427 10.2598 224.5 9.61338 224.225 9.14586C223.76 8.43848 222.347 8.38787 222.034 9.22546C221.625 9.94314 221.945 11.9434 221.847 12.8054C221.673 16.2776 221.308 19.51 221.17 22.659Z" stroke="#ADADFF" stroke-width="0.349522" stroke-miterlimit="10"/>
</g>
<path d="M259.904 198.426C259.683 200.379 257.912 201.79 255.96 201.569C254.007 201.349 252.596 199.578 252.817 197.625C253.037 195.672 254.808 194.261 256.761 194.482C258.714 194.703 260.125 196.474 259.904 198.426Z" fill="#ADADFF"/>
</g>
</g>
<path d="M255.993 177.958C252.288 177.958 249.274 181.077 249.274 184.911C249.274 189.669 255.287 196.653 255.543 196.948C255.784 197.226 256.203 197.225 256.444 196.948C256.7 196.653 262.713 189.669 262.713 184.911C262.713 181.077 259.698 177.958 255.993 177.958ZM255.993 188.409C254.129 188.409 252.613 186.84 252.613 184.911C252.613 182.982 254.129 181.413 255.993 181.413C257.857 181.413 259.374 182.982 259.374 184.911C259.374 186.84 257.857 188.409 255.993 188.409Z" fill="#32325F"/>
<path d="M184.674 153.525H186.816L190.065 162.752L189.754 162.631L192.207 156.324L193.054 158.829L189.667 166.587L184.674 153.525ZM190.756 153.525H192.587L196.147 162.596L195.784 162.527L198.825 153.525H200.795L195.888 166.553L190.756 153.525ZM204.25 166.173C203.57 166.173 202.954 166.035 202.401 165.758C201.848 165.47 201.41 165.044 201.088 164.479C200.765 163.915 200.604 163.218 200.604 162.389C200.604 161.571 200.771 160.868 201.105 160.281C201.451 159.693 201.9 159.244 202.453 158.933C203.017 158.611 203.628 158.449 204.284 158.449C204.976 158.449 205.54 158.599 205.978 158.899C206.427 159.187 206.778 159.526 207.032 159.918L206.911 160.194L207.083 158.76H208.725V166H206.945V164.186L207.135 164.618C207.089 164.71 206.991 164.842 206.842 165.015C206.692 165.176 206.49 165.349 206.237 165.533C205.995 165.718 205.707 165.873 205.373 166C205.05 166.115 204.676 166.173 204.25 166.173ZM204.734 164.721C205.114 164.721 205.454 164.652 205.753 164.514C206.053 164.376 206.306 164.18 206.513 163.927C206.721 163.673 206.865 163.374 206.945 163.028V161.525C206.853 161.202 206.698 160.926 206.479 160.696C206.26 160.454 205.995 160.264 205.684 160.125C205.384 159.987 205.05 159.918 204.682 159.918C204.267 159.918 203.887 160.022 203.541 160.229C203.196 160.425 202.919 160.701 202.712 161.058C202.505 161.415 202.401 161.83 202.401 162.302C202.401 162.752 202.505 163.161 202.712 163.529C202.931 163.898 203.219 164.192 203.576 164.41C203.933 164.618 204.319 164.721 204.734 164.721ZM212.143 155.581H213.922V158.778H215.857V160.177H213.922V166H212.143V160.177H210.864V158.778H212.143V155.581ZM221.183 166.173C220.342 166.173 219.622 166.012 219.023 165.689C218.424 165.355 217.963 164.9 217.641 164.324C217.318 163.737 217.157 163.068 217.157 162.32C217.157 161.606 217.335 160.96 217.693 160.385C218.061 159.797 218.551 159.331 219.161 158.985C219.783 158.639 220.469 158.467 221.217 158.467C222.185 158.467 222.986 158.749 223.619 159.313C224.264 159.878 224.696 160.667 224.915 161.68L219.023 163.719L218.608 162.683L223.325 160.989L222.963 161.214C222.824 160.857 222.605 160.546 222.306 160.281C222.006 160.004 221.598 159.866 221.079 159.866C220.664 159.866 220.29 159.97 219.956 160.177C219.634 160.373 219.374 160.649 219.179 161.007C218.994 161.352 218.902 161.761 218.902 162.233C218.902 162.717 219 163.143 219.196 163.512C219.403 163.869 219.68 164.151 220.025 164.359C220.382 164.566 220.78 164.67 221.217 164.67C221.528 164.67 221.822 164.612 222.099 164.497C222.387 164.382 222.657 164.238 222.911 164.065L223.723 165.378C223.343 165.62 222.928 165.816 222.479 165.965C222.041 166.104 221.609 166.173 221.183 166.173ZM228.48 158.76L228.653 160.834L228.567 160.557C228.762 160.12 229.039 159.745 229.396 159.434C229.753 159.123 230.122 158.887 230.502 158.726C230.893 158.553 231.222 158.467 231.487 158.467L231.4 160.229C230.847 160.194 230.364 160.298 229.949 160.54C229.546 160.782 229.229 161.104 228.999 161.508C228.768 161.911 228.653 162.343 228.653 162.803V166H226.891V158.76H228.48ZM233.505 152.575H235.285V166H233.505V152.575ZM237.371 162.302C237.371 161.577 237.544 160.926 237.89 160.35C238.235 159.762 238.713 159.302 239.324 158.968C239.934 158.634 240.631 158.467 241.415 158.467C242.209 158.467 242.906 158.634 243.505 158.968C244.104 159.302 244.565 159.762 244.888 160.35C245.222 160.926 245.389 161.577 245.389 162.302C245.389 163.028 245.222 163.685 244.888 164.272C244.565 164.86 244.104 165.326 243.505 165.672C242.906 166.006 242.204 166.173 241.397 166.173C240.625 166.173 239.934 166.017 239.324 165.706C238.725 165.395 238.247 164.952 237.89 164.376C237.544 163.788 237.371 163.097 237.371 162.302ZM239.168 162.32C239.168 162.769 239.266 163.178 239.462 163.546C239.658 163.904 239.923 164.192 240.257 164.41C240.591 164.618 240.965 164.721 241.38 164.721C241.806 164.721 242.186 164.618 242.52 164.41C242.854 164.192 243.114 163.904 243.298 163.546C243.494 163.178 243.592 162.769 243.592 162.32C243.592 161.87 243.494 161.467 243.298 161.11C243.114 160.753 242.854 160.465 242.52 160.246C242.186 160.027 241.806 159.918 241.38 159.918C240.954 159.918 240.574 160.027 240.24 160.246C239.906 160.465 239.641 160.759 239.445 161.127C239.26 161.485 239.168 161.882 239.168 162.32ZM246.871 162.302C246.871 161.577 247.044 160.926 247.39 160.35C247.735 159.762 248.213 159.302 248.824 158.968C249.434 158.634 250.131 158.467 250.914 158.467C251.709 158.467 252.406 158.634 253.005 158.968C253.604 159.302 254.065 159.762 254.387 160.35C254.721 160.926 254.888 161.577 254.888 162.302C254.888 163.028 254.721 163.685 254.387 164.272C254.065 164.86 253.604 165.326 253.005 165.672C252.406 166.006 251.703 166.173 250.897 166.173C250.125 166.173 249.434 166.017 248.824 165.706C248.225 165.395 247.747 164.952 247.39 164.376C247.044 163.788 246.871 163.097 246.871 162.302ZM248.668 162.32C248.668 162.769 248.766 163.178 248.962 163.546C249.158 163.904 249.423 164.192 249.757 164.41C250.091 164.618 250.465 164.721 250.88 164.721C251.306 164.721 251.686 164.618 252.02 164.41C252.354 164.192 252.613 163.904 252.798 163.546C252.993 163.178 253.091 162.769 253.091 162.32C253.091 161.87 252.993 161.467 252.798 161.11C252.613 160.753 252.354 160.465 252.02 160.246C251.686 160.027 251.306 159.918 250.88 159.918C250.454 159.918 250.073 160.027 249.739 160.246C249.405 160.465 249.14 160.759 248.945 161.127C248.76 161.485 248.668 161.882 248.668 162.32ZM258.565 164.479C258.312 165.09 258.058 165.695 257.805 166.294C257.563 166.893 257.315 167.497 257.062 168.108H255.628C255.858 167.497 256.083 166.893 256.302 166.294C256.521 165.695 256.745 165.09 256.976 164.479H258.565ZM265.623 159.745C265.623 158.881 265.785 158.063 266.107 157.292C266.441 156.52 266.902 155.835 267.489 155.236C268.077 154.637 268.756 154.17 269.528 153.836C270.3 153.49 271.129 153.318 272.016 153.318C272.892 153.318 273.715 153.49 274.487 153.836C275.259 154.17 275.944 154.637 276.543 155.236C277.142 155.835 277.609 156.52 277.943 157.292C278.277 158.063 278.444 158.881 278.444 159.745C278.444 160.632 278.277 161.462 277.943 162.233C277.609 163.005 277.142 163.685 276.543 164.272C275.956 164.86 275.27 165.32 274.487 165.654C273.715 165.977 272.892 166.138 272.016 166.138C271.129 166.138 270.3 165.977 269.528 165.654C268.756 165.332 268.077 164.883 267.489 164.307C266.902 163.719 266.441 163.04 266.107 162.268C265.785 161.485 265.623 160.644 265.623 159.745ZM267.524 159.745C267.524 160.39 267.639 160.995 267.869 161.559C268.111 162.112 268.44 162.602 268.854 163.028C269.269 163.443 269.747 163.771 270.288 164.013C270.841 164.243 271.435 164.359 272.068 164.359C272.69 164.359 273.272 164.243 273.813 164.013C274.355 163.771 274.827 163.443 275.23 163.028C275.645 162.602 275.967 162.112 276.198 161.559C276.428 160.995 276.543 160.39 276.543 159.745C276.543 159.1 276.422 158.501 276.18 157.948C275.95 157.384 275.628 156.888 275.213 156.462C274.81 156.036 274.332 155.702 273.779 155.46C273.237 155.218 272.656 155.097 272.034 155.097C271.389 155.097 270.795 155.218 270.254 155.46C269.713 155.702 269.234 156.036 268.82 156.462C268.405 156.888 268.083 157.384 267.852 157.948C267.633 158.513 267.524 159.112 267.524 159.745ZM282.391 158.76L282.547 160.419L282.477 160.194C282.719 159.676 283.094 159.261 283.601 158.95C284.107 158.628 284.706 158.467 285.398 158.467C286.077 158.467 286.636 158.668 287.074 159.071C287.523 159.475 287.753 159.999 287.765 160.644V166H285.985V161.266C285.973 160.897 285.864 160.598 285.657 160.367C285.449 160.125 285.127 159.999 284.689 159.987C284.297 159.987 283.94 160.108 283.618 160.35C283.295 160.58 283.042 160.897 282.858 161.3C282.673 161.703 282.581 162.17 282.581 162.7V166H280.801V158.76H282.391ZM291.178 155.581H292.958V158.778H294.893V160.177H292.958V166H291.178V160.177H289.899V158.778H291.178V155.581ZM299.838 166.173C299.158 166.173 298.542 166.035 297.989 165.758C297.436 165.47 296.999 165.044 296.676 164.479C296.354 163.915 296.192 163.218 296.192 162.389C296.192 161.571 296.359 160.868 296.693 160.281C297.039 159.693 297.488 159.244 298.041 158.933C298.606 158.611 299.216 158.449 299.873 158.449C300.564 158.449 301.128 158.599 301.566 158.899C302.015 159.187 302.367 159.526 302.62 159.918L302.499 160.194L302.672 158.76H304.313V166H302.534V164.186L302.724 164.618C302.678 164.71 302.58 164.842 302.43 165.015C302.28 165.176 302.079 165.349 301.825 165.533C301.583 165.718 301.295 165.873 300.961 166C300.639 166.115 300.264 166.173 299.838 166.173ZM300.322 164.721C300.702 164.721 301.042 164.652 301.341 164.514C301.641 164.376 301.894 164.18 302.102 163.927C302.309 163.673 302.453 163.374 302.534 163.028V161.525C302.441 161.202 302.286 160.926 302.067 160.696C301.848 160.454 301.583 160.264 301.272 160.125C300.973 159.987 300.639 159.918 300.27 159.918C299.855 159.918 299.475 160.022 299.13 160.229C298.784 160.425 298.508 160.701 298.3 161.058C298.093 161.415 297.989 161.83 297.989 162.302C297.989 162.752 298.093 163.161 298.3 163.529C298.519 163.898 298.807 164.192 299.164 164.41C299.521 164.618 299.907 164.721 300.322 164.721ZM308.629 158.76L308.802 160.834L308.716 160.557C308.912 160.12 309.188 159.745 309.545 159.434C309.902 159.123 310.271 158.887 310.651 158.726C311.043 158.553 311.371 158.467 311.636 158.467L311.549 160.229C310.996 160.194 310.513 160.298 310.098 160.54C309.695 160.782 309.378 161.104 309.148 161.508C308.917 161.911 308.802 162.343 308.802 162.803V166H307.04V158.76H308.629ZM313.654 158.76H315.434V166H313.654V158.76ZM313.55 156.169C313.55 155.892 313.66 155.662 313.879 155.477C314.098 155.293 314.334 155.201 314.587 155.201C314.852 155.201 315.088 155.293 315.296 155.477C315.503 155.662 315.607 155.892 315.607 156.169C315.607 156.445 315.503 156.675 315.296 156.86C315.088 157.032 314.852 157.119 314.587 157.119C314.334 157.119 314.098 157.032 313.879 156.86C313.66 156.675 313.55 156.445 313.55 156.169ZM317.52 162.302C317.52 161.577 317.693 160.926 318.039 160.35C318.384 159.762 318.862 159.302 319.473 158.968C320.083 158.634 320.78 158.467 321.564 158.467C322.358 158.467 323.055 158.634 323.654 158.968C324.253 159.302 324.714 159.762 325.037 160.35C325.371 160.926 325.538 161.577 325.538 162.302C325.538 163.028 325.371 163.685 325.037 164.272C324.714 164.86 324.253 165.326 323.654 165.672C323.055 166.006 322.353 166.173 321.546 166.173C320.775 166.173 320.083 166.017 319.473 165.706C318.874 165.395 318.396 164.952 318.039 164.376C317.693 163.788 317.52 163.097 317.52 162.302ZM319.317 162.32C319.317 162.769 319.415 163.178 319.611 163.546C319.807 163.904 320.072 164.192 320.406 164.41C320.74 164.618 321.114 164.721 321.529 164.721C321.955 164.721 322.335 164.618 322.669 164.41C323.003 164.192 323.263 163.904 323.447 163.546C323.643 163.178 323.741 162.769 323.741 162.32C323.741 161.87 323.643 161.467 323.447 161.11C323.263 160.753 323.003 160.465 322.669 160.246C322.335 160.027 321.955 159.918 321.529 159.918C321.103 159.918 320.723 160.027 320.389 160.246C320.055 160.465 319.79 160.759 319.594 161.127C319.41 161.485 319.317 161.882 319.317 162.32Z" fill="#32325F"/>
</svg>
