<svg width="75" height="75" viewBox="0 0 75 75" fill="none" xmlns="http://www.w3.org/2000/svg">
<mask id="path-1-inside-1_116_23" fill="white">
<path fill-rule="evenodd" clip-rule="evenodd" d="M38.8212 0.69429C39.0185 0.301165 39.4113 0.104603 39.8044 0.104603C62.2122 -1.86102 77.7409 24.2818 74.5953 44.3311C71.6471 63.987 51.4016 77.3539 32.1378 74.4051C12.0885 71.4564 -2.26058 52.1936 0.29473 32.1442C2.65412 13.0774 19.5581 -2.0579 38.8212 0.69429ZM38.6333 1.67949C38.6989 1.68142 38.7645 1.68352 38.83 1.6858C38.827 1.6829 38.8242 1.68 38.8212 1.6771C38.7586 1.67775 38.6959 1.67855 38.6333 1.67949Z"/>
</mask>
<path fill-rule="evenodd" clip-rule="evenodd" d="M38.8212 0.69429C39.0185 0.301165 39.4113 0.104603 39.8044 0.104603C62.2122 -1.86102 77.7409 24.2818 74.5953 44.3311C71.6471 63.987 51.4016 77.3539 32.1378 74.4051C12.0885 71.4564 -2.26058 52.1936 0.29473 32.1442C2.65412 13.0774 19.5581 -2.0579 38.8212 0.69429ZM38.6333 1.67949C38.6989 1.68142 38.7645 1.68352 38.83 1.6858C38.827 1.6829 38.8242 1.68 38.8212 1.6771C38.7586 1.67775 38.6959 1.67855 38.6333 1.67949Z" fill="#EFEBFF"/>
<path d="M39.8044 0.104603V1.1046H39.8482L39.8918 1.10078L39.8044 0.104603ZM38.8212 0.69429L38.6798 1.68424L39.3924 1.78604L39.7151 1.14267L38.8212 0.69429ZM74.5953 44.3311L73.6073 44.1761L73.6063 44.1828L74.5953 44.3311ZM32.1378 74.4051L32.2891 73.4166L32.2833 73.4158L32.1378 74.4051ZM0.29473 32.1442L1.28671 32.2707L1.28716 32.267L0.29473 32.1442ZM38.6333 1.67949L38.6183 0.679605L38.604 2.67906L38.6333 1.67949ZM38.83 1.6858L38.7951 2.6852L41.3335 2.77362L39.5368 0.978406L38.83 1.6858ZM38.8212 1.6771L39.5281 0.969776L39.231 0.672786L38.8108 0.677155L38.8212 1.6771ZM39.8044 -0.895397C39.0873 -0.895397 38.3173 -0.531356 37.9274 0.245908L39.7151 1.14267C39.7193 1.13428 39.7227 1.13039 39.7245 1.12851C39.7265 1.12638 39.7298 1.12352 39.7355 1.12027C39.7481 1.11303 39.7721 1.1046 39.8044 1.1046V-0.895397ZM75.5832 44.4861C77.2014 34.172 74.0192 22.3634 67.5958 13.3806C61.1647 4.38705 51.3716 -1.91392 39.717 -0.891572L39.8918 1.10078C50.645 0.157501 59.8201 5.94511 65.9689 14.5439C72.1254 23.1534 75.1347 34.4409 73.6073 44.1761L75.5832 44.4861ZM31.9865 75.3936C51.7422 78.4177 72.5459 64.7363 75.5842 44.4794L73.6063 44.1828C70.7483 63.2377 51.0609 76.2901 32.2891 73.4166L31.9865 75.3936ZM-0.697246 32.0178C-3.32025 52.5983 11.3948 72.3651 31.9923 75.3945L32.2833 73.4158C12.7821 70.5476 -1.20091 51.7889 1.28671 32.2707L-0.697246 32.0178ZM38.9627 -0.295658C19.0608 -3.13911 1.71942 12.4881 -0.697701 32.0214L1.28716 32.267C3.58882 13.6667 20.0555 -0.976694 38.6798 1.68424L38.9627 -0.295658ZM38.604 2.67906C38.6677 2.68093 38.7315 2.68298 38.7951 2.6852L38.8648 0.68641C38.7974 0.684065 38.7301 0.681902 38.6627 0.679922L38.604 2.67906ZM38.1144 2.38443C38.1158 2.38586 38.121 2.39109 38.1231 2.3932L39.5368 0.978406C39.5331 0.974712 39.5325 0.974139 39.5281 0.969776L38.1144 2.38443ZM38.6484 2.67938C38.7094 2.67846 38.7705 2.67768 38.8316 2.67705L38.8108 0.677155C38.7466 0.677822 38.6824 0.678639 38.6183 0.679605L38.6484 2.67938Z" fill="#EFEBFF" mask="url(#path-1-inside-1_116_23)"/>
<path d="M47.0564 41.4423C46.3808 40.7389 45.5659 40.3628 44.7023 40.3628C43.8456 40.3628 43.0237 40.7319 42.3203 41.4354L40.1194 43.6293C39.9383 43.5318 39.7572 43.4412 39.5831 43.3507C39.3324 43.2253 39.0956 43.1069 38.8936 42.9816C36.832 41.6722 34.9584 39.9658 33.1615 37.7579C32.2909 36.6575 31.7058 35.7311 31.281 34.7909C31.8521 34.2685 32.3814 33.7252 32.8968 33.2029C33.0918 33.0079 33.2868 32.8059 33.4819 32.6109C34.9445 31.1482 34.9445 29.2538 33.4819 27.7912L31.5805 25.8898C31.3645 25.6738 31.1417 25.451 30.9327 25.2281C30.5148 24.7963 30.076 24.3505 29.6233 23.9326C28.9477 23.264 28.1398 22.9088 27.2901 22.9088C26.4404 22.9088 25.6185 23.264 24.922 23.9326L24.9081 23.9465L22.54 26.3355C21.6485 27.227 21.1401 28.3135 21.0287 29.5742C20.8615 31.6079 21.4605 33.5024 21.9202 34.7421C23.0485 37.7858 24.734 40.6065 27.2483 43.6293C30.2989 47.2719 33.9694 50.1484 38.1623 52.1752C39.7642 52.9344 41.9024 53.8328 44.2914 53.9861C44.4376 53.993 44.5908 54 44.7301 54C46.339 54 47.6902 53.4219 48.7489 52.2727C48.7558 52.2588 48.7698 52.2518 48.7767 52.2379C49.1389 51.7991 49.5568 51.4021 49.9956 50.9772C50.2951 50.6917 50.6015 50.3922 50.901 50.0788C51.5906 49.3614 51.9527 48.5256 51.9527 47.6689C51.9527 46.8053 51.5836 45.9765 50.8801 45.28L47.0564 41.4423ZM49.5498 48.7763C49.5429 48.7833 49.5429 48.7763 49.5498 48.7763C49.2782 49.0689 48.9996 49.3335 48.7001 49.6261C48.2474 50.0579 47.7877 50.5106 47.3559 51.019C46.6525 51.7712 45.8236 52.1264 44.7371 52.1264C44.6326 52.1264 44.5212 52.1264 44.4167 52.1195C42.3482 51.9872 40.4258 51.1792 38.9841 50.4897C35.042 48.5813 31.5805 45.872 28.704 42.4383C26.3289 39.5757 24.7409 36.9291 23.6892 34.0874C23.0415 32.3532 22.8047 31.002 22.9092 29.7274C22.9788 28.9125 23.2922 28.2369 23.8703 27.6588L26.2454 25.2838C26.5866 24.9634 26.9488 24.7893 27.304 24.7893C27.7428 24.7893 28.098 25.054 28.3209 25.2768L28.3418 25.2977C28.7666 25.6947 29.1706 26.1057 29.5955 26.5444C29.8114 26.7673 30.0342 26.9902 30.2571 27.22L32.1585 29.1215C32.8968 29.8597 32.8968 30.5423 32.1585 31.2806C31.9566 31.4825 31.7615 31.6845 31.5596 31.8795C30.9745 32.4785 30.4173 33.0357 29.8114 33.579C29.7974 33.5929 29.7835 33.5999 29.7765 33.6138C29.1776 34.2128 29.289 34.7978 29.4144 35.1948L29.4353 35.2575C29.9298 36.4555 30.6263 37.5838 31.6849 38.928L31.6919 38.935C33.6142 41.303 35.641 43.1487 37.8767 44.5626C38.1623 44.7437 38.4548 44.8899 38.7334 45.0292C38.9841 45.1546 39.2209 45.273 39.4229 45.3984C39.4508 45.4123 39.4786 45.4332 39.5065 45.4471C39.7433 45.5655 39.9662 45.6213 40.196 45.6213C40.7741 45.6213 41.1363 45.2591 41.2547 45.1407L43.6367 42.7587C43.8735 42.5219 44.2496 42.2363 44.6884 42.2363C45.1202 42.2363 45.4754 42.508 45.6913 42.7448L45.7052 42.7587L49.5429 46.5963C50.2603 47.3068 50.2603 48.0381 49.5498 48.7763ZM38.81 28.8498C40.6348 29.1563 42.2924 30.0199 43.6158 31.3432C44.9391 32.6666 45.7958 34.3242 46.1092 36.149C46.1858 36.6087 46.5828 36.9291 47.0355 36.9291C47.0912 36.9291 47.14 36.9221 47.1957 36.9152C47.7111 36.8316 48.0524 36.344 47.9688 35.8286C47.5927 33.6208 46.548 31.6079 44.953 30.013C43.3581 28.418 41.3452 27.3733 39.1373 26.9972C38.6219 26.9136 38.1414 27.2549 38.0508 27.7633C37.9603 28.2717 38.2946 28.7662 38.81 28.8498ZM53.9377 35.557C53.3178 31.9213 51.6045 28.613 48.9718 25.9803C46.339 23.3476 43.0307 21.6342 39.395 21.0143C38.8866 20.9238 38.406 21.272 38.3155 21.7805C38.2319 22.2959 38.5732 22.7764 39.0886 22.867C42.3342 23.4172 45.2943 24.9565 47.6484 27.3036C50.0026 29.6577 51.5348 32.6178 52.0851 35.8635C52.1617 36.3231 52.5587 36.6435 53.0114 36.6435C53.0671 36.6435 53.1159 36.6366 53.1716 36.6296C53.68 36.553 54.0283 36.0654 53.9377 35.557Z" fill="#32325F"/>
</svg>
