<svg width="75" height="75" viewBox="0 0 75 75" fill="none" xmlns="http://www.w3.org/2000/svg">
<mask id="path-1-inside-1_120_62" fill="white">
<path fill-rule="evenodd" clip-rule="evenodd" d="M38.8212 0.69429C39.0185 0.301165 39.4113 0.104603 39.8044 0.104603C62.2122 -1.86102 77.7409 24.2818 74.5953 44.3311C71.6471 63.987 51.4016 77.3539 32.1378 74.4051C12.0885 71.4564 -2.26058 52.1936 0.29473 32.1442C2.65412 13.0774 19.5581 -2.0579 38.8212 0.69429ZM38.6333 1.67949C38.6989 1.68142 38.7645 1.68352 38.83 1.6858C38.827 1.6829 38.8242 1.68 38.8212 1.6771C38.7586 1.67775 38.6959 1.67855 38.6333 1.67949Z"/>
</mask>
<path fill-rule="evenodd" clip-rule="evenodd" d="M38.8212 0.69429C39.0185 0.301165 39.4113 0.104603 39.8044 0.104603C62.2122 -1.86102 77.7409 24.2818 74.5953 44.3311C71.6471 63.987 51.4016 77.3539 32.1378 74.4051C12.0885 71.4564 -2.26058 52.1936 0.29473 32.1442C2.65412 13.0774 19.5581 -2.0579 38.8212 0.69429ZM38.6333 1.67949C38.6989 1.68142 38.7645 1.68352 38.83 1.6858C38.827 1.6829 38.8242 1.68 38.8212 1.6771C38.7586 1.67775 38.6959 1.67855 38.6333 1.67949Z" fill="#EFEBFF"/>
<path d="M39.8044 0.104603V1.1046H39.8482L39.8918 1.10078L39.8044 0.104603ZM38.8212 0.69429L38.6798 1.68424L39.3924 1.78604L39.7151 1.14267L38.8212 0.69429ZM74.5953 44.3311L73.6073 44.1761L73.6063 44.1828L74.5953 44.3311ZM32.1378 74.4051L32.2891 73.4166L32.2833 73.4158L32.1378 74.4051ZM0.29473 32.1442L1.28671 32.2707L1.28716 32.267L0.29473 32.1442ZM38.6333 1.67949L38.6183 0.679605L38.604 2.67906L38.6333 1.67949ZM38.83 1.6858L38.7951 2.6852L41.3335 2.77362L39.5368 0.978406L38.83 1.6858ZM38.8212 1.6771L39.5281 0.969776L39.231 0.672786L38.8108 0.677155L38.8212 1.6771ZM39.8044 -0.895397C39.0873 -0.895397 38.3173 -0.531356 37.9274 0.245908L39.7151 1.14267C39.7193 1.13428 39.7227 1.13039 39.7245 1.12851C39.7265 1.12638 39.7298 1.12352 39.7355 1.12027C39.7481 1.11303 39.7721 1.1046 39.8044 1.1046V-0.895397ZM75.5832 44.4861C77.2014 34.172 74.0192 22.3634 67.5958 13.3806C61.1647 4.38705 51.3716 -1.91392 39.717 -0.891572L39.8918 1.10078C50.645 0.157501 59.8201 5.94511 65.9689 14.5439C72.1254 23.1534 75.1347 34.4409 73.6073 44.1761L75.5832 44.4861ZM31.9865 75.3936C51.7422 78.4177 72.5459 64.7363 75.5842 44.4794L73.6063 44.1828C70.7483 63.2377 51.0609 76.2901 32.2891 73.4166L31.9865 75.3936ZM-0.697246 32.0178C-3.32025 52.5983 11.3948 72.3651 31.9923 75.3945L32.2833 73.4158C12.7821 70.5476 -1.20091 51.7889 1.28671 32.2707L-0.697246 32.0178ZM38.9627 -0.295658C19.0608 -3.13911 1.71942 12.4881 -0.697701 32.0214L1.28716 32.267C3.58882 13.6667 20.0555 -0.976694 38.6798 1.68424L38.9627 -0.295658ZM38.604 2.67906C38.6677 2.68093 38.7315 2.68298 38.7951 2.6852L38.8648 0.68641C38.7974 0.684065 38.7301 0.681902 38.6627 0.679922L38.604 2.67906ZM38.1144 2.38443C38.1158 2.38586 38.121 2.39109 38.1231 2.3932L39.5368 0.978406C39.5331 0.974712 39.5325 0.974139 39.5281 0.969776L38.1144 2.38443ZM38.6484 2.67938C38.7094 2.67846 38.7705 2.67768 38.8316 2.67705L38.8108 0.677155C38.7466 0.677822 38.6824 0.678639 38.6183 0.679605L38.6484 2.67938Z" fill="#EFEBFF" mask="url(#path-1-inside-1_120_62)"/>
<path d="M54.4513 20H41.2901C41.1447 20 41.0052 20.0578 40.9023 20.1606C40.7995 20.2635 40.7417 20.4029 40.7417 20.5484V38.0967C40.7417 38.2421 40.7995 38.3816 40.9023 38.4844C41.0052 38.5873 41.1447 38.6451 41.2901 38.6451H54.4513C54.5968 38.6451 54.7362 38.5873 54.8391 38.4844C54.9419 38.3816 54.9997 38.2421 54.9997 38.0967V20.5484C54.9997 20.4029 54.9419 20.2635 54.8391 20.1606C54.7362 20.0578 54.5968 20 54.4513 20ZM53.9029 37.5483H41.8385V21.0968H53.9029V37.5483ZM53.3546 40.2902H39.0966C38.1895 40.2902 37.4514 41.0283 37.4514 41.9354V52.3547C37.4514 53.2617 38.1895 53.9998 39.0966 53.9998H53.3546C54.2616 53.9998 54.9997 53.2617 54.9997 52.3547V41.9354C54.9997 41.0283 54.2616 40.2902 53.3546 40.2902ZM53.9029 52.3547C53.9029 52.6568 53.6573 52.903 53.3546 52.903H39.0966C38.7939 52.903 38.5482 52.6568 38.5482 52.3547V41.9354C38.5482 41.6332 38.7939 41.387 39.0966 41.387H53.3546C53.6573 41.387 53.9029 41.6332 53.9029 41.9354V52.3547Z" fill="#32325F"/>
<path d="M51.7095 50.1611H50.6127C50.6127 50.0157 50.555 49.8762 50.4521 49.7733C50.3493 49.6705 50.2098 49.6127 50.0643 49.6127C49.9189 49.6127 49.7794 49.6705 49.6766 49.7733C49.5737 49.8762 49.516 50.0157 49.516 50.1611H40.7418C40.0158 50.1611 40.0163 51.2579 40.7418 51.2579H49.516C49.516 51.4033 49.5737 51.5428 49.6766 51.6456C49.7794 51.7485 49.9189 51.8063 50.0643 51.8063C50.2098 51.8063 50.3493 51.7485 50.4521 51.6456C50.555 51.5428 50.6127 51.4033 50.6127 51.2579H51.7095C52.4356 51.2579 52.435 50.1611 51.7095 50.1611ZM38.5483 36.4515V23.2903C38.5483 22.3833 37.8102 21.6451 36.9031 21.6451H22.6452C21.7381 21.6451 21 22.3833 21 23.2903V36.4515C21 37.3585 21.7381 38.0967 22.6452 38.0967H36.9031C37.8102 38.0967 38.5483 37.3585 38.5483 36.4515ZM37.4515 36.4515C37.4515 36.7537 37.2058 36.9999 36.9031 36.9999H22.6452C22.3424 36.9999 22.0968 36.7537 22.0968 36.4515V23.2903C22.0968 22.9881 22.3424 22.7419 22.6452 22.7419H36.9031C37.2058 22.7419 37.4515 22.9881 37.4515 23.2903V36.4515Z" fill="#32325F"/>
<path d="M31.9677 28.7741C33.1774 28.7741 34.1612 27.7903 34.1612 26.5806C34.1612 25.3708 33.1774 24.387 31.9677 24.387C30.7579 24.387 29.7741 25.3708 29.7741 26.5806C29.7741 27.7903 30.7579 28.7741 31.9677 28.7741ZM31.9677 25.4838C32.5725 25.4838 33.0644 25.9757 33.0644 26.5806C33.0644 27.1854 32.5725 27.6773 31.9677 27.6773C31.3628 27.6773 30.8709 27.1854 30.8709 26.5806C30.8709 25.9757 31.3628 25.4838 31.9677 25.4838ZM34.0005 30.5799C33.9497 30.529 33.8892 30.4885 33.8227 30.4609C33.7562 30.4333 33.6849 30.4191 33.6128 30.4191C33.5408 30.4191 33.4695 30.4333 33.403 30.4609C33.3364 30.4885 33.276 30.529 33.2251 30.5799L31.4193 32.3858L27.9683 28.9348C27.9174 28.8838 27.857 28.8434 27.7905 28.8158C27.7239 28.7882 27.6526 28.774 27.5806 28.774C27.5086 28.774 27.4373 28.7882 27.3707 28.8158C27.3042 28.8434 27.2438 28.8838 27.1929 28.9348L23.3542 32.7735C22.8409 33.2868 23.6169 34.0616 24.1296 33.5489L27.5806 30.0979L31.0316 33.5489C31.0825 33.5999 31.1429 33.6403 31.2094 33.6679C31.276 33.6955 31.3473 33.7097 31.4193 33.7097C31.4913 33.7097 31.5626 33.6955 31.6292 33.6679C31.6957 33.6403 31.7561 33.5999 31.807 33.5489L33.6128 31.7431L35.4187 33.5489C35.9243 34.0545 36.7139 33.2928 36.1941 32.7735L34.0005 30.5799ZM44.0321 23.8387H49.516C50.242 23.8387 50.2415 22.7419 49.516 22.7419H44.0321C43.3061 22.7419 43.3066 23.8387 44.0321 23.8387ZM44.0321 28.7741H51.7095C52.4356 28.7741 52.435 27.6773 51.7095 27.6773H44.0321C43.3061 27.6773 43.3066 28.7741 44.0321 28.7741ZM44.0321 33.7096H51.7095C52.4356 33.7096 52.435 32.6128 51.7095 32.6128H44.0321C43.3061 32.6128 43.3066 33.7096 44.0321 33.7096ZM44.0321 35.9031H46.774C47.5001 35.9031 47.4996 34.8063 46.774 34.8063H44.0321C43.3061 34.8063 43.3066 35.9031 44.0321 35.9031ZM44.0321 26.5806H45.1289C45.855 26.5806 45.8544 25.4838 45.1289 25.4838H44.0321C43.3061 25.4838 43.3066 26.5806 44.0321 26.5806ZM47.8708 26.5806H51.7095C52.4356 26.5806 52.435 25.4838 51.7095 25.4838H47.8708C47.1448 25.4838 47.1453 26.5806 47.8708 26.5806ZM44.0321 31.516H47.8708C48.5969 31.516 48.5963 30.4193 47.8708 30.4193H44.0321C43.3061 30.4193 43.3066 31.516 44.0321 31.516ZM51.7095 30.4193H50.6127C49.8867 30.4193 49.8872 31.516 50.6127 31.516H51.7095C52.4356 31.516 52.435 30.4193 51.7095 30.4193ZM28.6774 39.7418C24.4439 39.7418 21 42.4481 21 45.774C21 47.128 21.5824 48.4468 22.6452 49.5107V53.4514C22.6452 53.9427 23.2391 54.1813 23.5812 53.8391L25.9936 51.4267C26.8403 51.679 27.7418 51.8062 28.6774 51.8062C32.9109 51.8062 36.3547 49.1 36.3547 45.774C36.3547 42.4481 32.9109 39.7418 28.6774 39.7418ZM28.6774 50.7095C27.7402 50.7095 26.8463 50.5663 26.0194 50.2839C25.9224 50.2505 25.818 50.2451 25.7181 50.2683C25.6182 50.2915 25.5269 50.3423 25.4545 50.415L23.7419 52.1276V49.2782C23.742 49.2029 23.7265 49.1284 23.6965 49.0593C23.6665 48.9903 23.6226 48.9281 23.5675 48.8768C22.6051 47.9818 22.0968 46.9086 22.0968 45.774C22.0968 43.0529 25.0487 40.8386 28.6774 40.8386C32.306 40.8386 35.258 43.0529 35.258 45.774C35.258 48.4951 32.306 50.7095 28.6774 50.7095Z" fill="#32325F"/>
<path d="M28.6776 46.5966C29.1319 46.5966 29.5001 46.2283 29.5001 45.7741C29.5001 45.3198 29.1319 44.9515 28.6776 44.9515C28.2233 44.9515 27.855 45.3198 27.855 45.7741C27.855 46.2283 28.2233 46.5966 28.6776 46.5966Z" fill="#32325F"/>
<path d="M32.5159 46.5966C32.9702 46.5966 33.3385 46.2283 33.3385 45.7741C33.3385 45.3198 32.9702 44.9515 32.5159 44.9515C32.0616 44.9515 31.6934 45.3198 31.6934 45.7741C31.6934 46.2283 32.0616 46.5966 32.5159 46.5966Z" fill="#32325F"/>
<path d="M24.8387 46.5966C25.293 46.5966 25.6613 46.2283 25.6613 45.7741C25.6613 45.3198 25.293 44.9515 24.8387 44.9515C24.3844 44.9515 24.0161 45.3198 24.0161 45.7741C24.0161 46.2283 24.3844 46.5966 24.8387 46.5966Z" fill="#32325F"/>
<path d="M45.2727 48.9076L48.9178 46.8072C49.7119 46.3504 49.7119 45.2005 48.9178 44.7431L45.2733 42.6439C44.4814 42.1855 43.4839 42.7607 43.4839 43.6754V47.8749C43.4839 48.8017 44.4902 49.3567 45.2727 48.9076ZM44.5807 43.6754C44.5807 43.6047 44.6607 43.5564 44.7254 43.5943L48.3705 45.694C48.3848 45.7023 48.3966 45.7142 48.4048 45.7285C48.413 45.7428 48.4173 45.759 48.4173 45.7755C48.4173 45.7919 48.413 45.8081 48.4048 45.8224C48.3966 45.8367 48.3848 45.8486 48.3705 45.8569L44.726 47.9567C44.6613 47.9928 44.5807 47.9484 44.5807 47.8755V43.6754Z" fill="#32325F"/>
</svg>
