<svg width="75" height="75" viewBox="0 0 75 75" fill="none" xmlns="http://www.w3.org/2000/svg">
<mask id="path-1-inside-1_120_61" fill="white">
<path fill-rule="evenodd" clip-rule="evenodd" d="M38.8212 0.69429C39.0185 0.301165 39.4113 0.104603 39.8044 0.104603C62.2122 -1.86102 77.7409 24.2818 74.5953 44.3311C71.6471 63.987 51.4016 77.3539 32.1378 74.4051C12.0885 71.4564 -2.26058 52.1936 0.29473 32.1442C2.65412 13.0774 19.5581 -2.0579 38.8212 0.69429ZM38.6333 1.67949C38.6989 1.68142 38.7645 1.68352 38.83 1.6858C38.827 1.6829 38.8242 1.68 38.8212 1.6771C38.7586 1.67775 38.6959 1.67855 38.6333 1.67949Z"/>
</mask>
<path fill-rule="evenodd" clip-rule="evenodd" d="M38.8212 0.69429C39.0185 0.301165 39.4113 0.104603 39.8044 0.104603C62.2122 -1.86102 77.7409 24.2818 74.5953 44.3311C71.6471 63.987 51.4016 77.3539 32.1378 74.4051C12.0885 71.4564 -2.26058 52.1936 0.29473 32.1442C2.65412 13.0774 19.5581 -2.0579 38.8212 0.69429ZM38.6333 1.67949C38.6989 1.68142 38.7645 1.68352 38.83 1.6858C38.827 1.6829 38.8242 1.68 38.8212 1.6771C38.7586 1.67775 38.6959 1.67855 38.6333 1.67949Z" fill="#EFEBFF"/>
<path d="M39.8044 0.104603V1.1046H39.8482L39.8918 1.10078L39.8044 0.104603ZM38.8212 0.69429L38.6798 1.68424L39.3924 1.78604L39.7151 1.14267L38.8212 0.69429ZM74.5953 44.3311L73.6073 44.1761L73.6063 44.1828L74.5953 44.3311ZM32.1378 74.4051L32.2891 73.4166L32.2833 73.4158L32.1378 74.4051ZM0.29473 32.1442L1.28671 32.2707L1.28716 32.267L0.29473 32.1442ZM38.6333 1.67949L38.6183 0.679605L38.604 2.67906L38.6333 1.67949ZM38.83 1.6858L38.7951 2.6852L41.3335 2.77362L39.5368 0.978406L38.83 1.6858ZM38.8212 1.6771L39.5281 0.969776L39.231 0.672786L38.8108 0.677155L38.8212 1.6771ZM39.8044 -0.895397C39.0873 -0.895397 38.3173 -0.531356 37.9274 0.245908L39.7151 1.14267C39.7193 1.13428 39.7227 1.13039 39.7245 1.12851C39.7265 1.12638 39.7298 1.12352 39.7355 1.12027C39.7481 1.11303 39.7721 1.1046 39.8044 1.1046V-0.895397ZM75.5832 44.4861C77.2014 34.172 74.0192 22.3634 67.5958 13.3806C61.1647 4.38705 51.3716 -1.91392 39.717 -0.891572L39.8918 1.10078C50.645 0.157501 59.8201 5.94511 65.9689 14.5439C72.1254 23.1534 75.1347 34.4409 73.6073 44.1761L75.5832 44.4861ZM31.9865 75.3936C51.7422 78.4177 72.5459 64.7363 75.5842 44.4794L73.6063 44.1828C70.7483 63.2377 51.0609 76.2901 32.2891 73.4166L31.9865 75.3936ZM-0.697246 32.0178C-3.32025 52.5983 11.3948 72.3651 31.9923 75.3945L32.2833 73.4158C12.7821 70.5476 -1.20091 51.7889 1.28671 32.2707L-0.697246 32.0178ZM38.9627 -0.295658C19.0608 -3.13911 1.71942 12.4881 -0.697701 32.0214L1.28716 32.267C3.58882 13.6667 20.0555 -0.976694 38.6798 1.68424L38.9627 -0.295658ZM38.604 2.67906C38.6677 2.68093 38.7315 2.68298 38.7951 2.6852L38.8648 0.68641C38.7974 0.684065 38.7301 0.681902 38.6627 0.679922L38.604 2.67906ZM38.1144 2.38443C38.1158 2.38586 38.121 2.39109 38.1231 2.3932L39.5368 0.978406C39.5331 0.974712 39.5325 0.974139 39.5281 0.969776L38.1144 2.38443ZM38.6484 2.67938C38.7094 2.67846 38.7705 2.67768 38.8316 2.67705L38.8108 0.677155C38.7466 0.677822 38.6824 0.678639 38.6183 0.679605L38.6484 2.67938Z" fill="#EFEBFF" mask="url(#path-1-inside-1_120_61)"/>
<path d="M50.38 25.4842C51.0654 25.4842 51.62 24.9295 51.62 24.2441C51.62 23.5587 51.0654 23.004 50.38 23.004C49.6945 23.004 49.1399 23.5587 49.1399 24.2441C49.1399 24.9295 49.6998 25.4842 50.38 25.4842ZM50.38 23.8883C50.5788 23.8883 50.741 24.0505 50.741 24.2493C50.741 24.4482 50.5788 24.6104 50.38 24.6104C50.1759 24.6104 50.0189 24.4534 50.0189 24.2493C50.0189 24.0453 50.1811 23.8883 50.38 23.8883Z" fill="#32325F"/>
<path d="M51.7558 21H26.2638C25.2958 21 24.5057 21.7901 24.5057 22.7581V25.4423H22.7581C21.7901 25.4423 21 26.2324 21 27.2003V49.2443C21 50.2123 21.7901 51.0023 22.7581 51.0023H34.4419V53.5453C34.4419 53.786 34.6408 53.9848 34.8814 53.9848H43.1381C43.3788 53.9848 43.5776 53.786 43.5776 53.5453V51.0023H48.2501C49.2181 51.0023 50.0082 50.2123 50.0082 49.2443V46.5601H51.7558C52.7238 46.5601 53.5139 45.77 53.5139 44.802V22.7581C53.5139 21.7901 52.7238 21 51.7558 21ZM25.3847 22.7581C25.3847 22.2715 25.7824 21.879 26.2638 21.879H51.7558C52.2424 21.879 52.6348 22.2767 52.6348 22.7581V26.6143H35.9541L33.9919 24.5789C33.8402 24.422 33.6309 24.333 33.4164 24.333H29.0945C28.6549 24.333 28.2939 24.694 28.2939 25.1336V26.6143H25.3847V22.7581ZM22.7581 50.1285C22.2715 50.1285 21.879 49.7309 21.879 49.2495V27.2003C21.879 26.7137 22.2767 26.3213 22.7581 26.3213H24.5057V44.8072C24.5057 45.7752 25.2958 46.5653 26.2638 46.5653H35.8076C35.9802 46.9002 36.0587 47.2769 36.0273 47.6641H35.3471C34.8448 47.6641 34.4419 48.0722 34.4419 48.5693V50.1285H22.7581ZM38.5755 40.9248C38.6644 40.7679 38.8266 40.6684 39.0098 40.6684C39.2819 40.6684 39.5016 40.8882 39.5016 41.1603C39.5016 41.3382 39.4074 41.5004 39.2557 41.5893C39.0883 41.6887 38.8894 41.6783 38.6854 41.5632C38.6584 41.5493 38.6365 41.5273 38.6226 41.5004C38.4551 41.2335 38.5232 41.0242 38.5755 40.9248ZM38.5703 39.8731C38.2478 39.9803 37.9772 40.2043 37.8116 40.501C37.5604 40.951 37.5918 41.5004 37.8848 41.9713C37.979 42.1178 38.1046 42.2381 38.2563 42.3271C38.497 42.4631 38.7586 42.5364 39.015 42.5364C39.2557 42.5364 39.4911 42.4736 39.7004 42.3533C40.119 42.1073 40.3807 41.6521 40.3807 41.1655C40.3807 40.5638 39.9882 40.0562 39.4493 39.8731V37.6127L43.3369 44.6293C43.3317 44.6346 43.3265 44.645 43.3108 44.6503C41.9347 45.0061 41.0347 46.2932 41.1079 47.6641H36.9168C36.9953 46.288 36.0901 45.0008 34.6878 44.6084L38.5703 37.6127V39.8731ZM42.6986 53.1058H35.321L35.3471 48.5379H42.6724C42.6881 48.5379 42.6986 48.5484 42.6986 48.5641V53.1058ZM49.1292 49.2443C49.1292 49.7309 48.7315 50.1233 48.2501 50.1233H43.5776V48.5641C43.5776 48.0618 43.1695 47.6589 42.6724 47.6589H41.9922C41.9608 47.2717 42.0445 46.8949 42.212 46.5601H49.1292V49.2443ZM51.7558 45.6863H43.0649C43.2061 45.6078 43.3579 45.5398 43.5253 45.4979C43.8026 45.4246 44.0276 45.2311 44.1427 44.9694C44.2526 44.713 44.2369 44.4253 44.1009 44.1793L39.601 36.0744C39.4859 35.8599 39.2609 35.7239 39.015 35.7239C38.7639 35.7291 38.5389 35.8547 38.4185 36.0692L33.9135 44.1793C33.7774 44.4253 33.767 44.7183 33.8768 44.9747C33.9867 45.2363 34.2117 45.4246 34.489 45.4979C34.6565 45.5398 34.803 45.6078 34.9495 45.6863H26.2638C25.7771 45.6863 25.3847 45.2886 25.3847 44.8072V27.4934H28.3672C28.8067 27.4934 29.1677 27.1323 29.1677 26.6928V25.212H33.3798L35.3419 27.2474C35.4936 27.4044 35.7029 27.4934 35.9175 27.4934H52.6348V44.802C52.6348 45.2886 52.2424 45.6863 51.7558 45.6863Z" fill="#32325F"/>
<path d="M47.3867 25.4842C48.0722 25.4842 48.6268 24.9295 48.6268 24.2441C48.6268 23.5587 48.0722 23.004 47.3867 23.004C46.7013 23.004 46.1467 23.5587 46.1467 24.2441C46.1467 24.9295 46.7013 25.4842 47.3867 25.4842ZM47.3867 23.8883C47.5856 23.8883 47.7478 24.0505 47.7478 24.2493C47.7478 24.4482 47.5856 24.6104 47.3867 24.6104C47.1827 24.6104 47.0257 24.4534 47.0257 24.2493C47.0257 24.0453 47.1879 23.8883 47.3867 23.8883ZM44.3886 25.4842C45.074 25.4842 45.6287 24.9295 45.6287 24.2441C45.6287 23.5587 45.074 23.004 44.3886 23.004C43.7032 23.004 43.1485 23.5587 43.1485 24.2441C43.1485 24.9295 43.7032 25.4842 44.3886 25.4842ZM44.3886 23.8883C44.5874 23.8883 44.7496 24.0505 44.7496 24.2493C44.7496 24.4482 44.5874 24.6104 44.3886 24.6104C44.1845 24.6104 44.0276 24.4534 44.0276 24.2493C44.0276 24.0453 44.1898 23.8883 44.3886 23.8883ZM47.4809 31.3235C47.2245 31.5799 47.0623 31.9043 46.9996 32.2496H40.8515V31.5589C40.8515 31.088 40.4696 30.7061 39.9987 30.7061H38.0156C37.5447 30.7061 37.1627 31.088 37.1627 31.5589V32.2496H31.0199C30.9624 31.9095 30.8002 31.5851 30.5386 31.3182C29.874 30.6642 28.7386 30.6747 28.0898 31.3235C27.7602 31.6531 27.5823 32.0874 27.5823 32.5478C27.5823 33.0135 27.7654 33.453 28.0898 33.7722C28.4195 34.1123 28.859 34.285 29.3142 34.285C29.602 34.285 29.895 34.217 30.1723 34.0757C30.4745 33.9209 30.7173 33.6708 30.863 33.3641C30.8996 33.2856 30.931 33.2071 30.9571 33.1286H35.2215C32.9036 34.2588 31.156 36.3832 30.549 38.947H29.8688C29.3979 38.947 29.0159 39.329 29.0159 39.7999V41.783C29.0159 42.2539 29.3979 42.6358 29.8688 42.6358H31.8519C32.3228 42.6358 32.7048 42.2539 32.7048 41.783V39.7999C32.7048 39.329 32.3228 38.947 31.8519 38.947H31.4542C32.1868 36.1843 34.4 34.0181 37.1784 33.3484V33.5368C37.1784 34.0077 37.5604 34.3896 38.0313 34.3896H40.0144C40.4853 34.3896 40.8672 34.0077 40.8672 33.5368V33.3484C43.6404 34.0181 45.8537 36.1843 46.5914 38.947H46.2304C45.7595 38.947 45.3775 39.329 45.3775 39.7999V41.783C45.3775 42.2539 45.7595 42.6358 46.2304 42.6358H48.2135C48.6844 42.6358 49.0663 42.2539 49.0663 41.783V39.7999C49.0663 39.329 48.6844 38.947 48.2135 38.947H47.4966C46.8844 36.3832 45.1368 34.2536 42.8241 33.1286H47.099C47.1827 33.3693 47.3187 33.5891 47.5019 33.7722C47.8315 34.1123 48.271 34.285 48.7262 34.285C49.014 34.285 49.307 34.217 49.5843 34.0757C49.8866 33.9209 50.1293 33.6708 50.275 33.3641C50.6151 32.6473 50.4948 31.8676 49.9558 31.3182C49.2704 30.6694 48.135 30.6747 47.4809 31.3235ZM30.0624 32.9926C29.9996 33.1182 29.895 33.2281 29.7694 33.2908C29.3142 33.5211 28.9218 33.3746 28.7072 33.1496C28.545 32.9926 28.4561 32.7781 28.4561 32.5478C28.4561 32.3229 28.545 32.1083 28.7072 31.9409C28.8694 31.7787 29.084 31.6897 29.3142 31.6897C29.5392 31.6897 29.7589 31.7787 29.9159 31.9357C30.188 32.2182 30.2403 32.6106 30.0624 32.9926ZM31.8414 41.7568L29.8845 41.783L29.8584 39.8261H31.8153L31.8414 41.7568ZM48.1978 41.7568L46.2409 41.783L46.2147 39.8261H48.1716L48.1978 41.7568ZM38.047 33.542L38.0365 32.8827C38.047 32.8356 38.047 32.7885 38.0418 32.7362V32.731C38.0418 32.7153 38.0522 32.7048 38.0522 32.6891C38.0522 32.663 38.0418 32.642 38.0365 32.6211L38.0208 31.5903H39.9777L39.9934 32.6211C39.9882 32.6473 39.9777 32.6682 39.9777 32.6944C39.9777 32.7101 39.983 32.7205 39.9882 32.7362V32.7414C39.9777 32.8095 39.983 32.8723 39.9987 32.9298L40.0091 33.5211L38.047 33.542ZM49.4588 32.9926C49.396 33.1182 49.2913 33.2281 49.1658 33.2908C48.7105 33.5211 48.3181 33.3746 48.1036 33.1496C47.9414 32.9926 47.8524 32.7781 47.8524 32.5478C47.8524 32.3229 47.9414 32.1083 48.1036 31.9409C48.2658 31.7787 48.4803 31.6897 48.7105 31.6897C48.9355 31.6897 49.1553 31.7787 49.3123 31.9357C49.5843 32.2182 49.6367 32.6106 49.4588 32.9926Z" fill="#32325F"/>
</svg>
