<svg width="134" height="133" viewBox="0 0 134 133" fill="none" xmlns="http://www.w3.org/2000/svg">
<mask id="path-1-inside-1_210_242" fill="white">
<path fill-rule="evenodd" clip-rule="evenodd" d="M69.0155 1.23429C69.3661 0.535404 70.0644 0.18596 70.7633 0.18596C110.599 -3.30848 138.206 43.1675 132.614 78.8108C127.373 113.755 91.3805 137.518 57.1339 132.276C21.4906 127.033 -4.01881 92.7886 0.523963 57.1453C4.71843 23.2487 34.77 -3.65849 69.0155 1.23429ZM68.6872 2.98567C68.8017 2.98905 68.9163 2.99273 69.0307 2.99672C69.0256 2.99165 69.0206 2.98658 69.0155 2.98151C68.906 2.98265 68.7966 2.98404 68.6872 2.98567Z"/>
</mask>
<path fill-rule="evenodd" clip-rule="evenodd" d="M69.0155 1.23429C69.3661 0.535404 70.0644 0.18596 70.7633 0.18596C110.599 -3.30848 138.206 43.1675 132.614 78.8108C127.373 113.755 91.3805 137.518 57.1339 132.276C21.4906 127.033 -4.01881 92.7886 0.523963 57.1453C4.71843 23.2487 34.77 -3.65849 69.0155 1.23429ZM68.6872 2.98567C68.8017 2.98905 68.9163 2.99273 69.0307 2.99672C69.0256 2.99165 69.0206 2.98658 69.0155 2.98151C68.906 2.98265 68.7966 2.98404 68.6872 2.98567Z" fill="#EFEBFF"/>
<path d="M70.7633 0.18596V1.18596H70.8071L70.8507 1.18214L70.7633 0.18596ZM69.0155 1.23429L68.8741 2.22424L69.5866 2.32604L69.9094 1.68267L69.0155 1.23429ZM132.614 78.8108L131.626 78.6558L131.625 78.6625L132.614 78.8108ZM57.1339 132.276L57.2852 131.287L57.2794 131.286L57.1339 132.276ZM0.523963 57.1453L1.51595 57.2717L1.51639 57.2681L0.523963 57.1453ZM68.6872 2.98567L68.6722 1.98579L68.6577 3.98524L68.6872 2.98567ZM69.0307 2.99672L68.9959 3.99611L71.5349 4.08453L69.7374 2.28919L69.0307 2.99672ZM69.0155 2.98151L69.7228 2.27459L69.4256 1.97719L69.0051 1.98156L69.0155 2.98151ZM70.7633 -0.81404C69.7405 -0.81404 68.665 -0.297117 68.1217 0.78591L69.9094 1.68267C70.0672 1.36793 70.3884 1.18596 70.7633 1.18596V-0.81404ZM133.602 78.9658C136.443 60.8547 130.853 40.0644 119.538 24.2401C108.214 8.4051 91.0446 -2.59697 70.6759 -0.810214L70.8507 1.18214C90.318 -0.525549 106.87 9.96317 117.911 25.4034C128.959 40.8543 134.376 61.1236 131.626 78.6558L133.602 78.9658ZM56.9825 133.264C91.7211 138.582 128.271 114.504 133.603 78.9591L131.625 78.6625C126.474 113.005 91.0399 136.454 57.2852 131.287L56.9825 133.264ZM-0.468012 57.0189C-5.07848 93.1933 20.7969 127.942 56.9883 133.265L57.2794 131.286C22.1843 126.125 -2.95913 92.3838 1.51594 57.2717L-0.468012 57.0189ZM69.1569 0.244344C34.2727 -4.7397 3.78373 22.6593 -0.468467 57.0225L1.51639 57.2681C5.65313 23.838 35.2673 -2.57728 68.8741 2.22424L69.1569 0.244344ZM68.6577 3.98524C68.7705 3.98856 68.8833 3.99219 68.9959 3.99611L69.0655 1.99732C68.9493 1.99327 68.833 1.98953 68.7166 1.98611L68.6577 3.98524ZM68.3082 3.68843C68.3132 3.69344 68.3186 3.69882 68.324 3.70424L69.7374 2.28919C69.7327 2.28448 69.7279 2.27972 69.7228 2.27459L68.3082 3.68843ZM68.7021 3.98556C68.81 3.98395 68.9179 3.98258 69.0259 3.98146L69.0051 1.98156C68.8941 1.98272 68.7831 1.98413 68.6722 1.98579L68.7021 3.98556Z" fill="#EFEBFF" mask="url(#path-1-inside-1_210_242)"/>
<path d="M89.5639 45.3055C90.7825 45.3055 91.7685 44.3195 91.7685 43.1009C91.7685 41.8824 90.7825 40.8964 89.5639 40.8964C88.3454 40.8964 87.3594 41.8824 87.3594 43.1009C87.3594 44.3195 88.3547 45.3055 89.5639 45.3055ZM89.5639 42.4684C89.9174 42.4684 90.2058 42.7568 90.2058 43.1102C90.2058 43.4637 89.9174 43.7521 89.5639 43.7521C89.2012 43.7521 88.9221 43.473 88.9221 43.1102C88.9221 42.7475 89.2105 42.4684 89.5639 42.4684Z" fill="#32325F"/>
<path d="M92.0109 37.3334H46.6918C44.9709 37.3334 43.5663 38.738 43.5663 40.4588V45.2307H40.4594C38.7386 45.2307 37.334 46.6353 37.334 48.3562V87.5454C37.334 89.2662 38.7386 90.6708 40.4594 90.6708H61.2307V95.1916C61.2307 95.6195 61.5842 95.973 62.0121 95.973H76.6906C77.1185 95.973 77.472 95.6195 77.472 95.1916V90.6708H85.7786C87.4995 90.6708 88.9041 89.2662 88.9041 87.5454V82.7735H92.0109C93.7318 82.7735 95.1364 81.3689 95.1364 79.648V40.4588C95.1364 38.738 93.7318 37.3334 92.0109 37.3334ZM45.129 40.4588C45.129 39.5938 45.836 38.8961 46.6918 38.8961H92.0109C92.876 38.8961 93.5737 39.6031 93.5737 40.4588V47.3144H63.919L60.4308 43.6959C60.161 43.4169 59.7889 43.2587 59.4075 43.2587H51.7241C50.9428 43.2587 50.3009 43.9006 50.3009 44.6819V47.3144H45.129V40.4588ZM40.4594 89.1174C39.5944 89.1174 38.8967 88.4105 38.8967 87.5547V48.3562C38.8967 47.4911 39.6037 46.7935 40.4594 46.7935H43.5663V79.6573C43.5663 81.3782 44.9709 82.7828 46.6918 82.7828H63.6585C63.9655 83.3781 64.105 84.0478 64.0492 84.7362H62.84C61.947 84.7362 61.2307 85.4617 61.2307 86.3454V89.1174H40.4594ZM68.5793 72.7553C68.7374 72.4762 69.0258 72.2995 69.3513 72.2995C69.835 72.2995 70.2257 72.6901 70.2257 73.1738C70.2257 73.4901 70.0583 73.7785 69.7885 73.9366C69.4909 74.1133 69.1374 74.0947 68.7746 73.8901C68.7267 73.8654 68.6877 73.8264 68.663 73.7785C68.3653 73.3041 68.4863 72.932 68.5793 72.7553ZM68.57 70.8856C67.9968 71.0761 67.5156 71.4743 67.2212 72.0018C66.7747 72.8018 66.8305 73.7785 67.3514 74.6157C67.5189 74.8761 67.7421 75.0901 68.0119 75.2482C68.4398 75.49 68.9049 75.6203 69.3606 75.6203C69.7885 75.6203 70.2071 75.5086 70.5792 75.2947C71.3234 74.8575 71.7885 74.0482 71.7885 73.1831C71.7885 72.1134 71.0908 71.2111 70.1327 70.8856V66.8671L77.0441 79.341C77.0348 79.3503 77.0255 79.369 76.9976 79.3783C74.5511 80.0108 72.9512 82.2991 73.0814 84.7362H65.6306C65.7701 82.2898 64.1608 80.0015 61.6679 79.3038L68.57 66.8671V70.8856ZM75.9092 94.4102H62.7935L62.84 86.2896H75.8627C75.8906 86.2896 75.9092 86.3082 75.9092 86.3361V94.4102ZM87.3413 87.5454C87.3413 88.4105 86.6344 89.1081 85.7786 89.1081H77.472V86.3361C77.472 85.4431 76.7464 84.7269 75.8627 84.7269H74.6535C74.5977 84.0385 74.7465 83.3688 75.0441 82.7735H87.3413V87.5454ZM92.0109 81.22H76.5604C76.8115 81.0805 77.0813 80.9596 77.3789 80.8852C77.8719 80.7549 78.2719 80.4108 78.4766 79.9457C78.6719 79.4899 78.644 78.9783 78.4022 78.5411L70.4025 64.1323C70.1978 63.751 69.7978 63.5091 69.3606 63.5091C68.9142 63.5184 68.5142 63.7417 68.3002 64.123L60.2912 78.5411C60.0494 78.9783 60.0308 79.4992 60.2261 79.955C60.4215 80.4201 60.8214 80.7549 61.3144 80.8852C61.6121 80.9596 61.8726 81.0805 62.133 81.22H46.6918C45.8267 81.22 45.129 80.5131 45.129 79.6573V48.8771H50.4311C51.2125 48.8771 51.8544 48.2353 51.8544 47.4539V44.8215H59.3424L62.8307 48.4399C63.1004 48.719 63.4725 48.8771 63.8539 48.8771H93.5737V79.648C93.5737 80.5131 92.876 81.22 92.0109 81.22Z" fill="#32325F"/>
<path d="M84.2431 45.3055C85.4616 45.3055 86.4477 44.3195 86.4477 43.1009C86.4477 41.8824 85.4616 40.8964 84.2431 40.8964C83.0245 40.8964 82.0385 41.8824 82.0385 43.1009C82.0385 44.3195 83.0245 45.3055 84.2431 45.3055ZM84.2431 42.4684C84.5966 42.4684 84.8849 42.7568 84.8849 43.1102C84.8849 43.4637 84.5966 43.7521 84.2431 43.7521C83.8803 43.7521 83.6013 43.473 83.6013 43.1102C83.6013 42.7475 83.8896 42.4684 84.2431 42.4684ZM78.9131 45.3055C80.1316 45.3055 81.1176 44.3195 81.1176 43.1009C81.1176 41.8824 80.1316 40.8964 78.9131 40.8964C77.6945 40.8964 76.7085 41.8824 76.7085 43.1009C76.7085 44.3195 77.6945 45.3055 78.9131 45.3055ZM78.9131 42.4684C79.2665 42.4684 79.5549 42.7568 79.5549 43.1102C79.5549 43.4637 79.2665 43.7521 78.9131 43.7521C78.5503 43.7521 78.2712 43.473 78.2712 43.1102C78.2712 42.7475 78.5596 42.4684 78.9131 42.4684ZM84.4105 55.6865C83.9547 56.1423 83.6664 56.719 83.5547 57.3329H72.6249V56.1051C72.6249 55.2679 71.9459 54.5889 71.1087 54.5889H67.5833C66.7461 54.5889 66.0671 55.2679 66.0671 56.1051V57.3329H55.1465C55.0442 56.7283 54.7559 56.1516 54.2908 55.6772C53.1094 54.5144 51.0909 54.533 49.9374 55.6865C49.3514 56.2725 49.0352 57.0446 49.0352 57.8631C49.0352 58.691 49.3607 59.4724 49.9374 60.0398C50.5235 60.6444 51.3048 60.9514 52.1141 60.9514C52.6257 60.9514 53.1466 60.8305 53.6396 60.5793C54.1769 60.3042 54.6085 59.8595 54.8675 59.3143C54.9326 59.1747 54.9884 59.0352 55.0349 58.8957H62.616C58.4953 60.9049 55.3884 64.6815 54.3094 69.2394H53.1001C52.2629 69.2394 51.5839 69.9185 51.5839 70.7557V74.2811C51.5839 75.1183 52.2629 75.7973 53.1001 75.7973H56.6256C57.4627 75.7973 58.1418 75.1183 58.1418 74.2811V70.7557C58.1418 69.9185 57.4627 69.2394 56.6256 69.2394H55.9186C57.2209 64.328 61.1556 60.477 66.095 59.2863V59.6212C66.095 60.4584 66.774 61.1374 67.6112 61.1374H71.1366C71.9738 61.1374 72.6528 60.4584 72.6528 59.6212V59.2863C77.5829 60.477 81.5176 64.328 82.8292 69.2394H82.1874C81.3502 69.2394 80.6711 69.9185 80.6711 70.7557V74.2811C80.6711 75.1183 81.3502 75.7973 82.1874 75.7973H85.7128C86.55 75.7973 87.229 75.1183 87.229 74.2811V70.7557C87.229 69.9185 86.55 69.2394 85.7128 69.2394H84.4384C83.3501 64.6815 80.2432 60.8956 76.1318 58.8957H83.7315C83.8803 59.3236 84.1222 59.7142 84.4477 60.0398C85.0338 60.6444 85.8151 60.9514 86.6244 60.9514C87.136 60.9514 87.6569 60.8305 88.1499 60.5793C88.6872 60.3042 89.1188 59.8595 89.3778 59.3143C89.9824 58.0399 89.7685 56.6539 88.8104 55.6772C87.5918 54.5237 85.5733 54.533 84.4105 55.6865ZM53.4443 58.6538C53.3327 58.8771 53.1466 59.0724 52.9234 59.184C52.1141 59.5933 51.4165 59.3329 51.0351 58.9329C50.7467 58.6538 50.5886 58.2724 50.5886 57.8631C50.5886 57.4632 50.7467 57.0818 51.0351 56.7841C51.3234 56.4958 51.7048 56.3376 52.1141 56.3376C52.5141 56.3376 52.9048 56.4958 53.1838 56.7748C53.6675 57.2771 53.7606 57.9748 53.4443 58.6538ZM56.607 74.2346L53.128 74.2811L53.0815 70.8022H56.5604L56.607 74.2346ZM85.6849 74.2346L82.206 74.2811L82.1595 70.8022H85.6384L85.6849 74.2346ZM67.6391 59.6305L67.6205 58.4585C67.6391 58.3748 67.6391 58.291 67.6298 58.198V58.1887C67.6298 58.1608 67.6484 58.1422 67.6484 58.1143C67.6484 58.0678 67.6298 58.0306 67.6205 57.9934L67.5926 56.1609H71.0715L71.0994 57.9934C71.0901 58.0399 71.0715 58.0771 71.0715 58.1236C71.0715 58.1515 71.0808 58.1701 71.0901 58.198V58.2073C71.0715 58.3282 71.0808 58.4399 71.1087 58.5422L71.1273 59.5933L67.6391 59.6305ZM87.9267 58.6538C87.815 58.8771 87.629 59.0724 87.4058 59.184C86.5965 59.5933 85.8988 59.3329 85.5175 58.9329C85.2291 58.6538 85.071 58.2724 85.071 57.8631C85.071 57.4632 85.2291 57.0818 85.5175 56.7841C85.8058 56.4958 86.1872 56.3376 86.5965 56.3376C86.9965 56.3376 87.3872 56.4958 87.6662 56.7748C88.1499 57.2771 88.2429 57.9748 87.9267 58.6538Z" fill="#32325F"/>
</svg>
