<svg width="135" height="135" viewBox="0 0 135 135" fill="none" xmlns="http://www.w3.org/2000/svg">
<circle cx="66" cy="66" r="66" fill="white" fill-opacity="0.5"/>
<circle cx="69.5" cy="69.5" r="64.5" stroke="#32325F" stroke-width="2"/>
<path d="M73.5075 46H90.7364C92.0335 46 93.0003 47.1584 93.0003 48.4232V59.2753C93.0003 60.5401 92.0335 61.6985 90.7364 61.6985H73.5075C72.2003 61.6985 71.2433 60.5401 71.2433 59.2753V57.3092L67.5766 55.4383C66.4497 54.8642 66.4497 53.1744 67.5766 52.6003C68.7991 51.9733 70.0212 51.3568 71.2433 50.7295V48.4232C71.2429 47.1584 72.1999 46 73.5075 46ZM90.7364 47.4985H73.5075C73.0294 47.4985 72.7422 47.9875 72.7422 48.4232V51.187C72.7422 51.4525 72.5937 51.7183 72.3278 51.8458C70.9669 52.5474 69.6173 53.2491 68.2568 53.9398C68.1826 53.9822 68.2036 54.0778 68.2568 54.0992L72.2644 56.1613C72.4046 56.2146 72.5254 56.3091 72.6108 56.4324C72.6961 56.5557 72.7421 56.7021 72.7426 56.852V59.2753C72.7426 59.711 73.0298 60.2 73.5079 60.2H90.7368C91.2149 60.2 91.5022 59.711 91.5022 59.2753V48.4232C91.5018 47.9875 91.2145 47.4985 90.7364 47.4985Z" fill="#32325F"/>
<path d="M76.6636 51.2822C75.6748 51.2822 75.6748 49.7837 76.6636 49.7837H87.9087C88.8867 49.7837 88.8867 51.2822 87.9087 51.2822H76.6636ZM76.6636 57.9253C75.6748 57.9253 75.6748 56.4264 76.6636 56.4264H83.3386C84.3271 56.4264 84.3271 57.9253 83.3386 57.9253H76.6636ZM76.6636 54.5987C75.6748 54.5987 75.6748 53.0998 76.6636 53.0998H87.9087C88.8867 53.0998 88.8867 54.5987 87.9087 54.5987H76.6636ZM54.6509 60.1891C54.4448 60.1105 54.2457 60.0145 54.0558 59.9023L53.9384 60.7633L56.4044 63.5371L58.8595 60.7633L58.7425 59.9023C58.5621 60.0084 58.3705 60.1044 58.1579 60.1891C57.1698 60.5825 55.6289 60.5825 54.6509 60.1891ZM52.6953 58.8076L52.6211 58.7439C51.4728 57.7235 50.91 56.3207 50.91 54.7899V51.346C50.91 48.0936 53.2057 46 56.4048 46C59.6039 46 61.8891 48.0936 61.8891 51.346V54.7899C61.8891 56.3207 61.3259 57.7235 60.178 58.7439L60.1034 58.8076L60.3479 60.6144L61.6341 61.7409L65.2798 63.3249C66.0666 63.6759 66.6936 64.2177 67.1293 64.898C67.5651 65.5887 67.7991 66.3965 67.7991 67.2575V69.3301C67.7991 69.7444 67.4694 70.0849 67.0551 70.0849C66.6407 70.0849 66.3002 69.7448 66.3002 69.3301V67.2575C66.3002 66.6728 66.1517 66.1415 65.8645 65.7057C65.5797 65.2599 65.1692 64.9086 64.6847 64.6962L61.6982 63.3995L60.4439 67.3216C60.3269 67.715 59.902 67.9276 59.5086 67.8106C59.4344 67.7787 59.3598 67.7468 59.296 67.6936L57.1488 66.131V69.3301C57.1488 69.7444 56.8195 70.0849 56.4052 70.0849C55.9908 70.0849 55.6499 69.7444 55.6499 69.3301V66.131L53.5136 67.7041L53.2904 67.8102C53.1016 67.8675 52.8977 67.8484 52.7228 67.757C52.5479 67.6655 52.4159 67.509 52.3552 67.3212L51.1117 63.3991L48.1144 64.6959C47.6149 64.919 47.211 65.2696 46.9346 65.7053C46.6582 66.1411 46.4989 66.6728 46.4989 67.2571V76.6631C46.4989 77.0779 46.1692 77.418 45.7549 77.418C45.3405 77.418 45 77.0786 45 76.6639V67.2575C45 66.3965 45.234 65.5887 45.6802 64.898C46.1055 64.2177 46.7325 63.6755 47.5189 63.3249L51.1646 61.7413L52.4508 60.6148L52.6953 58.8076ZM53.9388 57.9148C53.9812 57.9467 54.0134 57.9785 54.0453 58.0209C54.3959 58.3292 54.757 58.6269 55.1932 58.7968C55.8205 59.0413 56.9898 59.0413 57.6063 58.7968C58.042 58.6265 58.4035 58.3292 58.7541 58.0209C58.7864 57.9785 58.8288 57.9467 58.8711 57.9148C58.9776 57.8192 59.0838 57.7235 59.1794 57.6275C60.0085 56.8835 60.391 55.895 60.391 54.7899V53.1958C57.6382 53.7163 56.0755 52.4623 55.2783 51.421C54.3854 52.4732 53.2484 52.5261 52.4193 52.3667V54.7899C52.4193 55.895 52.7913 56.8835 53.6204 57.6275L53.9388 57.9148ZM53.0887 62.0491L52.4294 62.6232L53.4603 65.8756L55.2989 64.5365L53.0887 62.0491ZM59.7104 62.0491L57.5103 64.5365L59.3384 65.8756L60.3696 62.6232L59.7104 62.0491ZM49.4002 71.6475C49.4002 71.2332 49.7403 70.8927 50.1551 70.8927C50.5698 70.8927 50.8991 71.2328 50.8991 71.6475V76.6639C50.8991 77.0786 50.5695 77.4188 50.1551 77.4188C49.7407 77.4188 49.4002 77.079 49.4002 76.6639V71.6475ZM52.4403 50.836C53.0253 50.9848 54.0453 51.0272 54.598 49.6667C54.8639 49.0289 55.7459 49.0079 56.0009 49.72C56.0009 49.72 56.9467 52.4514 60.3906 51.6651V51.346C60.3906 48.9227 58.7751 47.4985 56.4048 47.4985C54.2684 47.4985 52.6638 48.6569 52.4403 50.836ZM76.1746 78.6626C74.8033 77.4506 74.1339 75.9945 74.1339 74.1555V70.2657C74.1339 66.6623 76.6741 64.3347 80.2351 64.3347C83.7852 64.3347 86.325 66.6627 86.325 70.2657V74.1555C86.325 75.9941 85.6658 77.4503 84.2952 78.6626L84.5929 81.7552L90.2153 83.8706C91.9583 84.6359 93 86.3261 93 88.2179V93.2451C93 93.6595 92.6602 94 92.2455 94C91.8308 94 91.5015 93.6599 91.5015 93.2451V88.2179C91.5015 86.9212 90.8321 85.7838 89.6306 85.2524L83.6363 82.9886C81.3942 82.2768 79.1296 82.1276 76.8552 82.7973L70.8287 85.2524C69.6384 85.7838 68.9687 86.9212 68.9687 88.2179V93.2451C68.9679 93.4451 68.8881 93.6366 68.7467 93.778C68.6053 93.9194 68.4138 93.9992 68.2138 94C67.7998 94 67.4702 93.6599 67.4702 93.2451V88.2179C67.4702 86.3261 68.5116 84.6359 70.2549 83.8706L75.899 81.5748L76.1746 78.6626ZM82.52 79.4062H77.939C77.7477 79.4062 77.588 79.5551 77.567 79.746L77.4395 81.1069C79.3096 80.7349 81.1913 80.8196 83.0408 81.2662L82.892 79.746C82.8811 79.5551 82.7217 79.4062 82.52 79.4062ZM77.8752 77.9291H82.5837C82.8597 77.9291 83.2002 77.6737 83.4979 77.3869C84.4013 76.494 84.8266 75.4526 84.8266 74.1559V70.2657C84.8266 67.4806 82.9666 65.8332 80.2351 65.8332C77.5036 65.8332 75.6328 67.481 75.6328 70.2657V74.1555C75.6328 75.5269 76.1323 76.6425 77.153 77.5463C77.3971 77.7694 77.6517 77.9291 77.8752 77.9291Z" fill="#32325F"/>
<path d="M52.7167 78.5029L53.9598 71.3817C54.1514 70.287 55.1928 69.3938 56.2983 69.3938H68.9357C70.1683 69.3938 71.0083 70.4464 70.796 71.6367L69.2016 80.724C68.9994 81.8932 67.8943 82.8498 66.7037 82.8498H50.4528C49.6233 82.8498 48.7946 82.3822 48.582 81.5317L48.072 79.4377C47.955 78.9596 48.3165 78.5025 48.795 78.5025L52.7167 78.5029ZM62.2611 75.3461C62.6755 75.3461 63.0051 75.6757 63.0051 76.0897C63.0051 76.5041 62.6755 76.8446 62.2611 76.8446C61.8467 76.8446 61.5062 76.5045 61.5062 76.0897C61.5066 75.6757 61.8467 75.3461 62.2611 75.3461ZM53.8432 80.7243C53.7899 81.0858 53.9707 81.3513 54.3427 81.3513H66.7041C67.1822 81.3513 67.6393 80.937 67.7248 80.469L69.3189 71.3817C69.3722 71.0944 69.2233 70.8927 68.9361 70.8927H56.2987C55.9053 70.8927 55.5119 71.2437 55.4377 71.6367L53.8432 80.7243ZM52.4508 80.0013H49.7512L50.0381 81.1706C50.166 81.3937 50.3463 81.351 50.4528 81.351H52.3871C52.3233 81.0641 52.3233 80.7558 52.3657 80.4686L52.4508 80.0013Z" fill="#32325F"/>
</svg>
