<svg width="135" height="135" viewBox="0 0 135 135" fill="none" xmlns="http://www.w3.org/2000/svg">
<circle cx="66" cy="66" r="66" fill="white" fill-opacity="0.5"/>
<circle cx="69.5" cy="69.5" r="64.5" stroke="#32325F" stroke-width="2"/>
<path d="M64.9966 85.9668C69.4716 85.9699 73.8169 84.4638 77.3301 81.6919L80.2094 84.5712C80.2534 85.345 80.5798 86.0758 81.1267 86.625L87.525 93.0233C87.8201 93.3289 88.1731 93.5726 88.5634 93.7403C88.9538 93.9079 89.3735 93.9962 89.7983 93.9999C90.2231 94.0036 90.6444 93.9226 91.0375 93.7618C91.4307 93.6009 91.7879 93.3634 92.0883 93.063C92.3886 92.7626 92.6262 92.4054 92.787 92.0123C92.9479 91.6191 93.0288 91.1978 93.0252 90.773C93.0215 90.3483 92.9332 89.9285 92.7655 89.5382C92.5979 89.1479 92.3542 88.7948 92.0486 88.4997L85.6503 82.1014C85.1055 81.5743 84.3886 81.2616 83.6317 81.2209L80.7164 78.3057C86.4557 70.978 86.3757 60.6583 80.5237 53.4203C74.6716 46.1822 64.5967 43.9428 56.2301 48.0217C47.8636 52.0982 43.4199 61.4133 45.5146 70.4813C47.61 79.5517 55.6887 85.9724 64.9966 85.9668ZM90.9209 89.6346C91.2208 89.9346 91.3892 90.3414 91.3892 90.7655C91.3892 91.1897 91.2208 91.5965 90.9209 91.8964C90.6163 92.1874 90.2113 92.3498 89.79 92.3498C89.3688 92.3498 88.9637 92.1874 88.6591 91.8964L82.2608 85.4981C82.108 85.3506 81.9862 85.1741 81.9023 84.9789C81.8185 84.7838 81.7744 84.5739 81.7725 84.3615C81.7707 84.1491 81.8112 83.9385 81.8916 83.7419C81.972 83.5453 82.0908 83.3667 82.241 83.2165C82.3912 83.0663 82.5698 82.9475 82.7664 82.8671C82.9629 82.7867 83.1736 82.7462 83.386 82.7481C83.5983 82.7499 83.8082 82.794 84.0034 82.8779C84.1986 82.9617 84.3751 83.0836 84.5226 83.2363L90.9209 89.6346ZM81.7777 81.6288C81.5412 81.7588 81.3232 81.9202 81.1299 82.1086C80.9436 82.3006 80.782 82.5165 80.65 82.7485L78.553 80.653C78.9425 80.2931 79.3168 79.918 79.6775 79.5285L81.7777 81.6288ZM64.9966 47.577C75.1563 47.577 83.3917 55.8124 83.3917 65.9721C83.3917 76.1318 75.1563 84.3672 64.9966 84.3672C54.8369 84.3672 46.6015 76.1318 46.6015 65.9721C46.6127 55.8172 54.8417 47.5882 64.9966 47.577Z" fill="#32325F"/>
<path d="M64.9967 82.7676C74.2726 82.7676 81.7922 75.248 81.7922 65.972C81.7922 56.6961 74.2726 49.1765 64.9967 49.1765C55.7208 49.1765 48.2012 56.6961 48.2012 65.972C48.2116 75.2432 55.7256 82.7572 64.9967 82.7676ZM64.9967 50.7761C73.3889 50.7761 80.1927 57.5799 80.1927 65.972C80.1927 74.3642 73.3889 81.168 64.9967 81.168C56.6045 81.168 49.8007 74.3642 49.8007 65.972C49.8103 57.5831 56.6077 50.7857 64.9967 50.7761Z" fill="#32325F"/>
<path fill-rule="evenodd" clip-rule="evenodd" d="M56.999 73.9701H73.7945C74.0066 73.9701 74.2101 73.8858 74.3601 73.7359C74.51 73.5859 74.5943 73.3824 74.5943 73.1703C74.5943 72.9582 74.51 72.7548 74.3601 72.6048C74.2101 72.4548 74.0066 72.3705 73.7945 72.3705H56.999V58.7742C56.999 58.562 56.9147 58.3586 56.7647 58.2086C56.6147 58.0586 56.4113 57.9744 56.1992 57.9744C55.9871 57.9744 55.7837 58.0586 55.6337 58.2086C55.4837 58.3586 55.3994 58.562 55.3994 58.7742V72.3705C55.3994 72.7948 55.5679 73.2016 55.8679 73.5016C56.1679 73.8016 56.5748 73.9701 56.999 73.9701Z" fill="#32325F"/>
<path fill-rule="evenodd" clip-rule="evenodd" d="M59.3984 70.7709C59.6105 70.7709 59.814 70.6866 59.964 70.5366C60.1139 70.3866 60.1982 70.1832 60.1982 69.9711V66.7719C60.1982 66.5598 60.1139 66.3564 59.964 66.2064C59.814 66.0564 59.6105 65.9721 59.3984 65.9721C59.1863 65.9721 58.9829 66.0564 58.8329 66.2064C58.6829 66.3564 58.5986 66.5598 58.5986 66.7719V69.9711C58.5986 70.1832 58.6829 70.3866 58.8329 70.5366C58.9829 70.6866 59.1863 70.7709 59.3984 70.7709ZM61.7978 65.1723V68.3715C61.7978 68.5836 61.882 68.787 62.032 68.937C62.182 69.087 62.3855 69.1713 62.5976 69.1713C62.8097 69.1713 63.0131 69.087 63.1631 68.937C63.3131 68.787 63.3974 68.5836 63.3974 68.3715V65.1723C63.3974 64.9602 63.3131 64.7568 63.1631 64.6068C63.0131 64.4568 62.8097 64.3726 62.5976 64.3726C62.3855 64.3726 62.182 64.4568 62.032 64.6068C61.882 64.7568 61.7978 64.9602 61.7978 65.1723ZM64.9969 66.7719V69.9711C64.9969 70.1832 65.0812 70.3866 65.2312 70.5366C65.3812 70.6866 65.5846 70.7709 65.7967 70.7709C66.0088 70.7709 66.2123 70.6866 66.3623 70.5366C66.5122 70.3866 66.5965 70.1832 66.5965 69.9711V66.7719C66.5965 66.5598 66.5122 66.3564 66.3623 66.2064C66.2123 66.0564 66.0088 65.9721 65.7967 65.9721C65.5846 65.9721 65.3812 66.0564 65.2312 66.2064C65.0812 66.3564 64.9969 66.5598 64.9969 66.7719ZM68.1961 65.1723V68.3715C68.1961 68.5836 68.2803 68.787 68.4303 68.937C68.5803 69.087 68.7837 69.1713 68.9959 69.1713C69.208 69.1713 69.4114 69.087 69.5614 68.937C69.7114 68.787 69.7957 68.5836 69.7957 68.3715V65.1723C69.7957 64.9602 69.7114 64.7568 69.5614 64.6068C69.4114 64.4568 69.208 64.3726 68.9959 64.3726C68.7837 64.3726 68.5803 64.4568 68.4303 64.6068C68.2803 64.7568 68.1961 64.9602 68.1961 65.1723ZM71.3952 66.7719V69.9711C71.3952 70.1832 71.4795 70.3866 71.6295 70.5366C71.7795 70.6866 71.9829 70.7709 72.195 70.7709C72.4071 70.7709 72.6106 70.6866 72.7606 70.5366C72.9105 70.3866 72.9948 70.1832 72.9948 69.9711V66.7719C72.9948 66.5598 72.9105 66.3564 72.7606 66.2064C72.6106 66.0564 72.4071 65.9721 72.195 65.9721C71.9829 65.9721 71.7795 66.0564 71.6295 66.2064C71.4795 66.3564 71.3952 66.5598 71.3952 66.7719Z" fill="#32325F"/>
<path fill-rule="evenodd" clip-rule="evenodd" d="M59.3984 64.3726C59.5712 64.3726 59.7399 64.3166 59.8783 64.2127L62.5976 62.1732L64.9218 63.9159C65.4056 64.2814 66.055 64.3398 66.5965 64.0671L68.9959 62.8674L71.3216 64.0303C71.622 64.1805 71.962 64.2323 72.2934 64.1785C72.6249 64.1247 72.931 63.9679 73.1684 63.7304L74.36 62.5387C74.5057 62.3879 74.5863 62.1858 74.5845 61.9761C74.5827 61.7664 74.4986 61.5658 74.3503 61.4176C74.202 61.2693 74.0014 61.1852 73.7917 61.1833C73.582 61.1815 73.38 61.2621 73.2291 61.4078L72.0375 62.5995L69.7157 61.4366C69.4932 61.3261 69.2482 61.2686 68.9999 61.2686C68.7515 61.2686 68.5065 61.3261 68.2841 61.4366L65.8847 62.6363L63.5573 60.8943C63.2799 60.6879 62.9434 60.5764 62.5976 60.5764C62.2518 60.5764 61.9152 60.6879 61.6378 60.8943L58.9185 62.933C58.7843 63.0337 58.6851 63.1741 58.635 63.3344C58.585 63.4946 58.5866 63.6665 58.6397 63.8257C58.6928 63.985 58.7946 64.1235 58.9308 64.2217C59.067 64.3198 59.2306 64.3726 59.3984 64.3726Z" fill="#32325F"/>
</svg>
