<svg width="135" height="135" viewBox="0 0 135 135" fill="none" xmlns="http://www.w3.org/2000/svg">
<circle cx="66" cy="66" r="66" fill="white" fill-opacity="0.5"/>
<circle cx="69.5" cy="69.5" r="64.5" stroke="#32325F" stroke-width="2"/>
<path d="M89.8 46H48.2C47.3513 46 46.5374 46.3371 45.9373 46.9373C45.3371 47.5374 45 48.3513 45 49.2V90.8C45 91.6487 45.3371 92.4626 45.9373 93.0627C46.5374 93.6629 47.3513 94 48.2 94H89.8C90.6487 94 91.4626 93.6629 92.0627 93.0627C92.6629 92.4626 93 91.6487 93 90.8V49.2C93 48.3513 92.6629 47.5374 92.0627 46.9373C91.4626 46.3371 90.6487 46 89.8 46ZM46.6 49.2C46.6 48.7757 46.7686 48.3687 47.0686 48.0686C47.3687 47.7686 47.7757 47.6 48.2 47.6H89.8C90.2243 47.6 90.6313 47.7686 90.9314 48.0686C91.2314 48.3687 91.4 48.7757 91.4 49.2V54H46.6V49.2ZM91.4 90.8C91.4 91.2243 91.2314 91.6313 90.9314 91.9314C90.6313 92.2314 90.2243 92.4 89.8 92.4H48.2C47.7757 92.4 47.3687 92.2314 47.0686 91.9314C46.7686 91.6313 46.6 91.2243 46.6 90.8V55.6H91.4V90.8Z" fill="#32325F"/>
<path d="M49.799 51.5998C50.2409 51.5998 50.599 51.2416 50.599 50.7998C50.599 50.3579 50.2409 49.9998 49.799 49.9998C49.3572 49.9998 48.999 50.3579 48.999 50.7998C48.999 51.2416 49.3572 51.5998 49.799 51.5998Z" fill="#32325F"/>
<path d="M52.9992 51.5998C53.441 51.5998 53.7992 51.2416 53.7992 50.7998C53.7992 50.3579 53.441 49.9998 52.9992 49.9998C52.5574 49.9998 52.1992 50.3579 52.1992 50.7998C52.1992 51.2416 52.5574 51.5998 52.9992 51.5998Z" fill="#32325F"/>
<path d="M56.1994 51.5998C56.6412 51.5998 56.9994 51.2416 56.9994 50.7998C56.9994 50.3579 56.6412 49.9998 56.1994 49.9998C55.7576 49.9998 55.3994 50.3579 55.3994 50.7998C55.3994 51.2416 55.7576 51.5998 56.1994 51.5998Z" fill="#32325F"/>
<path d="M88.2006 49.9998H85.0006C84.7884 49.9998 84.5849 50.084 84.4349 50.2341C84.2849 50.3841 84.2006 50.5876 84.2006 50.7998C84.2006 51.0119 84.2849 51.2154 84.4349 51.3654C84.5849 51.5155 84.7884 51.5998 85.0006 51.5998H88.2006C88.4128 51.5998 88.6162 51.5155 88.7663 51.3654C88.9163 51.2154 89.0006 51.0119 89.0006 50.7998C89.0006 50.5876 88.9163 50.3841 88.7663 50.2341C88.6162 50.084 88.4128 49.9998 88.2006 49.9998ZM77.0006 71.5998H83.4006C84.0371 71.5998 84.6476 71.3469 85.0976 70.8968C85.5477 70.4467 85.8006 69.8363 85.8006 69.1998V68.1278C85.8006 67.9156 85.7163 67.7121 85.5663 67.5621C85.4162 67.412 85.2128 67.3278 85.0006 67.3278C84.7884 67.3278 84.5849 67.412 84.4349 67.5621C84.2849 67.7121 84.2006 67.9156 84.2006 68.1278V69.1998C84.2006 69.4119 84.1163 69.6154 83.9663 69.7654C83.8162 69.9155 83.6128 69.9998 83.4006 69.9998H77.0006C76.7884 69.9998 76.5849 69.9155 76.4349 69.7654C76.2849 69.6154 76.2006 69.4119 76.2006 69.1998V62.7998C76.2006 62.5876 76.2849 62.3841 76.4349 62.2341C76.5849 62.084 76.7884 61.9998 77.0006 61.9998H82.8726C83.0848 61.9998 83.2882 61.9155 83.4383 61.7654C83.5883 61.6154 83.6726 61.4119 83.6726 61.1998C83.6726 60.9876 83.5883 60.7841 83.4383 60.6341C83.2882 60.484 83.0848 60.3998 82.8726 60.3998H77.0006C76.3641 60.3998 75.7536 60.6526 75.3035 61.1027C74.8534 61.5528 74.6006 62.1632 74.6006 62.7998V69.1998C74.6006 69.8363 74.8534 70.4467 75.3035 70.8968C75.7536 71.3469 76.3641 71.5998 77.0006 71.5998Z" fill="#32325F"/>
<path d="M78.3662 65.4345C78.2153 65.2888 78.0132 65.2082 77.8035 65.21C77.5937 65.2118 77.3931 65.2959 77.2447 65.4443C77.0964 65.5926 77.0123 65.7932 77.0104 66.003C77.0086 66.2128 77.0893 66.4148 77.235 66.5657L79.635 68.9657C79.7792 69.11 79.973 69.1937 80.1769 69.1998C80.3807 69.2059 80.5792 69.1339 80.7318 68.9985L87.9318 62.5985C88.0136 62.5296 88.0807 62.4451 88.1293 62.3498C88.178 62.2546 88.207 62.1506 88.2148 62.0439C88.2226 61.9373 88.209 61.8302 88.1748 61.7289C88.1406 61.6276 88.0864 61.5341 88.0155 61.4541C87.9447 61.374 87.8585 61.3089 87.7621 61.2627C87.6657 61.2164 87.561 61.19 87.4542 61.1848C87.3474 61.1796 87.2406 61.1958 87.1402 61.2325C87.0398 61.2693 86.9477 61.3257 86.8694 61.3985L80.2294 67.2977L78.3662 65.4345ZM77.0006 88.4001H83.4006C84.0371 88.4001 84.6476 88.1473 85.0976 87.6972C85.5477 87.2471 85.8006 86.6366 85.8006 86.0001V84.9281C85.8006 84.7159 85.7163 84.5125 85.5663 84.3624C85.4162 84.2124 85.2128 84.1281 85.0006 84.1281C84.7884 84.1281 84.5849 84.2124 84.4349 84.3624C84.2849 84.5125 84.2006 84.7159 84.2006 84.9281V86.0001C84.2006 86.2123 84.1163 86.4158 83.9663 86.5658C83.8162 86.7158 83.6128 86.8001 83.4006 86.8001H77.0006C76.7884 86.8001 76.5849 86.7158 76.4349 86.5658C76.2849 86.4158 76.2006 86.2123 76.2006 86.0001V79.6001C76.2006 79.3879 76.2849 79.1845 76.4349 79.0344C76.5849 78.8844 76.7884 78.8001 77.0006 78.8001H82.8726C83.0848 78.8001 83.2882 78.7158 83.4383 78.5658C83.5883 78.4158 83.6726 78.2123 83.6726 78.0001C83.6726 77.7879 83.5883 77.5845 83.4383 77.4344C83.2882 77.2844 83.0848 77.2001 82.8726 77.2001H77.0006C76.3641 77.2001 75.7536 77.453 75.3035 77.9031C74.8534 78.3531 74.6006 78.9636 74.6006 79.6001V86.0001C74.6006 86.6366 74.8534 87.2471 75.3035 87.6972C75.7536 88.1473 76.3641 88.4001 77.0006 88.4001Z" fill="#32325F"/>
<path d="M86.8696 78.2016L80.2296 84.1008L78.3632 82.2344C78.2123 82.0886 78.0102 82.008 77.8005 82.0098C77.5907 82.0116 77.3901 82.0958 77.2417 82.2441C77.0934 82.3924 77.0093 82.5931 77.0074 82.8028C77.0056 83.0126 77.0863 83.2147 77.232 83.3656L79.632 85.7656C79.7762 85.9098 79.97 85.9935 80.1739 85.9996C80.3777 86.0057 80.5762 85.9337 80.7288 85.7984L87.9288 79.3984C88.0106 79.3295 88.0777 79.2449 88.1263 79.1497C88.175 79.0544 88.204 78.9504 88.2118 78.8438C88.2196 78.7371 88.206 78.63 88.1718 78.5287C88.1376 78.4274 88.0834 78.334 88.0125 78.2539C87.9417 78.1739 87.8555 78.1088 87.7591 78.0625C87.6627 78.0163 87.558 77.9898 87.4512 77.9846C87.3444 77.9794 87.2376 77.9957 87.1372 78.0324C87.0367 78.0691 86.9447 78.1255 86.8664 78.1984L86.8696 78.2016ZM50.6008 66.8H70.6008C70.813 66.8 71.0164 66.7157 71.1665 66.5656C71.3165 66.4156 71.4008 66.2121 71.4008 66C71.4008 65.7878 71.3165 65.5843 71.1665 65.4343C71.0164 65.2842 70.813 65.2 70.6008 65.2H50.6008C50.3886 65.2 50.1851 65.2842 50.0351 65.4343C49.8851 65.5843 49.8008 65.7878 49.8008 66C49.8008 66.2121 49.8851 66.4156 50.0351 66.5656C50.1851 66.7157 50.3886 66.8 50.6008 66.8ZM50.6008 62.8H70.6008C70.813 62.8 71.0164 62.7157 71.1665 62.5656C71.3165 62.4156 71.4008 62.2121 71.4008 62C71.4008 61.7878 71.3165 61.5843 71.1665 61.4343C71.0164 61.2842 70.813 61.2 70.6008 61.2H50.6008C50.3886 61.2 50.1851 61.2842 50.0351 61.4343C49.8851 61.5843 49.8008 61.7878 49.8008 62C49.8008 62.2121 49.8851 62.4156 50.0351 62.5656C50.1851 62.7157 50.3886 62.8 50.6008 62.8ZM50.6008 70.8H61.8008C62.013 70.8 62.2164 70.7157 62.3665 70.5656C62.5165 70.4156 62.6008 70.2121 62.6008 70C62.6008 69.7878 62.5165 69.5843 62.3665 69.4343C62.2164 69.2842 62.013 69.2 61.8008 69.2H50.6008C50.3886 69.2 50.1851 69.2842 50.0351 69.4343C49.8851 69.5843 49.8008 69.7878 49.8008 70C49.8008 70.2121 49.8851 70.4156 50.0351 70.5656C50.1851 70.7157 50.3886 70.8 50.6008 70.8ZM50.6008 83.6H70.6008C70.813 83.6 71.0164 83.5157 71.1665 83.3656C71.3165 83.2156 71.4008 83.0121 71.4008 82.8C71.4008 82.5878 71.3165 82.3843 71.1665 82.2343C71.0164 82.0842 70.813 82 70.6008 82H50.6008C50.3886 82 50.1851 82.0842 50.0351 82.2343C49.8851 82.3843 49.8008 82.5878 49.8008 82.8C49.8008 83.0121 49.8851 83.2156 50.0351 83.3656C50.1851 83.5157 50.3886 83.6 50.6008 83.6ZM50.6008 79.6H70.6008C70.813 79.6 71.0164 79.5157 71.1665 79.3656C71.3165 79.2156 71.4008 79.0121 71.4008 78.8C71.4008 78.5878 71.3165 78.3843 71.1665 78.2343C71.0164 78.0842 70.813 78 70.6008 78H50.6008C50.3886 78 50.1851 78.0842 50.0351 78.2343C49.8851 78.3843 49.8008 78.5878 49.8008 78.8C49.8008 79.0121 49.8851 79.2156 50.0351 79.3656C50.1851 79.5157 50.3886 79.6 50.6008 79.6ZM50.6008 87.6H61.8008C62.013 87.6 62.2164 87.5157 62.3665 87.3656C62.5165 87.2156 62.6008 87.0121 62.6008 86.8C62.6008 86.5878 62.5165 86.3843 62.3665 86.2343C62.2164 86.0842 62.013 86 61.8008 86H50.6008C50.3886 86 50.1851 86.0842 50.0351 86.2343C49.8851 86.3843 49.8008 86.5878 49.8008 86.8C49.8008 87.0121 49.8851 87.2156 50.0351 87.3656C50.1851 87.5157 50.3886 87.6 50.6008 87.6Z" fill="#32325F"/>
</svg>
