<svg width="1524" height="300" viewBox="0 0 1524 300" fill="none" xmlns="http://www.w3.org/2000/svg">
<path d="M124.49 240.86H109.784V74.8736C109.784 74.4368 109.347 74 108.91 74H64.0649C63.6281 74 63.1913 74.4368 63.1913 74.8736V78.2225C63.1913 78.6593 63.6281 79.0961 64.0649 79.0961H79.3531V157.284C77.0235 152.043 73.9659 147.966 70.0346 144.908C65.5209 141.414 59.5513 139.667 52.2712 139.667C43.0982 139.667 35.0901 141.414 28.538 145.054C21.9859 148.694 16.5986 153.208 12.3762 158.595C8.15372 163.982 5.09607 169.952 3.05764 176.358C1.01921 182.765 0 188.734 0 194.267C0 201.402 1.31042 208.391 3.78565 214.797C6.26089 221.349 9.90094 227.173 14.4146 232.269C18.9283 237.366 24.4612 241.442 30.8676 244.5C37.2741 247.558 44.4086 249.014 52.2712 249.014C59.4057 249.014 65.3753 247.121 70.0346 243.335C74.1115 240.132 77.3147 235.764 79.7899 230.377V244.937C79.7899 245.374 80.2268 245.81 80.6636 245.81H124.49C124.927 245.81 125.363 245.374 125.363 244.937V241.588C125.218 241.297 124.927 240.86 124.49 240.86ZM34.0709 215.38C33.6341 209.264 33.4885 202.275 33.4885 194.559C33.4885 185.24 33.7797 177.232 34.5077 170.68C35.2357 164.273 36.4005 159.032 38.1478 155.246C39.7494 151.46 41.9334 148.694 44.4086 147.092C46.8839 145.491 50.2327 144.617 54.164 144.617C59.6969 144.617 64.2105 146.219 67.5594 149.276C70.9082 152.48 73.3834 156.556 75.1307 161.507C76.8779 166.457 77.8971 171.99 78.4795 177.814C79.0619 183.784 79.3531 189.317 79.3531 194.559C79.3531 199.509 79.2075 205.042 78.7707 210.72C78.3339 216.399 77.3147 221.932 75.4219 226.882C73.529 231.833 70.9082 236.055 67.2682 239.258C63.7737 242.462 58.6776 244.063 52.4167 244.063C48.1943 244.063 44.8454 242.898 42.5158 240.714C40.0406 238.53 38.1478 235.181 36.8373 230.959C35.3813 226.737 34.5077 221.495 34.0709 215.38Z" fill="#1A124D"/>
<path d="M236.313 163.691C231.799 157.43 225.975 152.188 218.986 147.82C211.998 143.452 204.572 140.686 197.001 139.521C189.429 138.356 182.004 138.502 175.015 139.812C168.026 141.268 161.328 144.034 155.358 148.111C149.389 152.188 144.438 157.43 140.507 163.691C136.576 170.097 134.1 176.941 133.081 184.075C132.062 191.21 132.644 198.344 134.537 205.333C136.43 212.322 139.633 218.874 144.147 225.135C148.661 231.396 154.485 236.637 161.474 241.005C168.463 245.374 175.888 248.14 183.46 249.305C186.954 249.887 190.303 250.178 193.652 250.178C197.729 250.178 201.66 249.742 205.445 249.014C212.434 247.558 219.132 244.791 225.102 240.714C231.071 236.637 236.022 231.396 239.953 224.989C243.739 218.728 246.214 212.031 247.233 204.751C248.252 197.616 247.67 190.482 245.777 183.493C243.884 176.649 240.681 169.952 236.313 163.691ZM226.412 176.213C225.393 181.017 223.355 186.113 220.588 191.355C217.822 196.742 214.618 202.13 211.415 207.371C208.066 212.759 204.572 218 201.077 222.951C197.583 227.756 193.943 231.832 190.157 234.89C186.372 237.948 182.295 239.841 178.072 240.423C173.85 241.005 169.045 239.841 164.094 236.637C158.998 233.58 155.795 229.94 154.485 225.863C153.174 221.786 152.883 217.272 154.048 212.467C155.067 207.663 157.106 202.566 159.872 197.325C162.638 191.938 165.842 186.55 169.191 181.163C172.394 175.921 175.888 170.68 179.383 165.729C182.877 160.924 186.517 156.847 190.303 153.79C194.089 150.732 198.165 148.839 202.388 148.257C203.116 148.111 203.844 148.111 204.572 148.111C208.212 148.111 212.143 149.422 216.366 152.043C221.462 155.1 224.665 158.74 225.975 162.817C227.286 167.04 227.431 171.553 226.412 176.213Z" fill="#1A124D"/>
<path d="M441.902 240.86H426.905V143.744C426.905 143.307 426.468 142.87 426.031 142.87H381.477C381.04 142.87 380.604 143.307 380.604 143.744V147.093C380.604 147.529 381.04 147.966 381.477 147.966H396.474V241.006H381.477C381.04 241.006 380.604 241.443 380.604 241.88V245.228C380.604 245.665 381.04 246.102 381.477 246.102H441.902C442.339 246.102 442.776 245.665 442.776 245.228V241.88C442.776 241.297 442.339 240.86 441.902 240.86Z" fill="#1A124D"/>
<path d="M411.619 110.692C416.424 110.692 420.501 108.945 423.995 105.45C427.489 101.956 429.237 97.8788 429.237 93.0739C429.237 88.269 427.489 84.1922 423.995 80.6977C420.501 77.2033 416.424 75.4561 411.619 75.4561C406.814 75.4561 402.737 77.2033 399.243 80.6977C395.748 84.1922 394.001 88.269 394.001 93.0739C394.001 97.8788 395.748 101.956 399.243 105.45C402.737 108.945 406.96 110.692 411.619 110.692Z" fill="#1A124D"/>
<path d="M578.623 173.301C575.711 166.749 571.488 160.925 566.246 155.974C561.005 151.024 554.744 147.093 547.755 144.181C540.62 141.269 532.904 139.812 524.604 139.812C516.305 139.812 508.588 141.269 501.453 144.181C494.465 147.093 488.204 151.169 482.962 155.974C477.72 160.925 473.498 166.749 470.586 173.301C467.674 179.853 466.218 186.988 466.218 194.268C466.218 201.693 467.674 208.828 470.586 215.526C473.498 222.078 477.72 227.902 482.962 232.852C488.204 237.803 494.465 241.734 501.453 244.646C508.588 247.558 516.305 249.014 524.604 249.014C532.904 249.014 540.62 247.558 547.755 244.646C554.744 241.734 561.005 237.657 566.246 232.852C571.488 227.902 575.711 222.078 578.623 215.526C581.535 208.973 582.991 201.839 582.991 194.268C583.136 186.988 581.535 179.999 578.623 173.301ZM549.648 194.268C549.648 200.674 549.502 206.935 549.065 212.905C548.629 218.874 547.609 224.262 546.008 228.921C544.406 233.435 541.931 237.22 538.582 239.987C535.233 242.753 530.574 244.209 524.75 244.209C518.78 244.209 514.121 242.753 510.918 239.987C507.569 237.22 505.094 233.435 503.492 228.921C501.89 224.262 500.871 218.874 500.434 212.905C499.997 206.935 499.852 200.674 499.852 194.268C499.852 188.007 499.997 181.746 500.434 175.776C500.871 169.807 501.89 164.419 503.492 159.76C505.094 155.246 507.569 151.461 510.918 148.694C514.266 145.928 518.926 144.472 524.75 144.472C530.72 144.472 535.379 145.928 538.582 148.694C541.931 151.461 544.406 155.246 546.008 159.76C547.609 164.419 548.629 169.807 549.065 175.776C549.357 181.891 549.648 188.152 549.648 194.268Z" fill="#1A124D"/>
<path d="M264.414 161.07C264.414 161.507 264.706 161.944 265.288 161.944C265.87 161.944 266.162 161.653 266.162 161.07C266.162 152.043 273.442 144.763 282.469 144.763C282.906 144.763 283.343 144.472 283.343 143.889C283.343 143.307 283.052 143.016 282.469 143.016C273.442 143.016 266.162 135.735 266.162 126.708C266.162 126.271 265.87 125.834 265.288 125.834C264.706 125.834 264.414 126.126 264.414 126.708C264.414 135.735 257.134 143.016 248.107 143.016C247.67 143.016 247.233 143.307 247.233 143.889C247.233 144.472 247.525 144.763 248.107 144.763C256.989 144.617 264.414 152.043 264.414 161.07Z" fill="#CA586E"/>
<path d="M366.772 244.063C357.745 244.063 350.464 236.783 350.464 227.756C350.464 227.319 350.173 226.882 349.591 226.882C349.008 226.882 348.717 227.174 348.717 227.756C348.717 236.783 341.437 244.063 332.41 244.063C331.973 244.063 331.536 244.355 331.536 244.937C331.536 245.519 331.827 245.811 332.41 245.811C341.437 245.811 348.717 253.091 348.717 262.118C348.717 262.555 349.008 262.992 349.591 262.992C350.173 262.992 350.464 262.7 350.464 262.118C350.464 253.091 357.745 245.811 366.772 245.811C367.209 245.811 367.645 245.519 367.645 244.937C367.645 244.355 367.209 244.063 366.772 244.063Z" fill="#CA586E"/>
<path d="M309.696 244.063C304.309 243.917 299.941 239.549 299.941 234.162C299.941 231.832 300.669 229.648 302.125 227.901L302.27 227.756L361.094 144.326C361.239 144.034 361.239 143.743 361.094 143.452C360.948 143.161 360.657 143.015 360.366 143.015H304.163H303.726C303.29 143.015 302.853 143.452 302.853 143.889C302.853 144.18 302.998 144.326 303.144 144.471C303.29 144.617 303.435 144.617 303.726 144.617H303.872H304.018C309.55 144.617 313.919 149.13 313.919 154.518C313.919 156.702 313.191 159.031 311.734 160.779L311.589 160.924L252.474 244.354C252.329 244.645 252.329 244.937 252.474 245.228C252.62 245.519 252.911 245.665 253.202 245.665H309.55C309.987 245.665 310.278 245.373 310.424 244.937C310.57 244.5 310.133 244.063 309.696 244.063Z" fill="#1A124D"/>
<rect x="780" width="144.8" height="260" fill="#19124D"/>
<path d="M811.196 275.294C811.07 276.163 810.952 277.023 810.843 277.874C810.753 278.725 810.644 279.585 810.518 280.454H813.07C813.179 279.585 813.287 278.725 813.396 277.874C813.505 277.023 813.613 276.163 813.722 275.294H816.247C816.139 276.163 816.03 277.023 815.922 277.874C815.831 278.725 815.722 279.585 815.596 280.454H818.284C818.248 280.852 818.212 281.259 818.176 281.676C818.157 282.074 818.121 282.481 818.067 282.898H815.324C815.288 283.314 815.243 283.74 815.188 284.174C815.134 284.609 815.08 285.052 815.025 285.505H817.741C817.687 285.903 817.632 286.31 817.578 286.727C817.524 287.125 817.479 287.533 817.442 287.949H814.727C814.636 288.8 814.537 289.642 814.428 290.474C814.338 291.307 814.238 292.149 814.129 293H811.604C811.694 292.149 811.794 291.307 811.902 290.474C812.011 289.642 812.111 288.8 812.201 287.949H809.676C809.585 288.8 809.486 289.642 809.377 290.474C809.268 291.307 809.169 292.149 809.078 293H806.526C806.634 292.149 806.734 291.307 806.824 290.474C806.933 289.642 807.032 288.8 807.123 287.949H804.679C804.733 287.533 804.778 287.125 804.815 286.727C804.869 286.31 804.923 285.903 804.978 285.505H807.422C807.476 285.052 807.53 284.609 807.585 284.174C807.639 283.74 807.693 283.314 807.748 282.898H805.304C805.358 282.481 805.403 282.074 805.439 281.676C805.475 281.259 805.512 280.852 805.548 280.454H808.019C808.128 279.585 808.227 278.725 808.318 277.874C808.426 277.023 808.535 276.163 808.644 275.294H811.196ZM810.273 282.898C810.219 283.314 810.164 283.74 810.11 284.174C810.056 284.609 810.002 285.052 809.947 285.505H812.5C812.554 285.052 812.599 284.609 812.636 284.174C812.69 283.74 812.744 283.314 812.799 282.898H810.273ZM821.138 275.104H825.972V293H823.066V277.901H821.138V275.104ZM835.641 293.272C834.573 293.272 833.604 293.054 832.735 292.62C831.866 292.167 831.178 291.497 830.671 290.61C830.164 289.723 829.911 288.628 829.911 287.324C829.911 286.039 830.173 284.935 830.698 284.011C831.241 283.088 831.947 282.382 832.816 281.893C833.704 281.386 834.663 281.133 835.695 281.133C836.781 281.133 837.668 281.368 838.356 281.839C839.062 282.291 839.615 282.825 840.013 283.441L839.823 283.875L840.094 281.622H842.674V293H839.877V290.149L840.176 290.827C840.103 290.972 839.95 291.181 839.714 291.452C839.479 291.706 839.162 291.977 838.764 292.267C838.383 292.556 837.931 292.801 837.406 293C836.899 293.181 836.311 293.272 835.641 293.272ZM836.401 290.99C836.999 290.99 837.533 290.882 838.003 290.665C838.474 290.447 838.872 290.14 839.198 289.741C839.524 289.343 839.75 288.872 839.877 288.329V285.967C839.732 285.46 839.488 285.025 839.144 284.663C838.8 284.283 838.383 283.984 837.895 283.767C837.424 283.55 836.899 283.441 836.32 283.441C835.668 283.441 835.07 283.604 834.527 283.93C833.984 284.238 833.55 284.672 833.224 285.233C832.898 285.795 832.735 286.446 832.735 287.189C832.735 287.895 832.898 288.537 833.224 289.117C833.568 289.696 834.02 290.158 834.582 290.502C835.143 290.827 835.749 290.99 836.401 290.99ZM846.226 275.104H851.06V293H848.154V277.901H846.226V275.104ZM855.297 293C856.42 291.859 857.506 290.755 858.556 289.687C859.606 288.619 860.547 287.578 861.38 286.564C862.231 285.55 862.892 284.572 863.363 283.631C863.851 282.69 864.096 281.775 864.096 280.888C864.096 280.345 864.005 279.874 863.824 279.476C863.661 279.06 863.426 278.725 863.118 278.471C862.81 278.2 862.466 278.001 862.086 277.874C861.706 277.729 861.299 277.657 860.864 277.657C860.303 277.657 859.823 277.747 859.425 277.928C859.027 278.109 858.701 278.345 858.447 278.634C858.212 278.906 858.031 279.205 857.904 279.53C857.777 279.856 857.714 280.182 857.714 280.508C857.714 281.106 857.805 281.64 857.986 282.11C858.185 282.581 858.447 282.988 858.773 283.332L857.008 284.962C856.555 284.69 856.166 284.301 855.84 283.794C855.533 283.269 855.297 282.717 855.134 282.137C854.971 281.558 854.89 281.042 854.89 280.59C854.89 279.594 855.134 278.671 855.623 277.82C856.13 276.951 856.863 276.245 857.823 275.701C858.8 275.158 859.977 274.887 861.353 274.887C862.512 274.887 863.517 275.149 864.367 275.674C865.236 276.199 865.906 276.905 866.377 277.792C866.866 278.661 867.11 279.612 867.11 280.644C867.11 281.531 866.938 282.4 866.594 283.251C866.25 284.102 865.789 284.944 865.209 285.776C864.648 286.591 864.014 287.406 863.308 288.22C862.62 289.017 861.932 289.823 861.244 290.637L859.941 290.203H867.626V293H855.297ZM869.008 288.764V288.736L880.033 274.887H880.06V286.537H882.341V288.764H880.06V293H877.155V288.764H869.008ZM877.318 281.377L873.244 286.673L872.837 286.537H877.155V280.943L877.318 281.377ZM890.11 293.272C889.042 293.272 888.082 293.027 887.231 292.538C886.38 292.031 885.711 291.316 885.222 290.393C884.733 289.47 884.489 288.392 884.489 287.161C884.489 285.894 884.751 284.817 885.276 283.93C885.801 283.025 886.507 282.337 887.394 281.866C888.299 281.377 889.313 281.133 890.436 281.133C891.305 281.133 892.129 281.314 892.907 281.676C893.704 282.02 894.319 282.509 894.754 283.142L894.672 284.093V271.9H897.442V293H894.645V290.312L894.944 291.045C894.382 291.678 893.695 292.212 892.88 292.647C892.065 293.063 891.142 293.272 890.11 293.272ZM890.979 290.909C891.613 290.909 892.174 290.8 892.663 290.583C893.151 290.366 893.568 290.058 893.912 289.66C894.256 289.243 894.5 288.764 894.645 288.22V285.939C894.518 285.432 894.274 284.989 893.912 284.609C893.568 284.21 893.142 283.903 892.635 283.685C892.129 283.468 891.576 283.36 890.979 283.36C890.309 283.36 889.693 283.522 889.132 283.848C888.589 284.156 888.146 284.591 887.802 285.152C887.476 285.713 887.313 286.365 887.313 287.107C887.313 287.813 887.476 288.456 887.802 289.035C888.146 289.615 888.598 290.076 889.159 290.42C889.721 290.746 890.327 290.909 890.979 290.909Z" fill="#32325F"/>
<rect x="930" width="144.8" height="260" fill="#351E58"/>
<path d="M961.196 275.294C961.07 276.163 960.952 277.023 960.843 277.874C960.753 278.725 960.644 279.585 960.518 280.454H963.07C963.179 279.585 963.287 278.725 963.396 277.874C963.505 277.023 963.613 276.163 963.722 275.294H966.247C966.139 276.163 966.03 277.023 965.922 277.874C965.831 278.725 965.722 279.585 965.596 280.454H968.284C968.248 280.852 968.212 281.259 968.176 281.676C968.157 282.074 968.121 282.481 968.067 282.898H965.324C965.288 283.314 965.243 283.74 965.188 284.174C965.134 284.609 965.08 285.052 965.025 285.505H967.741C967.687 285.903 967.632 286.31 967.578 286.727C967.524 287.125 967.479 287.533 967.442 287.949H964.727C964.636 288.8 964.537 289.642 964.428 290.474C964.338 291.307 964.238 292.149 964.129 293H961.604C961.694 292.149 961.794 291.307 961.902 290.474C962.011 289.642 962.111 288.8 962.201 287.949H959.676C959.585 288.8 959.486 289.642 959.377 290.474C959.268 291.307 959.169 292.149 959.078 293H956.526C956.634 292.149 956.734 291.307 956.824 290.474C956.933 289.642 957.032 288.8 957.123 287.949H954.679C954.733 287.533 954.778 287.125 954.815 286.727C954.869 286.31 954.923 285.903 954.978 285.505H957.422C957.476 285.052 957.53 284.609 957.585 284.174C957.639 283.74 957.693 283.314 957.748 282.898H955.304C955.358 282.481 955.403 282.074 955.439 281.676C955.475 281.259 955.512 280.852 955.548 280.454H958.019C958.128 279.585 958.227 278.725 958.318 277.874C958.426 277.023 958.535 276.163 958.644 275.294H961.196ZM960.273 282.898C960.219 283.314 960.164 283.74 960.11 284.174C960.056 284.609 960.002 285.052 959.947 285.505H962.5C962.554 285.052 962.599 284.609 962.636 284.174C962.69 283.74 962.744 283.314 962.799 282.898H960.273ZM981.702 275.104L977.058 282.816L975.375 282.002C975.61 281.875 975.855 281.784 976.108 281.73C976.38 281.676 976.651 281.649 976.923 281.649C977.593 281.631 978.244 281.712 978.878 281.893C979.512 282.056 980.082 282.355 980.589 282.789C981.096 283.206 981.494 283.758 981.784 284.446C982.091 285.134 982.245 286.003 982.245 287.053C982.245 288.32 981.956 289.415 981.376 290.339C980.797 291.262 980.028 291.977 979.068 292.484C978.109 292.973 977.049 293.217 975.891 293.217C975.04 293.217 974.162 293.045 973.257 292.701C972.369 292.339 971.645 291.859 971.084 291.262L972.578 288.872C972.904 289.271 973.365 289.633 973.963 289.958C974.56 290.266 975.185 290.42 975.836 290.42C976.452 290.42 977.013 290.284 977.52 290.013C978.045 289.723 978.462 289.316 978.769 288.791C979.095 288.248 979.258 287.605 979.258 286.863C979.258 285.885 978.968 285.116 978.389 284.554C977.828 283.975 977.04 283.685 976.027 283.685C975.502 283.685 975.067 283.722 974.723 283.794C974.379 283.866 974.071 283.948 973.8 284.038L973.691 283.957L977.71 277.521L978.579 277.874H972.225V275.104H981.702ZM991.463 293.217C990.25 293.217 989.145 292.928 988.149 292.348C987.172 291.769 986.393 290.936 985.814 289.85C985.235 288.764 984.945 287.469 984.945 285.967C984.945 284.808 985.171 283.703 985.624 282.653C986.077 281.603 986.683 280.617 987.443 279.693C988.222 278.752 989.091 277.883 990.05 277.086C991.028 276.29 992.042 275.557 993.092 274.887L995.02 277.005C993.554 277.693 992.332 278.489 991.354 279.395C990.376 280.3 989.625 281.223 989.1 282.165C988.575 283.106 988.276 283.993 988.204 284.826L987.471 284.717C987.959 283.685 988.593 282.889 989.372 282.328C990.168 281.748 991.191 281.459 992.44 281.459C993.345 281.459 994.205 281.712 995.02 282.219C995.853 282.708 996.523 283.378 997.03 284.229C997.537 285.079 997.79 286.066 997.79 287.189C997.79 288.42 997.491 289.488 996.894 290.393C996.296 291.298 995.518 291.995 994.558 292.484C993.599 292.973 992.567 293.217 991.463 293.217ZM991.354 290.61C992.006 290.61 992.585 290.474 993.092 290.203C993.617 289.913 994.033 289.515 994.341 289.008C994.649 288.483 994.803 287.877 994.803 287.189C994.803 286.519 994.649 285.939 994.341 285.451C994.033 284.962 993.617 284.582 993.092 284.31C992.567 284.038 991.988 283.903 991.354 283.903C990.72 283.903 990.141 284.038 989.616 284.31C989.109 284.563 988.702 284.916 988.394 285.369C988.086 285.804 987.932 286.292 987.932 286.836V287.324C987.932 287.904 988.077 288.447 988.367 288.954C988.675 289.461 989.091 289.868 989.616 290.176C990.141 290.465 990.72 290.61 991.354 290.61ZM1000.26 275.104H1005.09V293H1002.19V277.901H1000.26V275.104ZM1015.36 293.272C1014.04 293.272 1012.9 293.018 1011.96 292.511C1011.02 291.986 1010.3 291.271 1009.79 290.366C1009.28 289.443 1009.03 288.392 1009.03 287.216C1009.03 286.093 1009.31 285.079 1009.87 284.174C1010.45 283.251 1011.22 282.518 1012.18 281.975C1013.16 281.431 1014.23 281.16 1015.41 281.16C1016.93 281.16 1018.19 281.603 1019.19 282.491C1020.2 283.378 1020.88 284.618 1021.22 286.211L1011.96 289.415L1011.31 287.786L1018.72 285.125L1018.15 285.478C1017.94 284.916 1017.59 284.428 1017.12 284.011C1016.65 283.577 1016.01 283.36 1015.19 283.36C1014.54 283.36 1013.95 283.522 1013.43 283.848C1012.92 284.156 1012.51 284.591 1012.21 285.152C1011.92 285.695 1011.77 286.338 1011.77 287.08C1011.77 287.84 1011.93 288.51 1012.23 289.089C1012.56 289.651 1012.99 290.094 1013.54 290.42C1014.1 290.746 1014.72 290.909 1015.41 290.909C1015.9 290.909 1016.36 290.818 1016.8 290.637C1017.25 290.456 1017.67 290.23 1018.07 289.958L1019.35 292.022C1018.75 292.403 1018.1 292.71 1017.39 292.946C1016.71 293.163 1016.03 293.272 1015.36 293.272ZM1028.81 293.217C1027.83 293.217 1026.89 293.036 1025.98 292.674C1025.08 292.312 1024.35 291.868 1023.81 291.343L1025.33 289.062C1025.69 289.479 1026.17 289.814 1026.77 290.067C1027.39 290.321 1027.98 290.447 1028.56 290.447C1029.2 290.447 1029.75 290.312 1030.22 290.04C1030.71 289.768 1031.09 289.388 1031.36 288.899C1031.65 288.411 1031.8 287.849 1031.8 287.216C1031.8 286.528 1031.67 285.921 1031.42 285.396C1031.16 284.853 1030.78 284.428 1030.28 284.12C1029.77 283.812 1029.15 283.658 1028.43 283.658C1027.81 283.658 1027.23 283.749 1026.69 283.93C1026.17 284.093 1025.6 284.346 1024.98 284.69H1024.95V275.104H1033.59V277.874H1027.48V282.11L1027.1 281.513C1027.41 281.422 1027.73 281.35 1028.08 281.296C1028.42 281.241 1028.76 281.214 1029.11 281.214C1030.34 281.214 1031.37 281.486 1032.2 282.029C1033.05 282.572 1033.7 283.287 1034.13 284.174C1034.57 285.061 1034.78 286.039 1034.78 287.107C1034.78 288.248 1034.52 289.28 1034 290.203C1033.49 291.126 1032.78 291.859 1031.88 292.403C1030.97 292.946 1029.95 293.217 1028.81 293.217ZM1037.05 287.324C1037.05 286.401 1037.22 285.604 1037.57 284.935C1037.93 284.265 1038.37 283.703 1038.9 283.251C1039.42 282.798 1039.95 282.454 1040.47 282.219C1039.96 281.857 1039.54 281.431 1039.19 280.943C1038.87 280.436 1038.71 279.793 1038.71 279.015C1038.71 278.2 1038.91 277.485 1039.33 276.869C1039.75 276.254 1040.32 275.774 1041.04 275.43C1041.77 275.068 1042.58 274.887 1043.49 274.887C1044.39 274.887 1045.21 275.068 1045.93 275.43C1046.65 275.774 1047.22 276.245 1047.64 276.842C1048.07 277.439 1048.29 278.118 1048.29 278.879C1048.29 279.73 1048.12 280.409 1047.78 280.915C1047.43 281.404 1047 281.839 1046.47 282.219C1047.02 282.472 1047.55 282.825 1048.07 283.278C1048.62 283.731 1049.06 284.292 1049.41 284.962C1049.75 285.632 1049.92 286.419 1049.92 287.324C1049.92 288.356 1049.63 289.325 1049.05 290.23C1048.49 291.117 1047.72 291.841 1046.74 292.403C1045.78 292.946 1044.69 293.217 1043.46 293.217C1042.23 293.217 1041.13 292.946 1040.17 292.403C1039.21 291.841 1038.45 291.117 1037.89 290.23C1037.33 289.325 1037.05 288.356 1037.05 287.324ZM1040.01 287.216C1040.01 287.849 1040.16 288.438 1040.47 288.981C1040.8 289.524 1041.21 289.958 1041.72 290.284C1042.25 290.61 1042.82 290.773 1043.46 290.773C1044.11 290.773 1044.71 290.61 1045.25 290.284C1045.79 289.958 1046.23 289.524 1046.55 288.981C1046.88 288.438 1047.04 287.849 1047.04 287.216C1047.04 286.564 1046.89 285.976 1046.58 285.451C1046.27 284.926 1045.86 284.5 1045.33 284.174C1044.81 283.848 1044.23 283.676 1043.59 283.658C1042.96 283.64 1042.37 283.794 1041.83 284.12C1041.29 284.428 1040.84 284.853 1040.5 285.396C1040.17 285.939 1040.01 286.546 1040.01 287.216ZM1041.5 279.368C1041.5 279.874 1041.71 280.318 1042.13 280.698C1042.54 281.06 1043.01 281.241 1043.54 281.241C1044.06 281.241 1044.53 281.06 1044.92 280.698C1045.32 280.318 1045.52 279.874 1045.52 279.368C1045.52 278.77 1045.32 278.281 1044.92 277.901C1044.54 277.503 1044.08 277.304 1043.54 277.304C1043.01 277.304 1042.54 277.503 1042.13 277.901C1041.71 278.281 1041.5 278.77 1041.5 279.368Z" fill="#32325F"/>
<rect x="1080" width="144.8" height="260" fill="#662D5F"/>
<path d="M1108.2 275.294C1108.07 276.163 1107.95 277.023 1107.84 277.874C1107.75 278.725 1107.64 279.585 1107.52 280.454H1110.07C1110.18 279.585 1110.29 278.725 1110.4 277.874C1110.5 277.023 1110.61 276.163 1110.72 275.294H1113.25C1113.14 276.163 1113.03 277.023 1112.92 277.874C1112.83 278.725 1112.72 279.585 1112.6 280.454H1115.28C1115.25 280.852 1115.21 281.259 1115.18 281.676C1115.16 282.074 1115.12 282.481 1115.07 282.898H1112.32C1112.29 283.314 1112.24 283.74 1112.19 284.174C1112.13 284.609 1112.08 285.052 1112.03 285.505H1114.74C1114.69 285.903 1114.63 286.31 1114.58 286.727C1114.52 287.125 1114.48 287.533 1114.44 287.949H1111.73C1111.64 288.8 1111.54 289.642 1111.43 290.474C1111.34 291.307 1111.24 292.149 1111.13 293H1108.6C1108.69 292.149 1108.79 291.307 1108.9 290.474C1109.01 289.642 1109.11 288.8 1109.2 287.949H1106.68C1106.59 288.8 1106.49 289.642 1106.38 290.474C1106.27 291.307 1106.17 292.149 1106.08 293H1103.53C1103.63 292.149 1103.73 291.307 1103.82 290.474C1103.93 289.642 1104.03 288.8 1104.12 287.949H1101.68C1101.73 287.533 1101.78 287.125 1101.81 286.727C1101.87 286.31 1101.92 285.903 1101.98 285.505H1104.42C1104.48 285.052 1104.53 284.609 1104.58 284.174C1104.64 283.74 1104.69 283.314 1104.75 282.898H1102.3C1102.36 282.481 1102.4 282.074 1102.44 281.676C1102.48 281.259 1102.51 280.852 1102.55 280.454H1105.02C1105.13 279.585 1105.23 278.725 1105.32 277.874C1105.43 277.023 1105.54 276.163 1105.64 275.294H1108.2ZM1107.27 282.898C1107.22 283.314 1107.16 283.74 1107.11 284.174C1107.06 284.609 1107 285.052 1106.95 285.505H1109.5C1109.55 285.052 1109.6 284.609 1109.64 284.174C1109.69 283.74 1109.74 283.314 1109.8 282.898H1107.27ZM1124.22 293.217C1123.01 293.217 1121.9 292.928 1120.91 292.348C1119.93 291.769 1119.15 290.936 1118.57 289.85C1117.99 288.764 1117.7 287.469 1117.7 285.967C1117.7 284.808 1117.93 283.703 1118.38 282.653C1118.84 281.603 1119.44 280.617 1120.2 279.693C1120.98 278.752 1121.85 277.883 1122.81 277.086C1123.79 276.29 1124.8 275.557 1125.85 274.887L1127.78 277.005C1126.31 277.693 1125.09 278.489 1124.11 279.395C1123.14 280.3 1122.38 281.223 1121.86 282.165C1121.33 283.106 1121.04 283.993 1120.96 284.826L1120.23 284.717C1120.72 283.685 1121.35 282.889 1122.13 282.328C1122.93 281.748 1123.95 281.459 1125.2 281.459C1126.1 281.459 1126.96 281.712 1127.78 282.219C1128.61 282.708 1129.28 283.378 1129.79 284.229C1130.3 285.079 1130.55 286.066 1130.55 287.189C1130.55 288.42 1130.25 289.488 1129.65 290.393C1129.06 291.298 1128.28 291.995 1127.32 292.484C1126.36 292.973 1125.33 293.217 1124.22 293.217ZM1124.11 290.61C1124.76 290.61 1125.34 290.474 1125.85 290.203C1126.38 289.913 1126.79 289.515 1127.1 289.008C1127.41 288.483 1127.56 287.877 1127.56 287.189C1127.56 286.519 1127.41 285.939 1127.1 285.451C1126.79 284.962 1126.38 284.582 1125.85 284.31C1125.33 284.038 1124.75 283.903 1124.11 283.903C1123.48 283.903 1122.9 284.038 1122.37 284.31C1121.87 284.563 1121.46 284.916 1121.15 285.369C1120.84 285.804 1120.69 286.292 1120.69 286.836V287.324C1120.69 287.904 1120.84 288.447 1121.13 288.954C1121.43 289.461 1121.85 289.868 1122.37 290.176C1122.9 290.465 1123.48 290.61 1124.11 290.61ZM1138.23 293.217C1137.25 293.217 1136.31 293.036 1135.41 292.674C1134.5 292.312 1133.78 291.868 1133.23 291.343L1134.75 289.062C1135.12 289.479 1135.6 289.814 1136.19 290.067C1136.81 290.321 1137.41 290.447 1137.99 290.447C1138.62 290.447 1139.17 290.312 1139.64 290.04C1140.13 289.768 1140.51 289.388 1140.78 288.899C1141.07 288.411 1141.22 287.849 1141.22 287.216C1141.22 286.528 1141.09 285.921 1140.84 285.396C1140.58 284.853 1140.2 284.428 1139.7 284.12C1139.19 283.812 1138.57 283.658 1137.85 283.658C1137.23 283.658 1136.65 283.749 1136.11 283.93C1135.59 284.093 1135.02 284.346 1134.4 284.69H1134.37V275.104H1143.01V277.874H1136.9V282.11L1136.52 281.513C1136.83 281.422 1137.15 281.35 1137.5 281.296C1137.84 281.241 1138.18 281.214 1138.53 281.214C1139.76 281.214 1140.79 281.486 1141.62 282.029C1142.48 282.572 1143.12 283.287 1143.55 284.174C1143.99 285.061 1144.2 286.039 1144.2 287.107C1144.2 288.248 1143.94 289.28 1143.42 290.203C1142.91 291.126 1142.2 291.859 1141.3 292.403C1140.39 292.946 1139.37 293.217 1138.23 293.217ZM1147.26 293C1148.38 291.859 1149.47 290.755 1150.52 289.687C1151.57 288.619 1152.51 287.578 1153.34 286.564C1154.19 285.55 1154.85 284.572 1155.32 283.631C1155.81 282.69 1156.06 281.775 1156.06 280.888C1156.06 280.345 1155.97 279.874 1155.79 279.476C1155.62 279.06 1155.39 278.725 1155.08 278.471C1154.77 278.2 1154.43 278.001 1154.05 277.874C1153.67 277.729 1153.26 277.657 1152.83 277.657C1152.26 277.657 1151.78 277.747 1151.39 277.928C1150.99 278.109 1150.66 278.345 1150.41 278.634C1150.17 278.906 1149.99 279.205 1149.87 279.53C1149.74 279.856 1149.68 280.182 1149.68 280.508C1149.68 281.106 1149.77 281.64 1149.95 282.11C1150.15 282.581 1150.41 282.988 1150.73 283.332L1148.97 284.962C1148.52 284.69 1148.13 284.301 1147.8 283.794C1147.49 283.269 1147.26 282.717 1147.1 282.137C1146.93 281.558 1146.85 281.042 1146.85 280.59C1146.85 279.594 1147.1 278.671 1147.58 277.82C1148.09 276.951 1148.82 276.245 1149.78 275.701C1150.76 275.158 1151.94 274.887 1153.31 274.887C1154.47 274.887 1155.48 275.149 1156.33 275.674C1157.2 276.199 1157.87 276.905 1158.34 277.792C1158.83 278.661 1159.07 279.612 1159.07 280.644C1159.07 281.531 1158.9 282.4 1158.56 283.251C1158.21 284.102 1157.75 284.944 1157.17 285.776C1156.61 286.591 1155.98 287.406 1155.27 288.22C1154.58 289.017 1153.89 289.823 1153.21 290.637L1151.9 290.203H1159.59V293H1147.26ZM1170.01 293.272C1168.98 293.272 1168.07 293.063 1167.29 292.647C1166.53 292.212 1165.92 291.669 1165.45 291.018L1165.74 290.23V293H1162.95V271.9H1165.72V284.093L1165.66 283.088C1166.1 282.509 1166.73 282.038 1167.56 281.676C1168.4 281.314 1169.33 281.133 1170.36 281.133C1171.38 281.133 1172.3 281.377 1173.13 281.866C1173.98 282.355 1174.65 283.052 1175.14 283.957C1175.65 284.844 1175.9 285.903 1175.9 287.134C1175.9 288.402 1175.63 289.497 1175.09 290.42C1174.54 291.343 1173.82 292.05 1172.91 292.538C1172.03 293.027 1171.06 293.272 1170.01 293.272ZM1169.41 290.909C1170.1 290.909 1170.71 290.746 1171.26 290.42C1171.82 290.094 1172.26 289.642 1172.59 289.062C1172.91 288.483 1173.08 287.831 1173.08 287.107C1173.08 286.401 1172.91 285.767 1172.59 285.206C1172.26 284.645 1171.82 284.201 1171.26 283.875C1170.71 283.532 1170.1 283.36 1169.41 283.36C1168.81 283.36 1168.26 283.468 1167.75 283.685C1167.25 283.903 1166.82 284.201 1166.48 284.582C1166.13 284.962 1165.89 285.405 1165.74 285.912V288.329C1165.89 288.836 1166.13 289.289 1166.48 289.687C1166.82 290.067 1167.24 290.366 1167.73 290.583C1168.23 290.8 1168.8 290.909 1169.41 290.909ZM1183.69 293.217C1182.71 293.217 1181.77 293.036 1180.86 292.674C1179.96 292.312 1179.23 291.868 1178.69 291.343L1180.21 289.062C1180.57 289.479 1181.05 289.814 1181.65 290.067C1182.26 290.321 1182.86 290.447 1183.44 290.447C1184.07 290.447 1184.63 290.312 1185.1 290.04C1185.59 289.768 1185.97 289.388 1186.24 288.899C1186.53 288.411 1186.67 287.849 1186.67 287.216C1186.67 286.528 1186.55 285.921 1186.29 285.396C1186.04 284.853 1185.66 284.428 1185.15 284.12C1184.64 283.812 1184.03 283.658 1183.3 283.658C1182.69 283.658 1182.11 283.749 1181.57 283.93C1181.04 284.093 1180.47 284.346 1179.86 284.69H1179.83V275.104H1188.46V277.874H1182.35V282.11L1181.97 281.513C1182.28 281.422 1182.61 281.35 1182.95 281.296C1183.3 281.241 1183.64 281.214 1183.98 281.214C1185.21 281.214 1186.25 281.486 1187.08 282.029C1187.93 282.572 1188.57 283.287 1189.01 284.174C1189.44 285.061 1189.66 286.039 1189.66 287.107C1189.66 288.248 1189.4 289.28 1188.87 290.203C1188.36 291.126 1187.66 291.859 1186.75 292.403C1185.85 292.946 1184.83 293.217 1183.69 293.217ZM1194.34 293V284.093H1192.41V281.622H1194.34V277.005C1194.34 275.376 1194.73 274.117 1195.51 273.23C1196.29 272.343 1197.42 271.9 1198.91 271.9C1199.3 271.9 1199.75 271.963 1200.24 272.09C1200.72 272.198 1201.16 272.379 1201.54 272.633L1200.37 274.669C1200.21 274.488 1200.02 274.362 1199.8 274.289C1199.6 274.217 1199.39 274.181 1199.18 274.181C1198.54 274.181 1198.05 274.398 1197.68 274.832C1197.32 275.267 1197.14 276.009 1197.14 277.059V281.622H1200.72V284.093H1197.14V293H1194.34Z" fill="#32325F"/>
<rect x="1229" width="144.8" height="260" fill="#9A4567"/>
<path d="M1257.2 275.294C1257.07 276.163 1256.95 277.023 1256.84 277.874C1256.75 278.725 1256.64 279.585 1256.52 280.454H1259.07C1259.18 279.585 1259.29 278.725 1259.4 277.874C1259.5 277.023 1259.61 276.163 1259.72 275.294H1262.25C1262.14 276.163 1262.03 277.023 1261.92 277.874C1261.83 278.725 1261.72 279.585 1261.6 280.454H1264.28C1264.25 280.852 1264.21 281.259 1264.18 281.676C1264.16 282.074 1264.12 282.481 1264.07 282.898H1261.32C1261.29 283.314 1261.24 283.74 1261.19 284.174C1261.13 284.609 1261.08 285.052 1261.03 285.505H1263.74C1263.69 285.903 1263.63 286.31 1263.58 286.727C1263.52 287.125 1263.48 287.533 1263.44 287.949H1260.73C1260.64 288.8 1260.54 289.642 1260.43 290.474C1260.34 291.307 1260.24 292.149 1260.13 293H1257.6C1257.69 292.149 1257.79 291.307 1257.9 290.474C1258.01 289.642 1258.11 288.8 1258.2 287.949H1255.68C1255.59 288.8 1255.49 289.642 1255.38 290.474C1255.27 291.307 1255.17 292.149 1255.08 293H1252.53C1252.63 292.149 1252.73 291.307 1252.82 290.474C1252.93 289.642 1253.03 288.8 1253.12 287.949H1250.68C1250.73 287.533 1250.78 287.125 1250.81 286.727C1250.87 286.31 1250.92 285.903 1250.98 285.505H1253.42C1253.48 285.052 1253.53 284.609 1253.58 284.174C1253.64 283.74 1253.69 283.314 1253.75 282.898H1251.3C1251.36 282.481 1251.4 282.074 1251.44 281.676C1251.48 281.259 1251.51 280.852 1251.55 280.454H1254.02C1254.13 279.585 1254.23 278.725 1254.32 277.874C1254.43 277.023 1254.54 276.163 1254.64 275.294H1257.2ZM1256.27 282.898C1256.22 283.314 1256.16 283.74 1256.11 284.174C1256.06 284.609 1256 285.052 1255.95 285.505H1258.5C1258.55 285.052 1258.6 284.609 1258.64 284.174C1258.69 283.74 1258.74 283.314 1258.8 282.898H1256.27ZM1272.05 287.189C1271.15 287.189 1270.29 286.944 1269.47 286.455C1268.66 285.967 1267.99 285.288 1267.46 284.419C1266.96 283.55 1266.7 282.572 1266.7 281.486C1266.7 280.164 1267 279.033 1267.6 278.091C1268.2 277.15 1268.98 276.426 1269.94 275.919C1270.91 275.394 1271.95 275.131 1273.03 275.131C1274.26 275.131 1275.37 275.403 1276.34 275.946C1277.32 276.489 1278.1 277.24 1278.68 278.2C1279.26 279.159 1279.55 280.255 1279.55 281.486C1279.55 282.916 1279.29 284.219 1278.76 285.396C1278.24 286.555 1277.54 287.614 1276.67 288.574C1275.8 289.515 1274.84 290.384 1273.79 291.181C1272.74 291.959 1271.69 292.692 1270.64 293.38L1268.71 291.262C1270.22 290.52 1271.52 289.732 1272.62 288.899C1273.73 288.049 1274.59 287.198 1275.2 286.347C1275.84 285.496 1276.2 284.69 1276.29 283.93L1277.08 283.957C1276.55 284.989 1275.91 285.785 1275.15 286.347C1274.41 286.908 1273.38 287.189 1272.05 287.189ZM1273.14 284.744C1274.14 284.744 1274.96 284.455 1275.61 283.875C1276.26 283.278 1276.59 282.527 1276.59 281.622V281.078C1276.57 280.463 1276.41 279.911 1276.1 279.422C1275.79 278.915 1275.38 278.508 1274.88 278.2C1274.37 277.892 1273.79 277.738 1273.14 277.738C1272.51 277.738 1271.93 277.883 1271.4 278.173C1270.88 278.462 1270.46 278.879 1270.15 279.422C1269.86 279.947 1269.72 280.571 1269.72 281.296C1269.72 281.984 1269.87 282.59 1270.18 283.115C1270.49 283.64 1270.9 284.047 1271.4 284.337C1271.93 284.609 1272.51 284.744 1273.14 284.744ZM1287.86 293.217C1286.65 293.217 1285.54 292.928 1284.55 292.348C1283.57 291.769 1282.79 290.936 1282.21 289.85C1281.63 288.764 1281.34 287.469 1281.34 285.967C1281.34 284.808 1281.57 283.703 1282.02 282.653C1282.47 281.603 1283.08 280.617 1283.84 279.693C1284.62 278.752 1285.49 277.883 1286.45 277.086C1287.43 276.29 1288.44 275.557 1289.49 274.887L1291.42 277.005C1289.95 277.693 1288.73 278.489 1287.75 279.395C1286.77 280.3 1286.02 281.223 1285.5 282.165C1284.97 283.106 1284.67 283.993 1284.6 284.826L1283.87 284.717C1284.36 283.685 1284.99 282.889 1285.77 282.328C1286.57 281.748 1287.59 281.459 1288.84 281.459C1289.74 281.459 1290.6 281.712 1291.42 282.219C1292.25 282.708 1292.92 283.378 1293.43 284.229C1293.93 285.079 1294.19 286.066 1294.19 287.189C1294.19 288.42 1293.89 289.488 1293.29 290.393C1292.69 291.298 1291.92 291.995 1290.96 292.484C1290 292.973 1288.96 293.217 1287.86 293.217ZM1287.75 290.61C1288.4 290.61 1288.98 290.474 1289.49 290.203C1290.01 289.913 1290.43 289.515 1290.74 289.008C1291.05 288.483 1291.2 287.877 1291.2 287.189C1291.2 286.519 1291.05 285.939 1290.74 285.451C1290.43 284.962 1290.01 284.582 1289.49 284.31C1288.96 284.038 1288.39 283.903 1287.75 283.903C1287.12 283.903 1286.54 284.038 1286.01 284.31C1285.51 284.563 1285.1 284.916 1284.79 285.369C1284.48 285.804 1284.33 286.292 1284.33 286.836V287.324C1284.33 287.904 1284.47 288.447 1284.76 288.954C1285.07 289.461 1285.49 289.868 1286.01 290.176C1286.54 290.465 1287.12 290.61 1287.75 290.61ZM1295.57 288.764V288.736L1306.59 274.887H1306.62V286.537H1308.9V288.764H1306.62V293H1303.72V288.764H1295.57ZM1303.88 281.377L1299.81 286.673L1299.4 286.537H1303.72V280.943L1303.88 281.377ZM1310.21 288.764V288.736L1321.23 274.887H1321.26V286.537H1323.54V288.764H1321.26V293H1318.35V288.764H1310.21ZM1318.52 281.377L1314.44 286.673L1314.04 286.537H1318.35V280.943L1318.52 281.377ZM1332.02 293.217C1330.8 293.217 1329.7 292.928 1328.7 292.348C1327.73 291.769 1326.95 290.936 1326.37 289.85C1325.79 288.764 1325.5 287.469 1325.5 285.967C1325.5 284.808 1325.72 283.703 1326.18 282.653C1326.63 281.603 1327.24 280.617 1328 279.693C1328.78 278.752 1329.64 277.883 1330.6 277.086C1331.58 276.29 1332.6 275.557 1333.65 274.887L1335.57 277.005C1334.11 277.693 1332.88 278.489 1331.91 279.395C1330.93 280.3 1330.18 281.223 1329.65 282.165C1329.13 283.106 1328.83 283.993 1328.76 284.826L1328.02 284.717C1328.51 283.685 1329.15 282.889 1329.92 282.328C1330.72 281.748 1331.74 281.459 1332.99 281.459C1333.9 281.459 1334.76 281.712 1335.57 282.219C1336.41 282.708 1337.08 283.378 1337.58 284.229C1338.09 285.079 1338.34 286.066 1338.34 287.189C1338.34 288.42 1338.04 289.488 1337.45 290.393C1336.85 291.298 1336.07 291.995 1335.11 292.484C1334.15 292.973 1333.12 293.217 1332.02 293.217ZM1331.91 290.61C1332.56 290.61 1333.14 290.474 1333.65 290.203C1334.17 289.913 1334.59 289.515 1334.89 289.008C1335.2 288.483 1335.36 287.877 1335.36 287.189C1335.36 286.519 1335.2 285.939 1334.89 285.451C1334.59 284.962 1334.17 284.582 1333.65 284.31C1333.12 284.038 1332.54 283.903 1331.91 283.903C1331.27 283.903 1330.69 284.038 1330.17 284.31C1329.66 284.563 1329.25 284.916 1328.95 285.369C1328.64 285.804 1328.49 286.292 1328.49 286.836V287.324C1328.49 287.904 1328.63 288.447 1328.92 288.954C1329.23 289.461 1329.64 289.868 1330.17 290.176C1330.69 290.465 1331.27 290.61 1331.91 290.61ZM1352.08 275.104L1345.02 293H1341.76L1348.03 277.494L1349.01 277.874H1340.29V275.104H1352.08Z" fill="#32325F"/>
<rect x="1379" width="144.8" height="260" fill="#CA586E"/>
<path d="M1408.2 275.294C1408.07 276.163 1407.95 277.023 1407.84 277.874C1407.75 278.725 1407.64 279.585 1407.52 280.454H1410.07C1410.18 279.585 1410.29 278.725 1410.4 277.874C1410.5 277.023 1410.61 276.163 1410.72 275.294H1413.25C1413.14 276.163 1413.03 277.023 1412.92 277.874C1412.83 278.725 1412.72 279.585 1412.6 280.454H1415.28C1415.25 280.852 1415.21 281.259 1415.18 281.676C1415.16 282.074 1415.12 282.481 1415.07 282.898H1412.32C1412.29 283.314 1412.24 283.74 1412.19 284.174C1412.13 284.609 1412.08 285.052 1412.03 285.505H1414.74C1414.69 285.903 1414.63 286.31 1414.58 286.727C1414.52 287.125 1414.48 287.533 1414.44 287.949H1411.73C1411.64 288.8 1411.54 289.642 1411.43 290.474C1411.34 291.307 1411.24 292.149 1411.13 293H1408.6C1408.69 292.149 1408.79 291.307 1408.9 290.474C1409.01 289.642 1409.11 288.8 1409.2 287.949H1406.68C1406.59 288.8 1406.49 289.642 1406.38 290.474C1406.27 291.307 1406.17 292.149 1406.08 293H1403.53C1403.63 292.149 1403.73 291.307 1403.82 290.474C1403.93 289.642 1404.03 288.8 1404.12 287.949H1401.68C1401.73 287.533 1401.78 287.125 1401.81 286.727C1401.87 286.31 1401.92 285.903 1401.98 285.505H1404.42C1404.48 285.052 1404.53 284.609 1404.58 284.174C1404.64 283.74 1404.69 283.314 1404.75 282.898H1402.3C1402.36 282.481 1402.4 282.074 1402.44 281.676C1402.48 281.259 1402.51 280.852 1402.55 280.454H1405.02C1405.13 279.585 1405.23 278.725 1405.32 277.874C1405.43 277.023 1405.54 276.163 1405.64 275.294H1408.2ZM1407.27 282.898C1407.22 283.314 1407.16 283.74 1407.11 284.174C1407.06 284.609 1407 285.052 1406.95 285.505H1409.5C1409.55 285.052 1409.6 284.609 1409.64 284.174C1409.69 283.74 1409.74 283.314 1409.8 282.898H1407.27ZM1428.19 291.941C1427.68 292.357 1427.06 292.683 1426.34 292.919C1425.63 293.154 1424.92 293.272 1424.19 293.272C1422.95 293.272 1421.84 293.027 1420.88 292.538C1419.94 292.05 1419.21 291.362 1418.68 290.474C1418.16 289.587 1417.89 288.528 1417.89 287.297C1417.89 286.084 1418.17 285.034 1418.74 284.147C1419.3 283.242 1420.04 282.554 1420.96 282.083C1421.89 281.594 1422.86 281.35 1423.9 281.35C1424.84 281.35 1425.67 281.477 1426.39 281.73C1427.12 281.984 1427.74 282.337 1428.27 282.789L1426.88 284.609C1426.57 284.355 1426.19 284.129 1425.71 283.93C1425.26 283.731 1424.74 283.631 1424.14 283.631C1423.51 283.631 1422.93 283.794 1422.4 284.12C1421.88 284.428 1421.46 284.862 1421.15 285.423C1420.84 285.967 1420.69 286.591 1420.69 287.297C1420.69 287.967 1420.84 288.592 1421.15 289.171C1421.48 289.732 1421.92 290.176 1422.48 290.502C1423.04 290.827 1423.69 290.99 1424.41 290.99C1424.88 290.99 1425.32 290.927 1425.71 290.8C1426.11 290.656 1426.47 290.456 1426.77 290.203L1428.19 291.941ZM1436.14 293.272C1435.07 293.272 1434.1 293.054 1433.24 292.62C1432.37 292.167 1431.68 291.497 1431.17 290.61C1430.66 289.723 1430.41 288.628 1430.41 287.324C1430.41 286.039 1430.67 284.935 1431.2 284.011C1431.74 283.088 1432.45 282.382 1433.32 281.893C1434.2 281.386 1435.16 281.133 1436.2 281.133C1437.28 281.133 1438.17 281.368 1438.86 281.839C1439.56 282.291 1440.12 282.825 1440.51 283.441L1440.32 283.875L1440.59 281.622H1443.17V293H1440.38V290.149L1440.68 290.827C1440.6 290.972 1440.45 291.181 1440.21 291.452C1439.98 291.706 1439.66 291.977 1439.26 292.267C1438.88 292.556 1438.43 292.801 1437.91 293C1437.4 293.181 1436.81 293.272 1436.14 293.272ZM1436.9 290.99C1437.5 290.99 1438.03 290.882 1438.5 290.665C1438.97 290.447 1439.37 290.14 1439.7 289.741C1440.02 289.343 1440.25 288.872 1440.38 288.329V285.967C1440.23 285.46 1439.99 285.025 1439.64 284.663C1439.3 284.283 1438.88 283.984 1438.4 283.767C1437.92 283.55 1437.4 283.441 1436.82 283.441C1436.17 283.441 1435.57 283.604 1435.03 283.93C1434.48 284.238 1434.05 284.672 1433.72 285.233C1433.4 285.795 1433.24 286.446 1433.24 287.189C1433.24 287.895 1433.4 288.537 1433.72 289.117C1434.07 289.696 1434.52 290.158 1435.08 290.502C1435.64 290.827 1436.25 290.99 1436.9 290.99ZM1451.94 293.217C1450.96 293.217 1450.02 293.036 1449.12 292.674C1448.21 292.312 1447.49 291.868 1446.94 291.343L1448.46 289.062C1448.83 289.479 1449.31 289.814 1449.9 290.067C1450.52 290.321 1451.12 290.447 1451.7 290.447C1452.33 290.447 1452.88 290.312 1453.35 290.04C1453.84 289.768 1454.22 289.388 1454.49 288.899C1454.78 288.411 1454.93 287.849 1454.93 287.216C1454.93 286.528 1454.8 285.921 1454.55 285.396C1454.29 284.853 1453.91 284.428 1453.41 284.12C1452.9 283.812 1452.28 283.658 1451.56 283.658C1450.95 283.658 1450.37 283.749 1449.82 283.93C1449.3 284.093 1448.73 284.346 1448.11 284.69H1448.08V275.104H1456.72V277.874H1450.61V282.11L1450.23 281.513C1450.54 281.422 1450.86 281.35 1451.21 281.296C1451.55 281.241 1451.9 281.214 1452.24 281.214C1453.47 281.214 1454.5 281.486 1455.34 282.029C1456.19 282.572 1456.83 283.287 1457.26 284.174C1457.7 285.061 1457.92 286.039 1457.92 287.107C1457.92 288.248 1457.65 289.28 1457.13 290.203C1456.62 291.126 1455.91 291.859 1455.01 292.403C1454.1 292.946 1453.08 293.217 1451.94 293.217ZM1460.18 287.324C1460.18 286.401 1460.35 285.604 1460.7 284.935C1461.06 284.265 1461.5 283.703 1462.03 283.251C1462.55 282.798 1463.08 282.454 1463.6 282.219C1463.1 281.857 1462.67 281.431 1462.33 280.943C1462 280.436 1461.84 279.793 1461.84 279.015C1461.84 278.2 1462.05 277.485 1462.46 276.869C1462.88 276.254 1463.45 275.774 1464.17 275.43C1464.9 275.068 1465.71 274.887 1466.62 274.887C1467.52 274.887 1468.34 275.068 1469.06 275.43C1469.79 275.774 1470.36 276.245 1470.77 276.842C1471.21 277.439 1471.42 278.118 1471.42 278.879C1471.42 279.73 1471.25 280.409 1470.91 280.915C1470.56 281.404 1470.13 281.839 1469.6 282.219C1470.15 282.472 1470.68 282.825 1471.21 283.278C1471.75 283.731 1472.19 284.292 1472.54 284.962C1472.88 285.632 1473.05 286.419 1473.05 287.324C1473.05 288.356 1472.76 289.325 1472.18 290.23C1471.62 291.117 1470.85 291.841 1469.88 292.403C1468.92 292.946 1467.82 293.217 1466.59 293.217C1465.36 293.217 1464.26 292.946 1463.3 292.403C1462.35 291.841 1461.58 291.117 1461.02 290.23C1460.46 289.325 1460.18 288.356 1460.18 287.324ZM1463.14 287.216C1463.14 287.849 1463.3 288.438 1463.6 288.981C1463.93 289.524 1464.35 289.958 1464.85 290.284C1465.38 290.61 1465.96 290.773 1466.59 290.773C1467.24 290.773 1467.84 290.61 1468.38 290.284C1468.93 289.958 1469.36 289.524 1469.69 288.981C1470.01 288.438 1470.18 287.849 1470.18 287.216C1470.18 286.564 1470.02 285.976 1469.71 285.451C1469.41 284.926 1468.99 284.5 1468.46 284.174C1467.94 283.848 1467.36 283.676 1466.73 283.658C1466.09 283.64 1465.5 283.794 1464.96 284.12C1464.42 284.428 1463.97 284.853 1463.63 285.396C1463.3 285.939 1463.14 286.546 1463.14 287.216ZM1464.64 279.368C1464.64 279.874 1464.84 280.318 1465.26 280.698C1465.68 281.06 1466.15 281.241 1466.67 281.241C1467.2 281.241 1467.66 281.06 1468.06 280.698C1468.46 280.318 1468.65 279.874 1468.65 279.368C1468.65 278.77 1468.46 278.281 1468.06 277.901C1467.68 277.503 1467.22 277.304 1466.67 277.304C1466.15 277.304 1465.68 277.503 1465.26 277.901C1464.84 278.281 1464.64 278.77 1464.64 279.368ZM1481.27 293.217C1480.05 293.217 1478.95 292.928 1477.95 292.348C1476.97 291.769 1476.2 290.936 1475.62 289.85C1475.04 288.764 1474.75 287.469 1474.75 285.967C1474.75 284.808 1474.97 283.703 1475.43 282.653C1475.88 281.603 1476.49 280.617 1477.25 279.693C1478.02 278.752 1478.89 277.883 1479.85 277.086C1480.83 276.29 1481.84 275.557 1482.89 274.887L1484.82 277.005C1483.36 277.693 1482.13 278.489 1481.16 279.395C1480.18 280.3 1479.43 281.223 1478.9 282.165C1478.38 283.106 1478.08 283.993 1478.01 284.826L1477.27 284.717C1477.76 283.685 1478.4 282.889 1479.17 282.328C1479.97 281.748 1480.99 281.459 1482.24 281.459C1483.15 281.459 1484.01 281.712 1484.82 282.219C1485.66 282.708 1486.33 283.378 1486.83 284.229C1487.34 285.079 1487.59 286.066 1487.59 287.189C1487.59 288.42 1487.29 289.488 1486.7 290.393C1486.1 291.298 1485.32 291.995 1484.36 292.484C1483.4 292.973 1482.37 293.217 1481.27 293.217ZM1481.16 290.61C1481.81 290.61 1482.39 290.474 1482.89 290.203C1483.42 289.913 1483.84 289.515 1484.14 289.008C1484.45 288.483 1484.61 287.877 1484.61 287.189C1484.61 286.519 1484.45 285.939 1484.14 285.451C1483.84 284.962 1483.42 284.582 1482.89 284.31C1482.37 284.038 1481.79 283.903 1481.16 283.903C1480.52 283.903 1479.94 284.038 1479.42 284.31C1478.91 284.563 1478.5 284.916 1478.2 285.369C1477.89 285.804 1477.74 286.292 1477.74 286.836V287.324C1477.74 287.904 1477.88 288.447 1478.17 288.954C1478.48 289.461 1478.89 289.868 1479.42 290.176C1479.94 290.465 1480.52 290.61 1481.16 290.61ZM1496.14 293.272C1494.82 293.272 1493.69 293.018 1492.75 292.511C1491.81 291.986 1491.08 291.271 1490.58 290.366C1490.07 289.443 1489.82 288.392 1489.82 287.216C1489.82 286.093 1490.1 285.079 1490.66 284.174C1491.24 283.251 1492.01 282.518 1492.97 281.975C1493.94 281.431 1495.02 281.16 1496.2 281.16C1497.72 281.16 1498.98 281.603 1499.97 282.491C1500.99 283.378 1501.66 284.618 1502.01 286.211L1492.75 289.415L1492.1 287.786L1499.51 285.125L1498.94 285.478C1498.72 284.916 1498.38 284.428 1497.91 284.011C1497.44 283.577 1496.79 283.36 1495.98 283.36C1495.33 283.36 1494.74 283.522 1494.22 283.848C1493.71 284.156 1493.3 284.591 1492.99 285.152C1492.7 285.695 1492.56 286.338 1492.56 287.08C1492.56 287.84 1492.71 288.51 1493.02 289.089C1493.35 289.651 1493.78 290.094 1494.32 290.42C1494.88 290.746 1495.51 290.909 1496.2 290.909C1496.69 290.909 1497.15 290.818 1497.58 290.637C1498.04 290.456 1498.46 290.23 1498.86 289.958L1500.14 292.022C1499.54 292.403 1498.89 292.71 1498.18 292.946C1497.49 293.163 1496.81 293.272 1496.14 293.272Z" fill="#32325F"/>
</svg>
