<svg width="430" height="430" viewBox="0 0 430 430" fill="none" xmlns="http://www.w3.org/2000/svg">
<path d="M221.542 268.208C221.542 235.092 205.79 210.613 173.248 201.439C196.992 190.131 209.374 173 209.374 146.353C209.374 93.8126 170.094 81 124.775 81H0V344.796H128.269C176.366 344.796 221.542 321.805 221.542 268.208ZM58.1675 126.032H112.751C133.735 126.032 152.622 131.91 152.622 156.173C152.622 178.573 137.928 187.587 117.141 187.587H58.1675V126.032ZM58.1496 299.997V227.351H121.55C147.157 227.351 163.356 237.995 163.356 265.018C163.356 291.664 144.021 299.997 120.349 299.997H58.1496ZM336.819 349.796C382.586 349.796 412.226 329.242 426.49 285.554H380.042C375.042 301.861 354.434 310.48 338.45 310.48C307.61 310.48 291.411 292.471 291.411 261.864H429.626C433.998 200.614 399.879 148.414 336.801 148.414C278.401 148.414 238.763 192.174 238.763 249.499C238.763 308.993 276.322 349.796 336.819 349.796ZM335.171 188.053C361.602 188.053 374.899 203.535 377.121 228.856H291.482C293.221 203.75 309.94 188.053 335.171 188.053ZM280.749 94.852H388.052V120.836H280.749V94.852Z" fill="#32325F"/>
</svg>
