<svg width="430" height="430" viewBox="0 0 430 430" fill="none" xmlns="http://www.w3.org/2000/svg">
<path d="M255.2 227.06C268.265 260.225 277.98 294.395 284.345 329.57C293.39 324.21 301.765 317.51 309.47 309.805C329.57 289.705 342.3 264.58 346.99 237.445C327.225 229.405 305.785 224.715 283.34 224.715C273.96 224.715 264.58 225.385 255.2 227.06ZM309.805 120.53C309.805 120.195 309.805 120.195 309.805 120.53C284.345 95.07 250.845 81 215 81C200.93 81 187.195 83.01 174.465 87.365C195.235 113.495 213.66 141.3 229.07 170.445C258.55 158.05 285.685 140.965 309.805 120.53ZM320.525 132.255C295.065 154.03 266.925 171.45 236.44 184.515C240.795 193.56 245.15 202.94 249.17 212.32C260.56 210.31 271.95 208.97 283.675 208.97C306.12 208.97 328.23 212.99 349 221.03V215C349 184.515 338.95 155.705 320.525 132.255ZM132.59 320.525C156.04 338.95 184.85 349 215 349C234.095 349 252.855 344.98 269.94 337.275C263.575 300.425 253.19 264.58 239.79 230.41C192.22 243.475 153.025 276.975 132.59 320.525Z" fill="#32325F"/>
<path d="M212.32 223.375C219.355 220.36 226.39 218.015 233.425 216.005C229.74 207.295 225.72 198.92 221.365 190.545C185.185 203.945 146.995 210.645 108.135 210.645C99.09 210.645 90.045 210.31 81 209.64V215C81 250.845 95.07 284.345 120.195 309.805C128.905 292.385 140.295 276.64 154.365 262.57C171.115 245.82 190.88 232.42 212.32 223.375ZM214.33 176.475C198.25 146.995 179.825 119.19 158.72 93.395C144.65 100.095 131.585 109.14 120.195 120.195C99.76 140.63 87.03 166.09 82.675 193.895C91.05 194.565 99.76 194.9 108.135 194.9C145.32 194.9 181.165 188.535 214.33 176.475Z" fill="#32325F"/>
</svg>
