<svg width="430" height="430" viewBox="0 0 430 430" fill="none" xmlns="http://www.w3.org/2000/svg">
<path d="M349 349V250.845C349 202.605 338.615 165.755 282.335 165.755C255.2 165.755 237.11 180.495 229.74 194.565H229.07V170.11H175.805V349H231.415V260.225C231.415 236.775 235.77 214.33 264.58 214.33C293.055 214.33 293.39 240.795 293.39 261.565V348.665H349V349ZM85.355 170.11H140.965V349H85.355V170.11ZM113.16 81C95.405 81 81 95.405 81 113.16C81 130.915 95.405 145.655 113.16 145.655C130.915 145.655 145.32 130.915 145.32 113.16C145.32 95.405 130.915 81 113.16 81Z" fill="#32325F"/>
</svg>
